AvenirLTStd-Medium.ufo
<glyph name="exclam" format="2">
  <advance width="278"/>
  <unicode hex="0021"/>
  <outline>
    <contour>
      <point x="185" y="708" type="line"/>
      <point x="185" y="204" type="line"/>
      <point x="89" y="204" type="line"/>
      <point x="89" y="708" type="line"/>
    </contour>
    <contour>
      <point x="73" y="60" type="curve" smooth="yes"/>
      <point x="73" y="96"/>
      <point x="103" y="126"/>
      <point x="139" y="126" type="curve" smooth="yes"/>
      <point x="175" y="126"/>
      <point x="205" y="96"/>
      <point x="205" y="60" type="curve" smooth="yes"/>
      <point x="205" y="24"/>
      <point x="175" y="-6"/>
      <point x="139" y="-6" type="curve" smooth="yes"/>
      <point x="103" y="-6"/>
      <point x="73" y="24"/>
    </contour>
  </outline>
</glyph>
<glyph name="quotedbl" format="2">
  <advance width="519"/>
  <unicode hex="0022"/>
  <outline>
    <contour>
      <point x="146" y="462" type="line"/>
      <point x="146" y="708" type="line"/>
      <point x="224" y="708" type="line"/>
      <point x="224" y="462" type="line"/>
    </contour>
    <contour>
      <point x="295" y="462" type="line"/>
      <point x="295" y="708" type="line"/>
      <point x="373" y="708" type="line"/>
      <point x="373" y="462" type="line"/>
    </contour>
  </outline>
</glyph>
<glyph name="numbersign" format="2">
  <advance width="556"/>
  <unicode hex="0023"/>
  <outline>
    <contour>
      <point x="92" y="0" type="line"/>
      <point x="120" y="204" type="line"/>
      <point x="25" y="204" type="line"/>
      <point x="25" y="282" type="line"/>
      <point x="131" y="282" type="line"/>
      <point x="151" y="426" type="line"/>
      <point x="56" y="426" type="line"/>
      <point x="56" y="504" type="line"/>
      <point x="162" y="504" type="line"/>
      <point x="190" y="708" type="line"/>
      <point x="269" y="708" type="line"/>
      <point x="241" y="504" type="line"/>
      <point x="357" y="504" type="line"/>
      <point x="385" y="708" type="line"/>
      <point x="464" y="708" type="line"/>
      <point x="436" y="504" type="line"/>
      <point x="531" y="504" type="line"/>
      <point x="531" y="426" type="line"/>
      <point x="425" y="426" type="line"/>
      <point x="405" y="282" type="line"/>
      <point x="500" y="282" type="line"/>
      <point x="500" y="204" type="line"/>
      <point x="394" y="204" type="line"/>
      <point x="366" y="0" type="line"/>
      <point x="287" y="0" type="line"/>
      <point x="315" y="204" type="line"/>
      <point x="199" y="204" type="line"/>
      <point x="171" y="0" type="line"/>
    </contour>
    <contour>
      <point x="346" y="426" type="line"/>
      <point x="230" y="426" type="line"/>
      <point x="210" y="282" type="line"/>
      <point x="326" y="282" type="line"/>
    </contour>
  </outline>
</glyph>
<glyph name="dollar" format="2">
  <advance width="556"/>
  <unicode hex="0024"/>
  <outline>
    <contour>
      <point x="300" y="792" type="line"/>
      <point x="300" y="720" type="line"/>
      <point x="373" y="720"/>
      <point x="447" y="696"/>
      <point x="498" y="643" type="curve"/>
      <point x="426" y="573" type="line"/>
      <point x="396" y="612"/>
      <point x="350" y="635"/>
      <point x="300" y="636" type="curve"/>
      <point x="300" y="400" type="line"/>
      <point x="298" y="399" type="line"/>
      <point x="414" y="367"/>
      <point x="516" y="330"/>
      <point x="516" y="194" type="curve" smooth="yes"/>
      <point x="516" y="72"/>
      <point x="416" y="-5"/>
      <point x="300" y="-12" type="curve"/>
      <point x="300" y="-84" type="line"/>
      <point x="246" y="-84" type="line"/>
      <point x="246" y="-12" type="line"/>
      <point x="159" y="-12"/>
      <point x="80" y="14"/>
      <point x="26" y="84" type="curve"/>
      <point x="103" y="153" type="line"/>
      <point x="133" y="103"/>
      <point x="190" y="74"/>
      <point x="246" y="72" type="curve"/>
      <point x="246" y="318" type="line"/>
      <point x="138" y="346"/>
      <point x="42" y="396"/>
      <point x="42" y="523" type="curve" smooth="yes"/>
      <point x="42" y="637"/>
      <point x="139" y="711"/>
      <point x="246" y="720" type="curve"/>
      <point x="246" y="792" type="line"/>
    </contour>
    <contour>
      <point x="246" y="414" type="curve"/>
      <point x="246" y="636" type="line"/>
      <point x="183" y="626"/>
      <point x="138" y="586"/>
      <point x="138" y="523" type="curve" smooth="yes"/>
      <point x="138" y="460"/>
      <point x="190" y="430"/>
    </contour>
    <contour>
      <point x="300" y="304" type="curve"/>
      <point x="300" y="72" type="line"/>
      <point x="366" y="80"/>
      <point x="420" y="122"/>
      <point x="420" y="190" type="curve" smooth="yes"/>
      <point x="420" y="259"/>
      <point x="360" y="285"/>
    </contour>
  </outline>
</glyph>
<glyph name="percent" format="2">
  <advance width="852"/>
  <unicode hex="0025"/>
  <outline>
    <contour>
      <point x="37" y="549" type="curve" smooth="yes"/>
      <point x="37" y="647"/>
      <point x="116" y="726"/>
      <point x="214" y="726" type="curve" smooth="yes"/>
      <point x="312" y="726"/>
      <point x="391" y="647"/>
      <point x="391" y="549" type="curve" smooth="yes"/>
      <point x="391" y="451"/>
      <point x="312" y="372"/>
      <point x="214" y="372" type="curve" smooth="yes"/>
      <point x="116" y="372"/>
      <point x="37" y="451"/>
    </contour>
    <contour>
      <point x="115" y="549" type="curve" smooth="yes"/>
      <point x="115" y="494"/>
      <point x="159" y="450"/>
      <point x="214" y="450" type="curve" smooth="yes"/>
      <point x="269" y="450"/>
      <point x="313" y="494"/>
      <point x="313" y="549" type="curve" smooth="yes"/>
      <point x="313" y="604"/>
      <point x="269" y="648"/>
      <point x="214" y="648" type="curve" smooth="yes"/>
      <point x="159" y="648"/>
      <point x="115" y="604"/>
    </contour>
    <contour>
      <point x="461" y="159" type="curve" smooth="yes"/>
      <point x="461" y="257"/>
      <point x="540" y="336"/>
      <point x="638" y="336" type="curve" smooth="yes"/>
      <point x="736" y="336"/>
      <point x="815" y="257"/>
      <point x="815" y="159" type="curve" smooth="yes"/>
      <point x="815" y="61"/>
      <point x="736" y="-18"/>
      <point x="638" y="-18" type="curve" smooth="yes"/>
      <point x="540" y="-18"/>
      <point x="461" y="61"/>
    </contour>
    <contour>
      <point x="539" y="159" type="curve" smooth="yes"/>
      <point x="539" y="104"/>
      <point x="583" y="60"/>
      <point x="638" y="60" type="curve" smooth="yes"/>
      <point x="693" y="60"/>
      <point x="737" y="104"/>
      <point x="737" y="159" type="curve" smooth="yes"/>
      <point x="737" y="214"/>
      <point x="693" y="258"/>
      <point x="638" y="258" type="curve" smooth="yes"/>
      <point x="583" y="258"/>
      <point x="539" y="214"/>
    </contour>
    <contour>
      <point x="680" y="709" type="line"/>
      <point x="235" y="-31" type="line"/>
      <point x="175" y="0" type="line"/>
      <point x="620" y="740" type="line"/>
    </contour>
  </outline>
</glyph>
<glyph name="ampersand" format="2">
  <advance width="722"/>
  <unicode hex="0026"/>
  <outline>
    <contour>
      <point x="551" y="165" type="line"/>
      <point x="712" y="0" type="line"/>
      <point x="583" y="0" type="line"/>
      <point x="496" y="94" type="line"/>
      <point x="436" y="22"/>
      <point x="374" y="-18"/>
      <point x="279" y="-18" type="curve" smooth="yes"/>
      <point x="119" y="-18"/>
      <point x="47" y="84"/>
      <point x="47" y="187" type="curve" smooth="yes"/>
      <point x="47" y="286"/>
      <point x="122" y="349"/>
      <point x="208" y="390" type="curve"/>
      <point x="163" y="438"/>
      <point x="125" y="485"/>
      <point x="125" y="554" type="curve" smooth="yes"/>
      <point x="125" y="662"/>
      <point x="213" y="720"/>
      <point x="314" y="720" type="curve" smooth="yes"/>
      <point x="413" y="720"/>
      <point x="497" y="667"/>
      <point x="497" y="560" type="curve" smooth="yes"/>
      <point x="497" y="471"/>
      <point x="421" y="415"/>
      <point x="350" y="378" type="curve"/>
      <point x="490" y="232" type="line"/>
      <point x="579" y="377" type="line"/>
      <point x="688" y="377" type="line"/>
    </contour>
    <contour>
      <point x="401" y="560" type="curve" smooth="yes"/>
      <point x="401" y="607"/>
      <point x="365" y="636"/>
      <point x="315" y="636" type="curve" smooth="yes"/>
      <point x="264" y="636"/>
      <point x="221" y="606"/>
      <point x="221" y="553" type="curve" smooth="yes"/>
      <point x="221" y="506"/>
      <point x="260" y="466"/>
      <point x="291" y="435" type="curve"/>
      <point x="340" y="462"/>
      <point x="401" y="496"/>
    </contour>
    <contour>
      <point x="439" y="156" type="curve"/>
      <point x="268" y="334" type="line"/>
      <point x="211" y="301"/>
      <point x="149" y="263"/>
      <point x="149" y="190" type="curve" smooth="yes"/>
      <point x="149" y="121"/>
      <point x="214" y="66"/>
      <point x="282" y="66" type="curve" smooth="yes"/>
      <point x="351" y="66"/>
      <point x="402" y="112"/>
    </contour>
  </outline>
</glyph>
<glyph name="quotesingle" format="2">
  <advance width="278"/>
  <unicode hex="0027"/>
  <outline>
    <contour>
      <point x="178" y="708" type="line"/>
      <point x="178" y="462" type="line"/>
      <point x="100" y="462" type="line"/>
      <point x="100" y="708" type="line"/>
    </contour>
  </outline>
</glyph>
<glyph name="parenleft" format="2">
  <advance width="278"/>
  <unicode hex="0028"/>
  <outline>
    <contour>
      <point x="194" y="732" type="curve"/>
      <point x="254" y="694" type="line"/>
      <point x="168" y="559"/>
      <point x="126" y="449"/>
      <point x="126" y="288" type="curve" smooth="yes"/>
      <point x="126" y="142"/>
      <point x="169" y="1"/>
      <point x="254" y="-116" type="curve"/>
      <point x="194" y="-156" type="line"/>
      <point x="102" y="-31"/>
      <point x="48" y="124"/>
      <point x="48" y="288" type="curve" smooth="yes"/>
      <point x="48" y="441"/>
      <point x="99" y="601"/>
    </contour>
  </outline>
</glyph>
<glyph name="parenright" format="2">
  <advance width="278"/>
  <unicode hex="0029"/>
  <outline>
    <contour>
      <point x="84" y="-156" type="curve"/>
      <point x="24" y="-118" type="line"/>
      <point x="110" y="17"/>
      <point x="152" y="127"/>
      <point x="152" y="288" type="curve" smooth="yes"/>
      <point x="152" y="434"/>
      <point x="109" y="575"/>
      <point x="24" y="692" type="curve"/>
      <point x="84" y="732" type="line"/>
      <point x="176" y="607"/>
      <point x="230" y="452"/>
      <point x="230" y="288" type="curve" smooth="yes"/>
      <point x="230" y="135"/>
      <point x="179" y="-25"/>
    </contour>
  </outline>
</glyph>
<glyph name="asterisk" format="2">
  <advance width="464"/>
  <unicode hex="002A"/>
  <outline>
    <contour>
      <point x="269" y="708" type="line"/>
      <point x="269" y="561" type="line"/>
      <point x="408" y="608" type="line"/>
      <point x="429" y="541" type="line"/>
      <point x="290" y="496" type="line"/>
      <point x="378" y="377" type="line"/>
      <point x="323" y="336" type="line"/>
      <point x="232" y="458" type="line"/>
      <point x="143" y="338" type="line"/>
      <point x="88" y="379" type="line"/>
      <point x="177" y="496" type="line"/>
      <point x="35" y="544" type="line"/>
      <point x="56" y="609" type="line"/>
      <point x="197" y="561" type="line"/>
      <point x="197" y="708" type="line"/>
    </contour>
  </outline>
</glyph>
<glyph name="plus" format="2">
  <advance width="666"/>
  <unicode hex="002B"/>
  <outline>
    <contour>
      <point x="66" y="264" type="line"/>
      <point x="66" y="342" type="line"/>
      <point x="294" y="342" type="line"/>
      <point x="294" y="570" type="line"/>
      <point x="372" y="570" type="line"/>
      <point x="372" y="342" type="line"/>
      <point x="600" y="342" type="line"/>
      <point x="600" y="264" type="line"/>
      <point x="372" y="264" type="line"/>
      <point x="372" y="36" type="line"/>
      <point x="294" y="36" type="line"/>
      <point x="294" y="264" type="line"/>
    </contour>
  </outline>
</glyph>
<glyph name="period" format="2">
  <advance width="278"/>
  <unicode hex="002E"/>
  <outline>
    <contour>
      <point x="139" y="-6" type="curve" smooth="yes"/>
      <point x="103" y="-6"/>
      <point x="73" y="24"/>
      <point x="73" y="60" type="curve" smooth="yes"/>
      <point x="73" y="96"/>
      <point x="103" y="126"/>
      <point x="139" y="126" type="curve" smooth="yes"/>
      <point x="175" y="126"/>
      <point x="205" y="96"/>
      <point x="205" y="60" type="curve" smooth="yes"/>
      <point x="205" y="24"/>
      <point x="175" y="-6"/>
    </contour>
  </outline>
</glyph>
<glyph name="slash" format="2">
  <advance width="389"/>
  <unicode hex="002F"/>
  <outline>
    <contour>
      <point x="389" y="726" type="line"/>
      <point x="70" y="-44" type="line"/>
      <point x="0" y="-18" type="line"/>
      <point x="320" y="752" type="line"/>
    </contour>
  </outline>
</glyph>
<glyph name="zero" format="2">
  <advance width="556"/>
  <unicode hex="0030"/>
  <outline>
    <contour>
      <point x="34" y="354" type="curve" smooth="yes"/>
      <point x="34" y="509"/>
      <point x="77" y="720"/>
      <point x="278" y="720" type="curve" smooth="yes"/>
      <point x="479" y="720"/>
      <point x="522" y="509"/>
      <point x="522" y="354" type="curve" smooth="yes"/>
      <point x="522" y="205"/>
      <point x="479" y="-12"/>
      <point x="278" y="-12" type="curve" smooth="yes"/>
      <point x="77" y="-12"/>
      <point x="34" y="205"/>
    </contour>
    <contour>
      <point x="130" y="354" type="curve" smooth="yes"/>
      <point x="130" y="262"/>
      <point x="144" y="72"/>
      <point x="278" y="72" type="curve" smooth="yes"/>
      <point x="412" y="72"/>
      <point x="426" y="262"/>
      <point x="426" y="354" type="curve" smooth="yes"/>
      <point x="426" y="452"/>
      <point x="412" y="636"/>
      <point x="278" y="636" type="curve" smooth="yes"/>
      <point x="144" y="636"/>
      <point x="130" y="452"/>
    </contour>
  </outline>
</glyph>
<glyph name="one" format="2">
  <advance width="556"/>
  <unicode hex="0031"/>
  <outline>
    <contour>
      <point x="270" y="0" type="line"/>
      <point x="270" y="598" type="line"/>
      <point x="140" y="478" type="line"/>
      <point x="84" y="545" type="line"/>
      <point x="281" y="708" type="line"/>
      <point x="366" y="708" type="line"/>
      <point x="366" y="0" type="line"/>
    </contour>
  </outline>
</glyph>
<glyph name="two" format="2">
  <advance width="556"/>
  <unicode hex="0032"/>
  <outline>
    <contour>
      <point x="46" y="0" type="line"/>
      <point x="46" y="102" type="line"/>
      <point x="330" y="384" type="line" smooth="yes"/>
      <point x="369" y="422"/>
      <point x="408" y="471"/>
      <point x="408" y="529" type="curve" smooth="yes"/>
      <point x="408" y="599"/>
      <point x="353" y="642"/>
      <point x="286" y="642" type="curve" smooth="yes"/>
      <point x="217" y="642"/>
      <point x="169" y="600"/>
      <point x="157" y="533" type="curve"/>
      <point x="53" y="542" type="line"/>
      <point x="72" y="667"/>
      <point x="165" y="726"/>
      <point x="287" y="726" type="curve" smooth="yes"/>
      <point x="409" y="726"/>
      <point x="510" y="660"/>
      <point x="510" y="530" type="curve" smooth="yes"/>
      <point x="510" y="437"/>
      <point x="450" y="370"/>
      <point x="387" y="309" type="curve" smooth="yes"/>
      <point x="154" y="84" type="line"/>
      <point x="510" y="84" type="line"/>
      <point x="510" y="0" type="line"/>
    </contour>
  </outline>
</glyph>
<glyph name="three" format="2">
  <advance width="556"/>
  <unicode hex="0033"/>
  <outline>
    <contour>
      <point x="46" y="142" type="curve"/>
      <point x="147" y="173" type="line"/>
      <point x="170" y="105"/>
      <point x="202" y="72"/>
      <point x="277" y="72" type="curve" smooth="yes"/>
      <point x="351" y="72"/>
      <point x="414" y="124"/>
      <point x="414" y="200" type="curve" smooth="yes"/>
      <point x="414" y="318"/>
      <point x="305" y="332"/>
      <point x="215" y="332" type="curve"/>
      <point x="215" y="416" type="line"/>
      <point x="361" y="416"/>
      <point x="396" y="457"/>
      <point x="396" y="527" type="curve" smooth="yes"/>
      <point x="396" y="602"/>
      <point x="345" y="642"/>
      <point x="277" y="642" type="curve" smooth="yes"/>
      <point x="225" y="642"/>
      <point x="180" y="609"/>
      <point x="159" y="560" type="curve"/>
      <point x="61" y="593" type="line"/>
      <point x="98" y="683"/>
      <point x="181" y="726"/>
      <point x="275" y="726" type="curve" smooth="yes"/>
      <point x="391" y="726"/>
      <point x="492" y="664"/>
      <point x="492" y="533" type="curve" smooth="yes"/>
      <point x="492" y="459"/>
      <point x="443" y="394"/>
      <point x="371" y="373" type="curve"/>
      <point x="371" y="371" type="line"/>
      <point x="460" y="356"/>
      <point x="510" y="280"/>
      <point x="510" y="193" type="curve" smooth="yes"/>
      <point x="510" y="57"/>
      <point x="399" y="-12"/>
      <point x="274" y="-12" type="curve" smooth="yes"/>
      <point x="166" y="-12"/>
      <point x="78" y="35"/>
    </contour>
  </outline>
</glyph>
<glyph name="four" format="2">
  <advance width="556"/>
  <unicode hex="0034"/>
  <outline>
    <contour>
      <point x="336" y="0" type="line"/>
      <point x="336" y="156" type="line"/>
      <point x="34" y="156" type="line"/>
      <point x="34" y="254" type="line"/>
      <point x="316" y="708" type="line"/>
      <point x="432" y="708" type="line"/>
      <point x="432" y="240" type="line"/>
      <point x="532" y="240" type="line"/>
      <point x="532" y="156" type="line"/>
      <point x="432" y="156" type="line"/>
      <point x="432" y="0" type="line"/>
    </contour>
    <contour>
      <point x="336" y="240" type="line"/>
      <point x="336" y="594" type="line"/>
      <point x="334" y="594" type="line"/>
      <point x="118" y="240" type="line"/>
    </contour>
  </outline>
</glyph>
<glyph name="five" format="2">
  <advance width="556"/>
  <unicode hex="0035"/>
  <outline>
    <contour>
      <point x="471" y="708" type="line"/>
      <point x="471" y="618" type="line"/>
      <point x="184" y="618" type="line"/>
      <point x="181" y="441" type="line"/>
      <point x="201" y="450"/>
      <point x="253" y="456"/>
      <point x="276" y="456" type="curve" smooth="yes"/>
      <point x="409" y="456"/>
      <point x="496" y="360"/>
      <point x="496" y="222" type="curve" smooth="yes"/>
      <point x="496" y="81"/>
      <point x="385" y="-12"/>
      <point x="247" y="-12" type="curve" smooth="yes"/>
      <point x="151" y="-12"/>
      <point x="67" y="39"/>
      <point x="34" y="131" type="curve"/>
      <point x="131" y="164" type="line"/>
      <point x="156" y="99"/>
      <point x="199" y="72"/>
      <point x="262" y="72" type="curve" smooth="yes"/>
      <point x="338" y="72"/>
      <point x="400" y="127"/>
      <point x="400" y="217" type="curve" smooth="yes"/>
      <point x="400" y="320"/>
      <point x="330" y="372"/>
      <point x="229" y="372" type="curve" smooth="yes"/>
      <point x="193" y="372"/>
      <point x="131" y="359"/>
      <point x="83" y="335" type="curve"/>
      <point x="91" y="708" type="line"/>
    </contour>
  </outline>
</glyph>
<glyph name="six" format="2">
  <advance width="556"/>
  <unicode hex="0036"/>
  <outline>
    <contour>
      <point x="398" y="708" type="line"/>
      <point x="220" y="434" type="line"/>
      <point x="224" y="434" type="line"/>
      <point x="247" y="445"/>
      <point x="273" y="450"/>
      <point x="302" y="450" type="curve" smooth="yes"/>
      <point x="404" y="450"/>
      <point x="521" y="381"/>
      <point x="521" y="226" type="curve" smooth="yes"/>
      <point x="521" y="70"/>
      <point x="411" y="-12"/>
      <point x="278" y="-12" type="curve" smooth="yes"/>
      <point x="145" y="-12"/>
      <point x="35" y="78"/>
      <point x="35" y="216" type="curve" smooth="yes"/>
      <point x="35" y="303"/>
      <point x="63" y="357"/>
      <point x="106" y="425" type="curve" smooth="yes"/>
      <point x="285" y="708" type="line"/>
    </contour>
    <contour>
      <point x="131" y="219" type="curve" smooth="yes"/>
      <point x="131" y="133"/>
      <point x="190" y="72"/>
      <point x="278" y="72" type="curve" smooth="yes"/>
      <point x="366" y="72"/>
      <point x="425" y="133"/>
      <point x="425" y="219" type="curve" smooth="yes"/>
      <point x="425" y="305"/>
      <point x="366" y="366"/>
      <point x="278" y="366" type="curve" smooth="yes"/>
      <point x="190" y="366"/>
      <point x="131" y="305"/>
    </contour>
  </outline>
</glyph>
<glyph name="seven" format="2">
  <advance width="556"/>
  <unicode hex="0037"/>
  <outline>
    <contour>
      <point x="97" y="0" type="line"/>
      <point x="384" y="624" type="line"/>
      <point x="42" y="624" type="line"/>
      <point x="42" y="708" type="line"/>
      <point x="487" y="708" type="line"/>
      <point x="487" y="626" type="line"/>
      <point x="205" y="0" type="line"/>
    </contour>
  </outline>
</glyph>
<glyph name="eight" format="2">
  <advance width="556"/>
  <unicode hex="0038"/>
  <outline>
    <contour>
      <point x="278" y="-12" type="curve" smooth="yes"/>
      <point x="149" y="-12"/>
      <point x="47" y="69"/>
      <point x="47" y="203" type="curve" smooth="yes"/>
      <point x="47" y="291"/>
      <point x="105" y="355"/>
      <point x="182" y="376" type="curve"/>
      <point x="182" y="379" type="line"/>
      <point x="129" y="393"/>
      <point x="71" y="446"/>
      <point x="71" y="544" type="curve" smooth="yes"/>
      <point x="71" y="651"/>
      <point x="167" y="720"/>
      <point x="278" y="720" type="curve" smooth="yes"/>
      <point x="389" y="720"/>
      <point x="485" y="651"/>
      <point x="485" y="544" type="curve" smooth="yes"/>
      <point x="485" y="446"/>
      <point x="427" y="393"/>
      <point x="374" y="379" type="curve"/>
      <point x="374" y="376" type="line"/>
      <point x="451" y="355"/>
      <point x="509" y="291"/>
      <point x="509" y="203" type="curve" smooth="yes"/>
      <point x="509" y="69"/>
      <point x="407" y="-12"/>
    </contour>
    <contour>
      <point x="167" y="530" type="curve" smooth="yes"/>
      <point x="167" y="475"/>
      <point x="207" y="418"/>
      <point x="278" y="418" type="curve" smooth="yes"/>
      <point x="352" y="418"/>
      <point x="389" y="472"/>
      <point x="389" y="530" type="curve" smooth="yes"/>
      <point x="389" y="595"/>
      <point x="344" y="642"/>
      <point x="278" y="642" type="curve" smooth="yes"/>
      <point x="217" y="642"/>
      <point x="167" y="596"/>
    </contour>
    <contour>
      <point x="278" y="72" type="curve" smooth="yes"/>
      <point x="358" y="72"/>
      <point x="413" y="126"/>
      <point x="413" y="203" type="curve" smooth="yes"/>
      <point x="413" y="289"/>
      <point x="353" y="333"/>
      <point x="278" y="334" type="curve" smooth="yes"/>
      <point x="200" y="333"/>
      <point x="143" y="278"/>
      <point x="143" y="203" type="curve" smooth="yes"/>
      <point x="143" y="120"/>
      <point x="205" y="72"/>
    </contour>
  </outline>
</glyph>
<glyph name="nine" format="2">
  <advance width="556"/>
  <unicode hex="0039"/>
  <outline>
    <contour>
      <point x="158" y="0" type="line"/>
      <point x="336" y="274" type="line"/>
      <point x="332" y="274" type="line"/>
      <point x="309" y="263"/>
      <point x="283" y="258"/>
      <point x="254" y="258" type="curve" smooth="yes"/>
      <point x="152" y="258"/>
      <point x="35" y="327"/>
      <point x="35" y="482" type="curve" smooth="yes"/>
      <point x="35" y="638"/>
      <point x="145" y="720"/>
      <point x="278" y="720" type="curve" smooth="yes"/>
      <point x="411" y="720"/>
      <point x="521" y="630"/>
      <point x="521" y="492" type="curve" smooth="yes"/>
      <point x="521" y="405"/>
      <point x="493" y="351"/>
      <point x="450" y="283" type="curve" smooth="yes"/>
      <point x="271" y="0" type="line"/>
    </contour>
    <contour>
      <point x="425" y="489" type="curve" smooth="yes"/>
      <point x="425" y="575"/>
      <point x="366" y="636"/>
      <point x="278" y="636" type="curve" smooth="yes"/>
      <point x="190" y="636"/>
      <point x="131" y="575"/>
      <point x="131" y="489" type="curve" smooth="yes"/>
      <point x="131" y="403"/>
      <point x="190" y="342"/>
      <point x="278" y="342" type="curve" smooth="yes"/>
      <point x="366" y="342"/>
      <point x="425" y="403"/>
    </contour>
  </outline>
</glyph>
<glyph name="colon" format="2">
  <advance width="278"/>
  <unicode hex="003A"/>
  <outline>
    <contour>
      <point x="139" y="348" type="curve" smooth="yes"/>
      <point x="103" y="348"/>
      <point x="73" y="378"/>
      <point x="73" y="414" type="curve" smooth="yes"/>
      <point x="73" y="450"/>
      <point x="103" y="480"/>
      <point x="139" y="480" type="curve" smooth="yes"/>
      <point x="175" y="480"/>
      <point x="205" y="450"/>
      <point x="205" y="414" type="curve" smooth="yes"/>
      <point x="205" y="378"/>
      <point x="175" y="348"/>
    </contour>
    <contour>
      <point x="73" y="60" type="curve" smooth="yes"/>
      <point x="73" y="96"/>
      <point x="103" y="126"/>
      <point x="139" y="126" type="curve" smooth="yes"/>
      <point x="175" y="126"/>
      <point x="205" y="96"/>
      <point x="205" y="60" type="curve" smooth="yes"/>
      <point x="205" y="24"/>
      <point x="175" y="-6"/>
      <point x="139" y="-6" type="curve" smooth="yes"/>
      <point x="103" y="-6"/>
      <point x="73" y="24"/>
    </contour>
  </outline>
</glyph>
<glyph name="semicolon" format="2">
  <advance width="278"/>
  <unicode hex="003B"/>
  <outline>
    <contour>
      <point x="214" y="114" type="line"/>
      <point x="130" y="-132" type="line"/>
      <point x="48" y="-132" type="line"/>
      <point x="117" y="114" type="line"/>
    </contour>
    <contour>
      <point x="73" y="413" type="curve" smooth="yes"/>
      <point x="73" y="449"/>
      <point x="103" y="479"/>
      <point x="139" y="479" type="curve" smooth="yes"/>
      <point x="175" y="479"/>
      <point x="205" y="449"/>
      <point x="205" y="413" type="curve" smooth="yes"/>
      <point x="205" y="377"/>
      <point x="175" y="347"/>
      <point x="139" y="347" type="curve" smooth="yes"/>
      <point x="103" y="347"/>
      <point x="73" y="377"/>
    </contour>
  </outline>
</glyph>
<glyph name="less" format="2">
  <advance width="666"/>
  <unicode hex="003C"/>
  <outline>
    <contour>
      <point x="600" y="121" type="line"/>
      <point x="600" y="43" type="line"/>
      <point x="66" y="262" type="line"/>
      <point x="66" y="344" type="line"/>
      <point x="600" y="564" type="line"/>
      <point x="600" y="485" type="line"/>
      <point x="148" y="303" type="line"/>
    </contour>
  </outline>
</glyph>
<glyph name="equal" format="2">
  <advance width="666"/>
  <unicode hex="003D"/>
  <outline>
    <contour>
      <point x="66" y="420" type="line"/>
      <point x="600" y="420" type="line"/>
      <point x="600" y="342" type="line"/>
      <point x="66" y="342" type="line"/>
    </contour>
    <contour>
      <point x="66" y="263" type="line"/>
      <point x="600" y="263" type="line"/>
      <point x="600" y="185" type="line"/>
      <point x="66" y="185" type="line"/>
    </contour>
  </outline>
</glyph>
<glyph name="question" format="2">
  <advance width="500"/>
  <unicode hex="003F"/>
  <outline>
    <contour>
      <point x="306" y="198" type="line"/>
      <point x="210" y="198" type="line"/>
      <point x="210" y="259" type="line" smooth="yes"/>
      <point x="210" y="332"/>
      <point x="229" y="347"/>
      <point x="281" y="397" type="curve" smooth="yes"/>
      <point x="323" y="438"/>
      <point x="372" y="476"/>
      <point x="372" y="536" type="curve" smooth="yes"/>
      <point x="372" y="597"/>
      <point x="325" y="642"/>
      <point x="266" y="642" type="curve" smooth="yes"/>
      <point x="201" y="642"/>
      <point x="158" y="596"/>
      <point x="150" y="530" type="curve"/>
      <point x="48" y="540" type="line"/>
      <point x="65" y="656"/>
      <point x="151" y="726"/>
      <point x="268" y="726" type="curve" smooth="yes"/>
      <point x="380" y="726"/>
      <point x="468" y="659"/>
      <point x="468" y="541" type="curve" smooth="yes"/>
      <point x="468" y="490"/>
      <point x="452" y="447"/>
      <point x="426" y="421" type="curve" smooth="yes"/>
      <point x="356" y="350" type="line" smooth="yes"/>
      <point x="316" y="309"/>
      <point x="306" y="298"/>
      <point x="306" y="242" type="curve" smooth="yes"/>
    </contour>
    <contour>
      <point x="191" y="60" type="curve" smooth="yes"/>
      <point x="191" y="96"/>
      <point x="221" y="126"/>
      <point x="257" y="126" type="curve" smooth="yes"/>
      <point x="293" y="126"/>
      <point x="323" y="96"/>
      <point x="323" y="60" type="curve" smooth="yes"/>
      <point x="323" y="24"/>
      <point x="293" y="-6"/>
      <point x="257" y="-6" type="curve" smooth="yes"/>
      <point x="221" y="-6"/>
      <point x="191" y="24"/>
    </contour>
  </outline>
</glyph>
<glyph name="at" format="2">
  <advance width="800"/>
  <unicode hex="0040"/>
  <outline>
    <contour>
      <point x="422" y="485" type="curve" smooth="yes"/>
      <point x="328" y="485"/>
      <point x="277" y="394"/>
      <point x="277" y="298" type="curve" smooth="yes"/>
      <point x="277" y="249"/>
      <point x="298" y="218"/>
      <point x="348" y="218" type="curve" smooth="yes"/>
      <point x="429" y="218"/>
      <point x="485" y="321"/>
      <point x="485" y="397" type="curve" smooth="yes"/>
      <point x="485" y="444"/>
      <point x="464" y="485"/>
    </contour>
    <contour>
      <point x="615" y="544" type="line"/>
      <point x="531" y="267" type="line" smooth="yes"/>
      <point x="528" y="257"/>
      <point x="526" y="248"/>
      <point x="526" y="242" type="curve" smooth="yes"/>
      <point x="526" y="225"/>
      <point x="535" y="218"/>
      <point x="555" y="218" type="curve" smooth="yes"/>
      <point x="611" y="218"/>
      <point x="678" y="308"/>
      <point x="678" y="414" type="curve" smooth="yes"/>
      <point x="678" y="571"/>
      <point x="557" y="660"/>
      <point x="416" y="660" type="curve" smooth="yes"/>
      <point x="245" y="660"/>
      <point x="122" y="525"/>
      <point x="122" y="352" type="curve" smooth="yes"/>
      <point x="122" y="175"/>
      <point x="253" y="48"/>
      <point x="421" y="48" type="curve" smooth="yes"/>
      <point x="516" y="48"/>
      <point x="606" y="84"/>
      <point x="654" y="149" type="curve"/>
      <point x="733" y="149" type="line"/>
      <point x="677" y="48"/>
      <point x="547" y="-18"/>
      <point x="419" y="-18" type="curve" smooth="yes"/>
      <point x="208" y="-18"/>
      <point x="44" y="147"/>
      <point x="44" y="356" type="curve" smooth="yes"/>
      <point x="44" y="561"/>
      <point x="212" y="726"/>
      <point x="415" y="726" type="curve" smooth="yes"/>
      <point x="601" y="726"/>
      <point x="756" y="598"/>
      <point x="756" y="422" type="curve" smooth="yes"/>
      <point x="756" y="252"/>
      <point x="615" y="140"/>
      <point x="521" y="140" type="curve" smooth="yes"/>
      <point x="487" y="140"/>
      <point x="459" y="163"/>
      <point x="458" y="204" type="curve"/>
      <point x="454" y="204" type="line"/>
      <point x="424" y="172"/>
      <point x="379" y="140"/>
      <point x="330" y="140" type="curve" smooth="yes"/>
      <point x="245" y="140"/>
      <point x="193" y="210"/>
      <point x="193" y="297" type="curve" smooth="yes"/>
      <point x="193" y="428"/>
      <point x="281" y="563"/>
      <point x="417" y="563" type="curve" smooth="yes"/>
      <point x="463" y="563"/>
      <point x="506" y="541"/>
      <point x="524" y="487" type="curve"/>
      <point x="526" y="487" type="line"/>
      <point x="542" y="544" type="line"/>
    </contour>
  </outline>
</glyph>
<glyph name="A" format="2">
  <advance width="704"/>
  <unicode hex="0041"/>
  <outline>
    <contour>
      <point x="1" y="0" type="line"/>
      <point x="313" y="708" type="line"/>
      <point x="400" y="708" type="line"/>
      <point x="703" y="0" type="line"/>
      <point x="591" y="0" type="line"/>
      <point x="520" y="175" type="line"/>
      <point x="183" y="175" type="line"/>
      <point x="113" y="0" type="line"/>
    </contour>
    <contour>
      <point x="217" y="259" type="line"/>
      <point x="485" y="259" type="line"/>
      <point x="353" y="584" type="line"/>
      <point x="351" y="584" type="line"/>
    </contour>
  </outline>
</glyph>
<glyph name="B" format="2">
  <advance width="630"/>
  <unicode hex="0042"/>
  <outline>
    <contour>
      <point x="91" y="0" type="line"/>
      <point x="91" y="708" type="line"/>
      <point x="337" y="708" type="line" smooth="yes"/>
      <point x="460" y="708"/>
      <point x="552" y="651"/>
      <point x="552" y="531" type="curve" smooth="yes"/>
      <point x="552" y="450"/>
      <point x="502" y="399"/>
      <point x="430" y="375" type="curve"/>
      <point x="430" y="373" type="line"/>
      <point x="515" y="367"/>
      <point x="583" y="292"/>
      <point x="583" y="197" type="curve" smooth="yes"/>
      <point x="583" y="70"/>
      <point x="472" y="0"/>
      <point x="334" y="0" type="curve" smooth="yes"/>
    </contour>
    <contour>
      <point x="187" y="624" type="line"/>
      <point x="187" y="414" type="line"/>
      <point x="318" y="414" type="line" smooth="yes"/>
      <point x="391" y="414"/>
      <point x="450" y="443"/>
      <point x="450" y="520" type="curve" smooth="yes"/>
      <point x="450" y="576"/>
      <point x="415" y="624"/>
      <point x="338" y="624" type="curve" smooth="yes"/>
    </contour>
    <contour>
      <point x="187" y="330" type="line"/>
      <point x="187" y="84" type="line"/>
      <point x="328" y="84" type="line" smooth="yes"/>
      <point x="386" y="84"/>
      <point x="481" y="104"/>
      <point x="481" y="204" type="curve" smooth="yes"/>
      <point x="481" y="288"/>
      <point x="422" y="330"/>
      <point x="329" y="330" type="curve" smooth="yes"/>
    </contour>
  </outline>
</glyph>
<glyph name="C" format="2">
  <advance width="704"/>
  <unicode hex="0043"/>
  <outline>
    <contour>
      <point x="664" y="616" type="curve"/>
      <point x="584" y="555" type="line"/>
      <point x="544" y="607"/>
      <point x="478" y="636"/>
      <point x="413" y="636" type="curve" smooth="yes"/>
      <point x="254" y="636"/>
      <point x="149" y="509"/>
      <point x="149" y="348" type="curve" smooth="yes"/>
      <point x="149" y="199"/>
      <point x="248" y="72"/>
      <point x="413" y="72" type="curve" smooth="yes"/>
      <point x="494" y="72"/>
      <point x="556" y="108"/>
      <point x="598" y="167" type="curve"/>
      <point x="679" y="106" type="line"/>
      <point x="658" y="77"/>
      <point x="573" y="-18"/>
      <point x="411" y="-18" type="curve" smooth="yes"/>
      <point x="186" y="-18"/>
      <point x="47" y="170"/>
      <point x="47" y="348" type="curve" smooth="yes"/>
      <point x="47" y="568"/>
      <point x="198" y="726"/>
      <point x="416" y="726" type="curve" smooth="yes"/>
      <point x="509" y="726"/>
      <point x="607" y="691"/>
    </contour>
  </outline>
</glyph>
<glyph name="D" format="2">
  <advance width="741"/>
  <unicode hex="0044"/>
  <outline>
    <contour>
      <point x="75" y="0" type="line"/>
      <point x="75" y="708" type="line"/>
      <point x="322" y="708" type="line" smooth="yes"/>
      <point x="621" y="708"/>
      <point x="694" y="485"/>
      <point x="694" y="354" type="curve" smooth="yes"/>
      <point x="694" y="173"/>
      <point x="559" y="0"/>
      <point x="306" y="0" type="curve" smooth="yes"/>
    </contour>
    <contour>
      <point x="171" y="618" type="line"/>
      <point x="171" y="90" type="line"/>
      <point x="292" y="90" type="line" smooth="yes"/>
      <point x="454" y="90"/>
      <point x="592" y="179"/>
      <point x="592" y="354" type="curve" smooth="yes"/>
      <point x="592" y="444"/>
      <point x="545" y="618"/>
      <point x="315" y="618" type="curve" smooth="yes"/>
    </contour>
  </outline>
</glyph>
<glyph name="E" format="2">
  <advance width="611"/>
  <unicode hex="0045"/>
  <outline>
    <contour>
      <point x="91" y="0" type="line"/>
      <point x="91" y="708" type="line"/>
      <point x="548" y="708" type="line"/>
      <point x="548" y="618" type="line"/>
      <point x="187" y="618" type="line"/>
      <point x="187" y="407" type="line"/>
      <point x="523" y="407" type="line"/>
      <point x="523" y="317" type="line"/>
      <point x="187" y="317" type="line"/>
      <point x="187" y="90" type="line"/>
      <point x="566" y="90" type="line"/>
      <point x="566" y="0" type="line"/>
    </contour>
  </outline>
</glyph>
<glyph name="G" format="2">
  <advance width="778"/>
  <unicode hex="0047"/>
  <outline>
    <contour>
      <point x="441" y="396" type="line"/>
      <point x="694" y="396" type="line"/>
      <point x="694" y="47" type="line"/>
      <point x="625" y="5"/>
      <point x="512" y="-18"/>
      <point x="426" y="-18" type="curve" smooth="yes"/>
      <point x="186" y="-18"/>
      <point x="47" y="153"/>
      <point x="47" y="354" type="curve" smooth="yes"/>
      <point x="47" y="564"/>
      <point x="200" y="726"/>
      <point x="416" y="726" type="curve" smooth="yes"/>
      <point x="546" y="726"/>
      <point x="625" y="691"/>
      <point x="680" y="634" type="curve"/>
      <point x="612" y="561" type="line"/>
      <point x="554" y="617"/>
      <point x="487" y="636"/>
      <point x="416" y="636" type="curve" smooth="yes"/>
      <point x="254" y="636"/>
      <point x="149" y="509"/>
      <point x="149" y="354" type="curve" smooth="yes"/>
      <point x="149" y="194"/>
      <point x="268" y="72"/>
      <point x="424" y="72" type="curve" smooth="yes"/>
      <point x="491" y="72"/>
      <point x="555" y="85"/>
      <point x="598" y="109" type="curve"/>
      <point x="598" y="306" type="line"/>
      <point x="441" y="306" type="line"/>
    </contour>
  </outline>
</glyph>
<glyph name="H" format="2">
  <advance width="741"/>
  <unicode hex="0048"/>
  <outline>
    <contour>
      <point x="91" y="0" type="line"/>
      <point x="91" y="708" type="line"/>
      <point x="187" y="708" type="line"/>
      <point x="187" y="414" type="line"/>
      <point x="554" y="414" type="line"/>
      <point x="554" y="708" type="line"/>
      <point x="650" y="708" type="line"/>
      <point x="650" y="0" type="line"/>
      <point x="554" y="0" type="line"/>
      <point x="554" y="324" type="line"/>
      <point x="187" y="324" type="line"/>
      <point x="187" y="0" type="line"/>
    </contour>
  </outline>
</glyph>
<glyph name="J" format="2">
  <advance width="482"/>
  <unicode hex="004A"/>
  <outline>
    <contour>
      <point x="312" y="233" type="curve" smooth="yes"/>
      <point x="312" y="708" type="line"/>
      <point x="408" y="708" type="line"/>
      <point x="408" y="202" type="line" smooth="yes"/>
      <point x="408" y="24"/>
      <point x="280" y="-18"/>
      <point x="201" y="-18" type="curve" smooth="yes"/>
      <point x="101" y="-18"/>
      <point x="28" y="33"/>
      <point x="9" y="137" type="curve"/>
      <point x="103" y="158" type="line"/>
      <point x="114" y="105"/>
      <point x="148" y="72"/>
      <point x="201" y="72" type="curve" smooth="yes"/>
      <point x="296" y="72"/>
      <point x="312" y="153"/>
    </contour>
  </outline>
</glyph>
<glyph name="M" format="2">
  <advance width="906"/>
  <unicode hex="004D"/>
  <outline>
    <contour>
      <point x="84" y="0" type="line"/>
      <point x="84" y="708" type="line"/>
      <point x="227" y="708" type="line"/>
      <point x="452" y="172" type="line"/>
      <point x="456" y="172" type="line"/>
      <point x="679" y="708" type="line"/>
      <point x="822" y="708" type="line"/>
      <point x="822" y="0" type="line"/>
      <point x="726" y="0" type="line"/>
      <point x="726" y="582" type="line"/>
      <point x="724" y="582" type="line"/>
      <point x="485" y="0" type="line"/>
      <point x="421" y="0" type="line"/>
      <point x="182" y="582" type="line"/>
      <point x="180" y="582" type="line"/>
      <point x="180" y="0" type="line"/>
    </contour>
  </outline>
</glyph>
<glyph name="N" format="2">
  <advance width="796"/>
  <unicode hex="004E"/>
  <outline>
    <contour>
      <point x="91" y="0" type="line"/>
      <point x="91" y="708" type="line"/>
      <point x="217" y="708" type="line"/>
      <point x="607" y="126" type="line"/>
      <point x="609" y="126" type="line"/>
      <point x="609" y="708" type="line"/>
      <point x="705" y="708" type="line"/>
      <point x="705" y="0" type="line"/>
      <point x="583" y="0" type="line"/>
      <point x="189" y="582" type="line"/>
      <point x="187" y="582" type="line"/>
      <point x="187" y="0" type="line"/>
    </contour>
  </outline>
</glyph>
<glyph name="O" format="2">
  <advance width="832"/>
  <unicode hex="004F"/>
  <outline>
    <contour>
      <point x="416" y="-18" type="curve" smooth="yes"/>
      <point x="200" y="-18"/>
      <point x="47" y="144"/>
      <point x="47" y="354" type="curve" smooth="yes"/>
      <point x="47" y="564"/>
      <point x="200" y="726"/>
      <point x="416" y="726" type="curve" smooth="yes"/>
      <point x="632" y="726"/>
      <point x="785" y="564"/>
      <point x="785" y="354" type="curve" smooth="yes"/>
      <point x="785" y="144"/>
      <point x="632" y="-18"/>
    </contour>
    <contour>
      <point x="416" y="72" type="curve" smooth="yes"/>
      <point x="578" y="72"/>
      <point x="683" y="199"/>
      <point x="683" y="354" type="curve" smooth="yes"/>
      <point x="683" y="509"/>
      <point x="578" y="636"/>
      <point x="416" y="636" type="curve" smooth="yes"/>
      <point x="254" y="636"/>
      <point x="149" y="509"/>
      <point x="149" y="354" type="curve" smooth="yes"/>
      <point x="149" y="199"/>
      <point x="254" y="72"/>
    </contour>
  </outline>
</glyph>
<glyph name="P" format="2">
  <advance width="593"/>
  <unicode hex="0050"/>
  <outline>
    <contour>
      <point x="91" y="0" type="line"/>
      <point x="91" y="708" type="line"/>
      <point x="340" y="708" type="line" smooth="yes"/>
      <point x="521" y="708"/>
      <point x="567" y="599"/>
      <point x="567" y="510" type="curve" smooth="yes"/>
      <point x="567" y="421"/>
      <point x="521" y="312"/>
      <point x="340" y="312" type="curve" smooth="yes"/>
      <point x="187" y="312" type="line"/>
      <point x="187" y="0" type="line"/>
    </contour>
    <contour>
      <point x="187" y="624" type="line"/>
      <point x="187" y="396" type="line"/>
      <point x="313" y="396" type="line" smooth="yes"/>
      <point x="389" y="396"/>
      <point x="465" y="414"/>
      <point x="465" y="510" type="curve" smooth="yes"/>
      <point x="465" y="606"/>
      <point x="389" y="624"/>
      <point x="313" y="624" type="curve" smooth="yes"/>
    </contour>
  </outline>
</glyph>
<glyph name="Q" format="2">
  <advance width="832"/>
  <unicode hex="0051"/>
  <outline>
    <contour>
      <point x="822" y="84" type="line"/>
      <point x="822" y="0" type="line"/>
      <point x="414" y="0" type="line" smooth="yes"/>
      <point x="213" y="0"/>
      <point x="47" y="151"/>
      <point x="47" y="362" type="curve" smooth="yes"/>
      <point x="47" y="570"/>
      <point x="206" y="726"/>
      <point x="413" y="726" type="curve" smooth="yes"/>
      <point x="612" y="726"/>
      <point x="774" y="574"/>
      <point x="774" y="372" type="curve" smooth="yes"/>
      <point x="774" y="252"/>
      <point x="717" y="134"/>
      <point x="612" y="86" type="curve"/>
      <point x="612" y="84" type="line"/>
    </contour>
    <contour>
      <point x="410" y="90" type="curve" smooth="yes"/>
      <point x="565" y="90"/>
      <point x="672" y="213"/>
      <point x="672" y="368" type="curve" smooth="yes"/>
      <point x="672" y="518"/>
      <point x="561" y="636"/>
      <point x="410" y="636" type="curve" smooth="yes"/>
      <point x="262" y="636"/>
      <point x="149" y="517"/>
      <point x="149" y="370" type="curve" smooth="yes"/>
      <point x="149" y="215"/>
      <point x="256" y="90"/>
    </contour>
  </outline>
</glyph>
<glyph name="R" format="2">
  <advance width="611"/>
  <unicode hex="0052"/>
  <outline>
    <contour>
      <point x="91" y="0" type="line"/>
      <point x="91" y="708" type="line"/>
      <point x="340" y="708" type="line" smooth="yes"/>
      <point x="521" y="708"/>
      <point x="567" y="599"/>
      <point x="567" y="510" type="curve" smooth="yes"/>
      <point x="567" y="420"/>
      <point x="500" y="335"/>
      <point x="393" y="323" type="curve"/>
      <point x="594" y="0" type="line"/>
      <point x="474" y="0" type="line"/>
      <point x="294" y="312" type="line"/>
      <point x="187" y="312" type="line"/>
      <point x="187" y="0" type="line"/>
    </contour>
    <contour>
      <point x="187" y="624" type="line"/>
      <point x="187" y="396" type="line"/>
      <point x="313" y="396" type="line" smooth="yes"/>
      <point x="389" y="396"/>
      <point x="465" y="414"/>
      <point x="465" y="510" type="curve" smooth="yes"/>
      <point x="465" y="606"/>
      <point x="389" y="624"/>
      <point x="313" y="624" type="curve" smooth="yes"/>
    </contour>
  </outline>
</glyph>
<glyph name="T" format="2">
  <advance width="574"/>
  <unicode hex="0054"/>
  <outline>
    <contour>
      <point x="239" y="0" type="line"/>
      <point x="239" y="618" type="line"/>
      <point x="11" y="618" type="line"/>
      <point x="11" y="708" type="line"/>
      <point x="563" y="708" type="line"/>
      <point x="563" y="618" type="line"/>
      <point x="335" y="618" type="line"/>
      <point x="335" y="0" type="line"/>
    </contour>
  </outline>
</glyph>
<glyph name="U" format="2">
  <advance width="704"/>
  <unicode hex="0055"/>
  <outline>
    <contour>
      <point x="78" y="708" type="line"/>
      <point x="174" y="708" type="line"/>
      <point x="174" y="274" type="line" smooth="yes"/>
      <point x="174" y="186"/>
      <point x="218" y="72"/>
      <point x="352" y="72" type="curve" smooth="yes"/>
      <point x="486" y="72"/>
      <point x="530" y="186"/>
      <point x="530" y="274" type="curve" smooth="yes"/>
      <point x="530" y="708" type="line"/>
      <point x="626" y="708" type="line"/>
      <point x="626" y="259" type="line" smooth="yes"/>
      <point x="626" y="95"/>
      <point x="507" y="-18"/>
      <point x="352" y="-18" type="curve" smooth="yes"/>
      <point x="197" y="-18"/>
      <point x="78" y="95"/>
      <point x="78" y="259" type="curve" smooth="yes"/>
    </contour>
  </outline>
</glyph>
<glyph name="V" format="2">
  <advance width="630"/>
  <unicode hex="0056"/>
  <outline>
    <contour>
      <point x="267" y="0" type="line"/>
      <point x="-6" y="708" type="line"/>
      <point x="105" y="708" type="line"/>
      <point x="313" y="132" type="line"/>
      <point x="315" y="132" type="line"/>
      <point x="531" y="708" type="line"/>
      <point x="636" y="708" type="line"/>
      <point x="357" y="0" type="line"/>
    </contour>
  </outline>
</glyph>
<glyph name="W" format="2">
  <advance width="962"/>
  <unicode hex="0057"/>
  <outline>
    <contour>
      <point x="208" y="0" type="line"/>
      <point x="1" y="708" type="line"/>
      <point x="101" y="708" type="line"/>
      <point x="257" y="142" type="line"/>
      <point x="259" y="142" type="line"/>
      <point x="426" y="708" type="line"/>
      <point x="536" y="708" type="line"/>
      <point x="703" y="142" type="line"/>
      <point x="705" y="142" type="line"/>
      <point x="861" y="708" type="line"/>
      <point x="961" y="708" type="line"/>
      <point x="755" y="0" type="line"/>
      <point x="654" y="0" type="line"/>
      <point x="482" y="578" type="line"/>
      <point x="480" y="578" type="line"/>
      <point x="309" y="0" type="line"/>
    </contour>
  </outline>
</glyph>
<glyph name="bracketleft" format="2">
  <advance width="278"/>
  <unicode hex="005B"/>
  <outline>
    <contour>
      <point x="72" y="-156" type="line"/>
      <point x="72" y="732" type="line"/>
      <point x="246" y="732" type="line"/>
      <point x="246" y="666" type="line"/>
      <point x="156" y="666" type="line"/>
      <point x="156" y="-90" type="line"/>
      <point x="246" y="-90" type="line"/>
      <point x="246" y="-156" type="line"/>
    </contour>
  </outline>
</glyph>
<glyph name="bracketright" format="2">
  <advance width="278"/>
  <unicode hex="005D"/>
  <outline>
    <contour>
      <point x="32" y="-156" type="line"/>
      <point x="32" y="-90" type="line"/>
      <point x="122" y="-90" type="line"/>
      <point x="122" y="666" type="line"/>
      <point x="32" y="666" type="line"/>
      <point x="32" y="732" type="line"/>
      <point x="206" y="732" type="line"/>
      <point x="206" y="-156" type="line"/>
    </contour>
  </outline>
</glyph>
<glyph name="asciicircum" format="2">
  <advance width="666"/>
  <unicode hex="005E"/>
  <outline>
    <contour>
      <point x="80" y="276" type="line"/>
      <point x="293" y="708" type="line"/>
      <point x="373" y="708" type="line"/>
      <point x="586" y="276" type="line"/>
      <point x="503" y="276" type="line"/>
      <point x="333" y="629" type="line"/>
      <point x="163" y="276" type="line"/>
    </contour>
  </outline>
</glyph>
<glyph name="grave" format="2">
  <advance width="240"/>
  <unicode hex="0060"/>
  <outline>
    <contour>
      <point x="82" y="708" type="line"/>
      <point x="186" y="564" type="line"/>
      <point x="103" y="564" type="line"/>
      <point x="-46" y="708" type="line"/>
    </contour>
  </outline>
</glyph>
<glyph name="a" format="2">
  <advance width="519"/>
  <unicode hex="0061"/>
  <outline>
    <contour>
      <point x="124" y="360" type="curve"/>
      <point x="70" y="416" type="line"/>
      <point x="120" y="463"/>
      <point x="192" y="486"/>
      <point x="258" y="486" type="curve" smooth="yes"/>
      <point x="398" y="486"/>
      <point x="456" y="410"/>
      <point x="456" y="328" type="curve" smooth="yes"/>
      <point x="456" y="86" type="line" smooth="yes"/>
      <point x="456" y="53"/>
      <point x="457" y="25"/>
      <point x="460" y="0" type="curve"/>
      <point x="380" y="0" type="line"/>
      <point x="378" y="24"/>
      <point x="377" y="48"/>
      <point x="377" y="72" type="curve"/>
      <point x="375" y="72" type="line"/>
      <point x="335" y="11"/>
      <point x="281" y="-12"/>
      <point x="209" y="-12" type="curve" smooth="yes"/>
      <point x="121" y="-12"/>
      <point x="45" y="38"/>
      <point x="45" y="130" type="curve" smooth="yes"/>
      <point x="45" y="252"/>
      <point x="162" y="294"/>
      <point x="306" y="294" type="curve" smooth="yes"/>
      <point x="372" y="294" type="line"/>
      <point x="372" y="314" type="line" smooth="yes"/>
      <point x="372" y="363"/>
      <point x="336" y="414"/>
      <point x="259" y="414" type="curve" smooth="yes"/>
      <point x="190" y="414"/>
      <point x="157" y="385"/>
    </contour>
    <contour>
      <point x="372" y="228" type="line"/>
      <point x="324" y="228" type="line" smooth="yes"/>
      <point x="239" y="228"/>
      <point x="135" y="213"/>
      <point x="135" y="137" type="curve" smooth="yes"/>
      <point x="135" y="83"/>
      <point x="175" y="60"/>
      <point x="237" y="60" type="curve" smooth="yes"/>
      <point x="337" y="60"/>
      <point x="372" y="134"/>
      <point x="372" y="198" type="curve" smooth="yes"/>
    </contour>
  </outline>
</glyph>
<glyph name="c" format="2">
  <advance width="482"/>
  <unicode hex="0063"/>
  <outline>
    <contour>
      <point x="475" y="410" type="curve"/>
      <point x="407" y="348" type="line"/>
      <point x="374" y="383"/>
      <point x="339" y="401"/>
      <point x="289" y="401" type="curve" smooth="yes"/>
      <point x="191" y="401"/>
      <point x="141" y="322"/>
      <point x="141" y="233" type="curve" smooth="yes"/>
      <point x="141" y="144"/>
      <point x="201" y="72"/>
      <point x="294" y="72" type="curve" smooth="yes"/>
      <point x="344" y="72"/>
      <point x="379" y="90"/>
      <point x="409" y="125" type="curve"/>
      <point x="473" y="61" type="line"/>
      <point x="426" y="9"/>
      <point x="362" y="-12"/>
      <point x="293" y="-12" type="curve" smooth="yes"/>
      <point x="147" y="-12"/>
      <point x="45" y="89"/>
      <point x="45" y="235" type="curve" smooth="yes"/>
      <point x="45" y="381"/>
      <point x="145" y="485"/>
      <point x="293" y="485" type="curve" smooth="yes"/>
      <point x="362" y="485"/>
      <point x="428" y="461"/>
    </contour>
  </outline>
</glyph>
<glyph name="d" format="2">
  <advance width="611"/>
  <unicode hex="0064"/>
  <outline>
    <contour>
      <point x="543" y="756" type="line"/>
      <point x="543" y="0" type="line"/>
      <point x="453" y="0" type="line"/>
      <point x="453" y="68" type="line"/>
      <point x="451" y="68" type="line"/>
      <point x="416" y="17"/>
      <point x="350" y="-12"/>
      <point x="286" y="-12" type="curve" smooth="yes"/>
      <point x="139" y="-12"/>
      <point x="45" y="97"/>
      <point x="45" y="237" type="curve" smooth="yes"/>
      <point x="45" y="379"/>
      <point x="140" y="486"/>
      <point x="286" y="486" type="curve" smooth="yes"/>
      <point x="354" y="486"/>
      <point x="419" y="455"/>
      <point x="451" y="406" type="curve"/>
      <point x="453" y="406" type="line"/>
      <point x="453" y="756" type="line"/>
    </contour>
    <contour>
      <point x="297" y="72" type="curve" smooth="yes"/>
      <point x="393" y="72"/>
      <point x="453" y="141"/>
      <point x="453" y="237" type="curve" smooth="yes"/>
      <point x="453" y="333"/>
      <point x="393" y="402"/>
      <point x="297" y="402" type="curve" smooth="yes"/>
      <point x="201" y="402"/>
      <point x="141" y="333"/>
      <point x="141" y="237" type="curve" smooth="yes"/>
      <point x="141" y="141"/>
      <point x="201" y="72"/>
    </contour>
  </outline>
</glyph>
<glyph name="g" format="2">
  <advance width="611"/>
  <unicode hex="0067"/>
  <outline>
    <contour>
      <point x="543" y="474" type="line"/>
      <point x="543" y="4" type="line" smooth="yes"/>
      <point x="543" y="-139"/>
      <point x="439" y="-240"/>
      <point x="284" y="-240" type="curve" smooth="yes"/>
      <point x="194" y="-240"/>
      <point x="119" y="-217"/>
      <point x="52" y="-155" type="curve"/>
      <point x="113" y="-79" type="line"/>
      <point x="160" y="-129"/>
      <point x="213" y="-156"/>
      <point x="282" y="-156" type="curve" smooth="yes"/>
      <point x="416" y="-156"/>
      <point x="453" y="-72"/>
      <point x="453" y="8" type="curve" smooth="yes"/>
      <point x="453" y="78" type="line"/>
      <point x="450" y="78" type="line"/>
      <point x="416" y="21"/>
      <point x="351" y="-6"/>
      <point x="286" y="-6" type="curve" smooth="yes"/>
      <point x="147" y="-6"/>
      <point x="44" y="99"/>
      <point x="45" y="237" type="curve" smooth="yes"/>
      <point x="45" y="377"/>
      <point x="139" y="486"/>
      <point x="286" y="486" type="curve" smooth="yes"/>
      <point x="350" y="486"/>
      <point x="416" y="457"/>
      <point x="451" y="406" type="curve"/>
      <point x="453" y="406" type="line"/>
      <point x="453" y="474" type="line"/>
    </contour>
    <contour>
      <point x="297" y="402" type="curve" smooth="yes"/>
      <point x="201" y="402"/>
      <point x="141" y="333"/>
      <point x="141" y="237" type="curve" smooth="yes"/>
      <point x="141" y="141"/>
      <point x="201" y="78"/>
      <point x="297" y="78" type="curve" smooth="yes"/>
      <point x="393" y="78"/>
      <point x="453" y="141"/>
      <point x="453" y="237" type="curve" smooth="yes"/>
      <point x="453" y="333"/>
      <point x="393" y="402"/>
    </contour>
  </outline>
</glyph>
<glyph name="h" format="2">
  <advance width="556"/>
  <unicode hex="0068"/>
  <outline>
    <contour>
      <point x="68" y="0" type="line"/>
      <point x="68" y="756" type="line"/>
      <point x="158" y="756" type="line"/>
      <point x="158" y="401" type="line"/>
      <point x="160" y="401" type="line"/>
      <point x="183" y="451"/>
      <point x="243" y="486"/>
      <point x="316" y="486" type="curve" smooth="yes"/>
      <point x="408" y="486"/>
      <point x="488" y="431"/>
      <point x="488" y="305" type="curve" smooth="yes"/>
      <point x="488" y="0" type="line"/>
      <point x="398" y="0" type="line"/>
      <point x="398" y="280" type="line" smooth="yes"/>
      <point x="398" y="369"/>
      <point x="347" y="402"/>
      <point x="290" y="402" type="curve" smooth="yes"/>
      <point x="215" y="402"/>
      <point x="158" y="354"/>
      <point x="158" y="244" type="curve" smooth="yes"/>
      <point x="158" y="0" type="line"/>
    </contour>
  </outline>
</glyph>
<glyph name="i" format="2">
  <advance width="240"/>
  <unicode hex="0069"/>
  <outline>
    <contour>
      <point x="75" y="0" type="line"/>
      <point x="75" y="474" type="line"/>
      <point x="165" y="474" type="line"/>
      <point x="165" y="0" type="line"/>
    </contour>
    <contour>
      <point x="54" y="644" type="curve" smooth="yes"/>
      <point x="54" y="680"/>
      <point x="84" y="710"/>
      <point x="120" y="710" type="curve" smooth="yes"/>
      <point x="156" y="710"/>
      <point x="186" y="680"/>
      <point x="186" y="644" type="curve" smooth="yes"/>
      <point x="186" y="608"/>
      <point x="156" y="578"/>
      <point x="120" y="578" type="curve" smooth="yes"/>
      <point x="84" y="578"/>
      <point x="54" y="608"/>
    </contour>
  </outline>
</glyph>
<glyph name="j" format="2">
  <advance width="240"/>
  <unicode hex="006A"/>
  <outline>
    <contour>
      <point x="75" y="474" type="line"/>
      <point x="165" y="474" type="line"/>
      <point x="165" y="-68" type="line" smooth="yes"/>
      <point x="165" y="-117"/>
      <point x="164" y="-240"/>
      <point x="20" y="-240" type="curve" smooth="yes"/>
      <point x="0" y="-240"/>
      <point x="-19" y="-238"/>
      <point x="-38" y="-231" type="curve"/>
      <point x="-28" y="-148" type="line"/>
      <point x="-17" y="-152"/>
      <point x="-3" y="-156"/>
      <point x="9" y="-156" type="curve" smooth="yes"/>
      <point x="58" y="-156"/>
      <point x="75" y="-124"/>
      <point x="75" y="-64" type="curve" smooth="yes"/>
    </contour>
    <contour>
      <point x="54" y="644" type="curve" smooth="yes"/>
      <point x="54" y="680"/>
      <point x="84" y="710"/>
      <point x="120" y="710" type="curve" smooth="yes"/>
      <point x="156" y="710"/>
      <point x="186" y="680"/>
      <point x="186" y="644" type="curve" smooth="yes"/>
      <point x="186" y="608"/>
      <point x="156" y="578"/>
      <point x="120" y="578" type="curve" smooth="yes"/>
      <point x="84" y="578"/>
      <point x="54" y="608"/>
    </contour>
  </outline>
</glyph>
<glyph name="k" format="2">
  <advance width="519"/>
  <unicode hex="006B"/>
  <outline>
    <contour>
      <point x="68" y="0" type="line"/>
      <point x="68" y="756" type="line"/>
      <point x="158" y="756" type="line"/>
      <point x="158" y="268" type="line"/>
      <point x="362" y="473" type="line"/>
      <point x="487" y="473" type="line"/>
      <point x="266" y="258" type="line"/>
      <point x="506" y="0" type="line"/>
      <point x="378" y="0" type="line"/>
      <point x="158" y="246" type="line"/>
      <point x="158" y="0" type="line"/>
    </contour>
  </outline>
</glyph>
<glyph name="m" format="2">
  <advance width="852"/>
  <unicode hex="006D"/>
  <outline>
    <contour>
      <point x="68" y="0" type="line"/>
      <point x="68" y="474" type="line"/>
      <point x="152" y="474" type="line"/>
      <point x="152" y="400" type="line"/>
      <point x="154" y="400" type="line"/>
      <point x="163" y="428"/>
      <point x="221" y="486"/>
      <point x="306" y="486" type="curve" smooth="yes"/>
      <point x="376" y="486"/>
      <point x="424" y="456"/>
      <point x="454" y="398" type="curve"/>
      <point x="485" y="456"/>
      <point x="547" y="486"/>
      <point x="604" y="486" type="curve" smooth="yes"/>
      <point x="750" y="486"/>
      <point x="784" y="382"/>
      <point x="784" y="276" type="curve" smooth="yes"/>
      <point x="784" y="0" type="line"/>
      <point x="694" y="0" type="line"/>
      <point x="694" y="264" type="line" smooth="yes"/>
      <point x="694" y="336"/>
      <point x="679" y="402"/>
      <point x="592" y="402" type="curve" smooth="yes"/>
      <point x="505" y="402"/>
      <point x="471" y="343"/>
      <point x="471" y="259" type="curve" smooth="yes"/>
      <point x="471" y="0" type="line"/>
      <point x="381" y="0" type="line"/>
      <point x="381" y="248" type="line" smooth="yes"/>
      <point x="381" y="338"/>
      <point x="368" y="402"/>
      <point x="281" y="402" type="curve" smooth="yes"/>
      <point x="216" y="402"/>
      <point x="158" y="353"/>
      <point x="158" y="246" type="curve" smooth="yes"/>
      <point x="158" y="0" type="line"/>
    </contour>
  </outline>
</glyph>
<glyph name="q" format="2">
  <advance width="611"/>
  <unicode hex="0071"/>
  <outline>
    <contour>
      <point x="543" y="474" type="line"/>
      <point x="543" y="-228" type="line"/>
      <point x="453" y="-228" type="line"/>
      <point x="453" y="68" type="line"/>
      <point x="451" y="68" type="line"/>
      <point x="419" y="19"/>
      <point x="354" y="-12"/>
      <point x="286" y="-12" type="curve" smooth="yes"/>
      <point x="140" y="-12"/>
      <point x="45" y="95"/>
      <point x="45" y="237" type="curve" smooth="yes"/>
      <point x="45" y="377"/>
      <point x="139" y="486"/>
      <point x="286" y="486" type="curve" smooth="yes"/>
      <point x="350" y="486"/>
      <point x="416" y="457"/>
      <point x="451" y="406" type="curve"/>
      <point x="453" y="406" type="line"/>
      <point x="453" y="474" type="line"/>
    </contour>
    <contour>
      <point x="297" y="402" type="curve" smooth="yes"/>
      <point x="201" y="402"/>
      <point x="141" y="333"/>
      <point x="141" y="237" type="curve" smooth="yes"/>
      <point x="141" y="141"/>
      <point x="201" y="72"/>
      <point x="297" y="72" type="curve" smooth="yes"/>
      <point x="393" y="72"/>
      <point x="453" y="141"/>
      <point x="453" y="237" type="curve" smooth="yes"/>
      <point x="453" y="333"/>
      <point x="393" y="402"/>
    </contour>
  </outline>
</glyph>
<glyph name="r" format="2">
  <advance width="370"/>
  <unicode hex="0072"/>
  <outline>
    <contour>
      <point x="68" y="0" type="line"/>
      <point x="68" y="474" type="line"/>
      <point x="158" y="474" type="line"/>
      <point x="158" y="401" type="line"/>
      <point x="160" y="401" type="line"/>
      <point x="183" y="451"/>
      <point x="243" y="486"/>
      <point x="302" y="486" type="curve" smooth="yes"/>
      <point x="316" y="486"/>
      <point x="330" y="484"/>
      <point x="342" y="480" type="curve"/>
      <point x="338" y="383" type="line"/>
      <point x="323" y="387"/>
      <point x="308" y="390"/>
      <point x="294" y="390" type="curve" smooth="yes"/>
      <point x="206" y="390"/>
      <point x="158" y="342"/>
      <point x="158" y="238" type="curve" smooth="yes"/>
      <point x="158" y="0" type="line"/>
    </contour>
  </outline>
</glyph>
<glyph name="t" format="2">
  <advance width="370"/>
  <unicode hex="0074"/>
  <outline>
    <contour>
      <point x="322" y="474" type="line"/>
      <point x="322" y="396" type="line"/>
      <point x="193" y="396" type="line"/>
      <point x="193" y="181" type="line" smooth="yes"/>
      <point x="193" y="128"/>
      <point x="193" y="72"/>
      <point x="261" y="72" type="curve" smooth="yes"/>
      <point x="282" y="72"/>
      <point x="307" y="75"/>
      <point x="325" y="86" type="curve"/>
      <point x="325" y="4" type="line"/>
      <point x="304" y="-8"/>
      <point x="262" y="-12"/>
      <point x="244" y="-12" type="curve" smooth="yes"/>
      <point x="105" y="-12"/>
      <point x="103" y="73"/>
      <point x="103" y="149" type="curve" smooth="yes"/>
      <point x="103" y="396" type="line"/>
      <point x="-1" y="396" type="line"/>
      <point x="-1" y="474" type="line"/>
      <point x="103" y="474" type="line"/>
      <point x="103" y="607" type="line"/>
      <point x="193" y="607" type="line"/>
      <point x="193" y="474" type="line"/>
    </contour>
  </outline>
</glyph>
<glyph name="w" format="2">
  <advance width="759"/>
  <unicode hex="0077"/>
  <outline>
    <contour>
      <point x="167" y="0" type="line"/>
      <point x="11" y="474" type="line"/>
      <point x="112" y="474" type="line"/>
      <point x="219" y="120" type="line"/>
      <point x="221" y="120" type="line"/>
      <point x="334" y="474" type="line"/>
      <point x="429" y="474" type="line"/>
      <point x="549" y="120" type="line"/>
      <point x="551" y="120" type="line"/>
      <point x="653" y="474" type="line"/>
      <point x="748" y="474" type="line"/>
      <point x="595" y="0" type="line"/>
      <point x="504" y="0" type="line"/>
      <point x="379" y="354" type="line"/>
      <point x="377" y="354" type="line"/>
      <point x="264" y="0" type="line"/>
    </contour>
  </outline>
</glyph>
<glyph name="z" format="2">
  <advance width="463"/>
  <unicode hex="007A"/>
  <outline>
    <contour>
      <point x="35" y="0" type="line"/>
      <point x="35" y="81" type="line"/>
      <point x="304" y="396" type="line"/>
      <point x="44" y="396" type="line"/>
      <point x="44" y="474" type="line"/>
      <point x="414" y="474" type="line"/>
      <point x="414" y="394" type="line"/>
      <point x="143" y="78" type="line"/>
      <point x="428" y="78" type="line"/>
      <point x="428" y="0" type="line"/>
    </contour>
  </outline>
</glyph>
<glyph name="braceleft" format="2">
  <advance width="333"/>
  <unicode hex="007B"/>
  <outline>
    <contour>
      <point x="304" y="732" type="line"/>
      <point x="304" y="660" type="line"/>
      <point x="259" y="660" type="line" smooth="yes"/>
      <point x="220" y="660"/>
      <point x="208" y="616"/>
      <point x="208" y="573" type="curve" smooth="yes"/>
      <point x="208" y="422" type="line" smooth="yes"/>
      <point x="211" y="329"/>
      <point x="147" y="295"/>
      <point x="124" y="289" type="curve"/>
      <point x="124" y="286" type="line"/>
      <point x="147" y="283"/>
      <point x="211" y="254"/>
      <point x="208" y="152" type="curve" smooth="yes"/>
      <point x="208" y="2" type="line" smooth="yes"/>
      <point x="208" y="-39"/>
      <point x="220" y="-84"/>
      <point x="259" y="-84" type="curve" smooth="yes"/>
      <point x="304" y="-84" type="line"/>
      <point x="304" y="-156" type="line"/>
      <point x="229" y="-156" type="line" smooth="yes"/>
      <point x="179" y="-156"/>
      <point x="124" y="-110"/>
      <point x="124" y="-3" type="curve" smooth="yes"/>
      <point x="124" y="131" type="line" smooth="yes"/>
      <point x="121" y="204"/>
      <point x="85" y="248"/>
      <point x="40" y="248" type="curve"/>
      <point x="40" y="326" type="line"/>
      <point x="85" y="326"/>
      <point x="121" y="370"/>
      <point x="124" y="443" type="curve" smooth="yes"/>
      <point x="124" y="601" type="line" smooth="yes"/>
      <point x="124" y="686"/>
      <point x="179" y="732"/>
      <point x="229" y="732" type="curve" smooth="yes"/>
    </contour>
  </outline>
</glyph>
<glyph name="bar" format="2">
  <advance width="222"/>
  <unicode hex="007C"/>
  <outline>
    <contour>
      <point x="72" y="750" type="line"/>
      <point x="150" y="750" type="line"/>
      <point x="150" y="-250" type="line"/>
      <point x="72" y="-250" type="line"/>
    </contour>
  </outline>
</glyph>
<glyph name="braceright" format="2">
  <advance width="333"/>
  <unicode hex="007D"/>
  <outline>
    <contour>
      <point x="29" y="-156" type="line"/>
      <point x="29" y="-84" type="line"/>
      <point x="74" y="-84" type="line" smooth="yes"/>
      <point x="113" y="-84"/>
      <point x="125" y="-40"/>
      <point x="125" y="3" type="curve" smooth="yes"/>
      <point x="125" y="154" type="line" smooth="yes"/>
      <point x="122" y="247"/>
      <point x="186" y="281"/>
      <point x="209" y="287" type="curve"/>
      <point x="209" y="290" type="line"/>
      <point x="186" y="293"/>
      <point x="122" y="322"/>
      <point x="125" y="424" type="curve" smooth="yes"/>
      <point x="125" y="574" type="line" smooth="yes"/>
      <point x="125" y="615"/>
      <point x="113" y="660"/>
      <point x="74" y="660" type="curve" smooth="yes"/>
      <point x="29" y="660" type="line"/>
      <point x="29" y="732" type="line"/>
      <point x="104" y="732" type="line" smooth="yes"/>
      <point x="154" y="732"/>
      <point x="209" y="686"/>
      <point x="209" y="579" type="curve" smooth="yes"/>
      <point x="209" y="445" type="line" smooth="yes"/>
      <point x="209" y="372"/>
      <point x="248" y="328"/>
      <point x="293" y="328" type="curve"/>
      <point x="293" y="250" type="line"/>
      <point x="248" y="250"/>
      <point x="209" y="206"/>
      <point x="209" y="133" type="curve" smooth="yes"/>
      <point x="209" y="-25" type="line" smooth="yes"/>
      <point x="209" y="-110"/>
      <point x="154" y="-156"/>
      <point x="104" y="-156" type="curve" smooth="yes"/>
    </contour>
  </outline>
</glyph>
<glyph name="asciitilde" format="2">
  <advance width="666"/>
  <unicode hex="007E"/>
  <outline>
    <contour>
      <point x="530" y="378" type="curve"/>
      <point x="570" y="316" type="line"/>
      <point x="530" y="248"/>
      <point x="486" y="228"/>
      <point x="442" y="228" type="curve" smooth="yes"/>
      <point x="403" y="228"/>
      <point x="364" y="246"/>
      <point x="326" y="264" type="curve" smooth="yes"/>
      <point x="288" y="282"/>
      <point x="252" y="300"/>
      <point x="220" y="300" type="curve" smooth="yes"/>
      <point x="177" y="300"/>
      <point x="153" y="262"/>
      <point x="136" y="228" type="curve"/>
      <point x="96" y="290" type="line"/>
      <point x="127" y="342"/>
      <point x="165" y="378"/>
      <point x="229" y="378" type="curve" smooth="yes"/>
      <point x="269" y="378"/>
      <point x="307" y="360"/>
      <point x="342" y="342" type="curve" smooth="yes"/>
      <point x="377" y="324"/>
      <point x="410" y="305"/>
      <point x="441" y="305" type="curve" smooth="yes"/>
      <point x="473" y="305"/>
      <point x="502" y="323"/>
    </contour>
  </outline>
</glyph>
<glyph name="exclamdown" format="2">
  <advance width="278"/>
  <unicode hex="00A1"/>
  <outline>
    <contour>
      <point x="93" y="-222" type="line"/>
      <point x="93" y="282" type="line"/>
      <point x="189" y="282" type="line"/>
      <point x="189" y="-222" type="line"/>
    </contour>
    <contour>
      <point x="205" y="426" type="curve" smooth="yes"/>
      <point x="205" y="390"/>
      <point x="175" y="360"/>
      <point x="139" y="360" type="curve" smooth="yes"/>
      <point x="103" y="360"/>
      <point x="73" y="390"/>
      <point x="73" y="426" type="curve" smooth="yes"/>
      <point x="73" y="462"/>
      <point x="103" y="492"/>
      <point x="139" y="492" type="curve" smooth="yes"/>
      <point x="175" y="492"/>
      <point x="205" y="462"/>
    </contour>
  </outline>
</glyph>
<glyph name="cent" format="2">
  <advance width="556"/>
  <unicode hex="00A2"/>
  <outline>
    <contour>
      <point x="342" y="408" type="curve"/>
      <point x="342" y="66" type="line"/>
      <point x="384" y="67"/>
      <point x="420" y="85"/>
      <point x="448" y="118" type="curve"/>
      <point x="507" y="60" type="line"/>
      <point x="468" y="16"/>
      <point x="409" y="-7"/>
      <point x="342" y="-12" type="curve"/>
      <point x="342" y="-78" type="line"/>
      <point x="288" y="-78" type="line"/>
      <point x="288" y="-12" type="line"/>
      <point x="155" y="1"/>
      <point x="72" y="106"/>
      <point x="72" y="237" type="curve" smooth="yes"/>
      <point x="72" y="372"/>
      <point x="155" y="467"/>
      <point x="288" y="486" type="curve"/>
      <point x="288" y="552" type="line"/>
      <point x="342" y="552" type="line"/>
      <point x="342" y="486" type="line"/>
      <point x="405" y="483"/>
      <point x="469" y="457"/>
      <point x="509" y="410" type="curve"/>
      <point x="444" y="351" type="line"/>
      <point x="419" y="381"/>
      <point x="380" y="407"/>
    </contour>
    <contour>
      <point x="288" y="66" type="curve"/>
      <point x="288" y="408" type="line"/>
      <point x="205" y="395"/>
      <point x="162" y="320"/>
      <point x="162" y="239" type="curve" smooth="yes"/>
      <point x="162" y="157"/>
      <point x="208" y="81"/>
    </contour>
  </outline>
</glyph>
<glyph name="sterling" format="2">
  <advance width="556"/>
  <unicode hex="00A3"/>
  <outline>
    <contour>
      <point x="432" y="400" type="line"/>
      <point x="432" y="328" type="line"/>
      <point x="270" y="328" type="line"/>
      <point x="270" y="84" type="line"/>
      <point x="516" y="84" type="line"/>
      <point x="516" y="0" type="line"/>
      <point x="72" y="0" type="line"/>
      <point x="72" y="84" type="line"/>
      <point x="174" y="84" type="line"/>
      <point x="174" y="328" type="line"/>
      <point x="78" y="328" type="line"/>
      <point x="78" y="400" type="line"/>
      <point x="174" y="400" type="line"/>
      <point x="174" y="500" type="line" smooth="yes"/>
      <point x="174" y="616"/>
      <point x="248" y="720"/>
      <point x="394" y="720" type="curve" smooth="yes"/>
      <point x="457" y="720"/>
      <point x="517" y="702"/>
      <point x="563" y="658" type="curve"/>
      <point x="502" y="588" type="line"/>
      <point x="472" y="617"/>
      <point x="437" y="636"/>
      <point x="404" y="636" type="curve" smooth="yes"/>
      <point x="334" y="636"/>
      <point x="270" y="593"/>
      <point x="270" y="476" type="curve" smooth="yes"/>
      <point x="270" y="400" type="line"/>
    </contour>
  </outline>
</glyph>
<glyph name="currency" format="2">
  <advance width="556"/>
  <unicode hex="00A4"/>
  <outline>
    <contour>
      <point x="21" y="555" type="line"/>
      <point x="78" y="611" type="line"/>
      <point x="127" y="563" type="line"/>
      <point x="174" y="596"/>
      <point x="226" y="612"/>
      <point x="278" y="612" type="curve" smooth="yes"/>
      <point x="330" y="612"/>
      <point x="383" y="596"/>
      <point x="429" y="563" type="curve"/>
      <point x="478" y="611" type="line"/>
      <point x="535" y="555" type="line"/>
      <point x="486" y="506" type="line"/>
      <point x="519" y="461"/>
      <point x="535" y="408"/>
      <point x="535" y="355" type="curve" smooth="yes"/>
      <point x="535" y="302"/>
      <point x="519" y="249"/>
      <point x="486" y="204" type="curve"/>
      <point x="535" y="155" type="line"/>
      <point x="478" y="98" type="line"/>
      <point x="429" y="147" type="line"/>
      <point x="385" y="114"/>
      <point x="332" y="98"/>
      <point x="278" y="98" type="curve" smooth="yes"/>
      <point x="225" y="98"/>
      <point x="172" y="115"/>
      <point x="127" y="147" type="curve"/>
      <point x="78" y="98" type="line"/>
      <point x="21" y="155" type="line"/>
      <point x="70" y="204" type="line"/>
      <point x="38" y="248"/>
      <point x="21" y="302"/>
      <point x="21" y="355" type="curve" smooth="yes"/>
      <point x="21" y="409"/>
      <point x="38" y="462"/>
      <point x="70" y="506" type="curve"/>
    </contour>
    <contour>
      <point x="99" y="355" type="curve" smooth="yes"/>
      <point x="99" y="256"/>
      <point x="179" y="176"/>
      <point x="278" y="176" type="curve" smooth="yes"/>
      <point x="377" y="176"/>
      <point x="457" y="256"/>
      <point x="457" y="355" type="curve" smooth="yes"/>
      <point x="457" y="454"/>
      <point x="377" y="534"/>
      <point x="278" y="534" type="curve" smooth="yes"/>
      <point x="179" y="534"/>
      <point x="99" y="454"/>
    </contour>
  </outline>
</glyph>
<glyph name="yen" format="2">
  <advance width="556"/>
  <unicode hex="00A5"/>
  <outline>
    <contour>
      <point x="236" y="0" type="line"/>
      <point x="236" y="186" type="line"/>
      <point x="65" y="186" type="line"/>
      <point x="65" y="252" type="line"/>
      <point x="236" y="252" type="line"/>
      <point x="236" y="305" type="line"/>
      <point x="219" y="333" type="line"/>
      <point x="65" y="333" type="line"/>
      <point x="65" y="399" type="line"/>
      <point x="179" y="399" type="line"/>
      <point x="-5" y="708" type="line"/>
      <point x="95" y="708" type="line"/>
      <point x="274" y="392" type="line"/>
      <point x="459" y="708" type="line"/>
      <point x="561" y="708" type="line"/>
      <point x="375" y="399" type="line"/>
      <point x="491" y="399" type="line"/>
      <point x="491" y="333" type="line"/>
      <point x="337" y="333" type="line"/>
      <point x="320" y="305" type="line"/>
      <point x="320" y="252" type="line"/>
      <point x="491" y="252" type="line"/>
      <point x="491" y="186" type="line"/>
      <point x="320" y="186" type="line"/>
      <point x="320" y="0" type="line"/>
    </contour>
  </outline>
</glyph>
<glyph name="brokenbar" format="2">
  <advance width="222"/>
  <unicode hex="00A6"/>
  <outline>
    <contour>
      <point x="72" y="675" type="line"/>
      <point x="150" y="675" type="line"/>
      <point x="150" y="325" type="line"/>
      <point x="72" y="325" type="line"/>
    </contour>
    <contour>
      <point x="72" y="175" type="line"/>
      <point x="150" y="175" type="line"/>
      <point x="150" y="-175" type="line"/>
      <point x="72" y="-175" type="line"/>
    </contour>
  </outline>
</glyph>
<glyph name="section" format="2">
  <advance width="556"/>
  <unicode hex="00A7"/>
  <outline>
    <contour>
      <point x="483" y="626" type="curve"/>
      <point x="399" y="580" type="line"/>
      <point x="382" y="622"/>
      <point x="344" y="641"/>
      <point x="298" y="642" type="curve" smooth="yes"/>
      <point x="246" y="642"/>
      <point x="199" y="618"/>
      <point x="199" y="564" type="curve" smooth="yes"/>
      <point x="199" y="446"/>
      <point x="494" y="459"/>
      <point x="494" y="279" type="curve" smooth="yes"/>
      <point x="494" y="221"/>
      <point x="462" y="175"/>
      <point x="411" y="148" type="curve"/>
      <point x="452" y="120"/>
      <point x="476" y="79"/>
      <point x="476" y="27" type="curve" smooth="yes"/>
      <point x="476" y="-88"/>
      <point x="371" y="-144"/>
      <point x="266" y="-144" type="curve" smooth="yes"/>
      <point x="178" y="-144"/>
      <point x="98" y="-108"/>
      <point x="62" y="-23" type="curve"/>
      <point x="149" y="18" type="line"/>
      <point x="167" y="-37"/>
      <point x="216" y="-60"/>
      <point x="273" y="-60" type="curve" smooth="yes"/>
      <point x="324" y="-60"/>
      <point x="374" y="-35"/>
      <point x="374" y="27" type="curve" smooth="yes"/>
      <point x="374" y="130"/>
      <point x="79" y="139"/>
      <point x="79" y="293" type="curve" smooth="yes"/>
      <point x="79" y="373"/>
      <point x="120" y="416"/>
      <point x="177" y="444" type="curve"/>
      <point x="129" y="471"/>
      <point x="97" y="509"/>
      <point x="97" y="562" type="curve" smooth="yes"/>
      <point x="97" y="670"/>
      <point x="201" y="726"/>
      <point x="300" y="726" type="curve" smooth="yes"/>
      <point x="372" y="726"/>
      <point x="450" y="697"/>
    </contour>
    <contour>
      <point x="322" y="362" type="curve" smooth="yes"/>
      <point x="243" y="400" type="line"/>
      <point x="207" y="386"/>
      <point x="169" y="365"/>
      <point x="169" y="321" type="curve" smooth="yes"/>
      <point x="169" y="260"/>
      <point x="224" y="240"/>
      <point x="267" y="219" type="curve" smooth="yes"/>
      <point x="344" y="182" type="line"/>
      <point x="375" y="201"/>
      <point x="404" y="235"/>
      <point x="404" y="270" type="curve" smooth="yes"/>
      <point x="404" y="319"/>
      <point x="359" y="343"/>
    </contour>
  </outline>
</glyph>
<glyph name="dieresis" format="2">
  <advance width="240"/>
  <unicode hex="00A8"/>
  <outline>
    <contour>
      <point x="18" y="714" type="curve" smooth="yes"/>
      <point x="49" y="714"/>
      <point x="80" y="690"/>
      <point x="80" y="657" type="curve" smooth="yes"/>
      <point x="80" y="621"/>
      <point x="54" y="594"/>
      <point x="18" y="594" type="curve" smooth="yes"/>
      <point x="-18" y="594"/>
      <point x="-44" y="621"/>
      <point x="-44" y="657" type="curve" smooth="yes"/>
      <point x="-44" y="690"/>
      <point x="-13" y="714"/>
    </contour>
    <contour>
      <point x="222" y="714" type="curve" smooth="yes"/>
      <point x="253" y="714"/>
      <point x="284" y="690"/>
      <point x="284" y="657" type="curve" smooth="yes"/>
      <point x="284" y="621"/>
      <point x="258" y="594"/>
      <point x="222" y="594" type="curve" smooth="yes"/>
      <point x="186" y="594"/>
      <point x="160" y="621"/>
      <point x="160" y="657" type="curve" smooth="yes"/>
      <point x="160" y="690"/>
      <point x="191" y="714"/>
    </contour>
  </outline>
</glyph>
<glyph name="copyright" format="2">
  <advance width="800"/>
  <unicode hex="00A9"/>
  <outline>
    <contour>
      <point x="28" y="354" type="curve" smooth="yes"/>
      <point x="28" y="559"/>
      <point x="195" y="726"/>
      <point x="400" y="726" type="curve" smooth="yes"/>
      <point x="605" y="726"/>
      <point x="772" y="559"/>
      <point x="772" y="354" type="curve" smooth="yes"/>
      <point x="772" y="149"/>
      <point x="605" y="-18"/>
      <point x="400" y="-18" type="curve" smooth="yes"/>
      <point x="195" y="-18"/>
      <point x="28" y="149"/>
    </contour>
    <contour>
      <point x="512" y="286" type="curve"/>
      <point x="589" y="286" type="line"/>
      <point x="568" y="191"/>
      <point x="499" y="129"/>
      <point x="403" y="129" type="curve" smooth="yes"/>
      <point x="264" y="129"/>
      <point x="181" y="222"/>
      <point x="181" y="357" type="curve" smooth="yes"/>
      <point x="181" y="494"/>
      <point x="259" y="585"/>
      <point x="400" y="585" type="curve" smooth="yes"/>
      <point x="499" y="585"/>
      <point x="573" y="533"/>
      <point x="589" y="432" type="curve"/>
      <point x="512" y="432" type="line"/>
      <point x="499" y="481"/>
      <point x="467" y="513"/>
      <point x="401" y="513" type="curve" smooth="yes"/>
      <point x="306" y="513"/>
      <point x="259" y="454"/>
      <point x="259" y="359" type="curve" smooth="yes"/>
      <point x="259" y="272"/>
      <point x="312" y="201"/>
      <point x="403" y="201" type="curve" smooth="yes"/>
      <point x="467" y="201"/>
      <point x="501" y="234"/>
    </contour>
    <contour>
      <point x="94" y="354" type="curve" smooth="yes"/>
      <point x="94" y="185"/>
      <point x="231" y="48"/>
      <point x="400" y="48" type="curve" smooth="yes"/>
      <point x="569" y="48"/>
      <point x="706" y="185"/>
      <point x="706" y="354" type="curve" smooth="yes"/>
      <point x="706" y="523"/>
      <point x="569" y="660"/>
      <point x="400" y="660" type="curve" smooth="yes"/>
      <point x="231" y="660"/>
      <point x="94" y="523"/>
    </contour>
  </outline>
</glyph>
<glyph name="ordfeminine" format="2">
  <advance width="337"/>
  <unicode hex="00AA"/>
  <outline>
    <contour>
      <point x="308" y="425" type="line"/>
      <point x="242" y="425" type="line"/>
      <point x="242" y="469" type="line"/>
      <point x="240" y="470" type="line"/>
      <point x="222" y="432"/>
      <point x="187" y="419"/>
      <point x="140" y="419" type="curve" smooth="yes"/>
      <point x="86" y="419"/>
      <point x="34" y="447"/>
      <point x="34" y="505" type="curve" smooth="yes"/>
      <point x="34" y="604"/>
      <point x="155" y="608"/>
      <point x="230" y="608" type="curve" smooth="yes"/>
      <point x="242" y="608" type="line"/>
      <point x="242" y="618" type="line" smooth="yes"/>
      <point x="242" y="644"/>
      <point x="218" y="666"/>
      <point x="174" y="666" type="curve" smooth="yes"/>
      <point x="141" y="666"/>
      <point x="109" y="655"/>
      <point x="85" y="633" type="curve"/>
      <point x="50" y="678" type="line"/>
      <point x="82" y="706"/>
      <point x="129" y="720"/>
      <point x="173" y="720" type="curve" smooth="yes"/>
      <point x="289" y="720"/>
      <point x="308" y="672"/>
      <point x="308" y="621" type="curve" smooth="yes"/>
    </contour>
    <contour>
      <point x="242" y="560" type="line"/>
      <point x="240" y="560" type="line" smooth="yes"/>
      <point x="183" y="560"/>
      <point x="100" y="560"/>
      <point x="100" y="509" type="curve" smooth="yes"/>
      <point x="100" y="481"/>
      <point x="129" y="473"/>
      <point x="160" y="473" type="curve" smooth="yes"/>
      <point x="216" y="473"/>
      <point x="242" y="501"/>
      <point x="242" y="541" type="curve" smooth="yes"/>
    </contour>
  </outline>
</glyph>
<glyph name="guillemotleft" format="2">
  <advance width="500"/>
  <unicode hex="00AB"/>
  <outline>
    <contour>
      <point x="193" y="27" type="line"/>
      <point x="47" y="243" type="line"/>
      <point x="192" y="459" type="line"/>
      <point x="254" y="418" type="line"/>
      <point x="137" y="243" type="line"/>
      <point x="255" y="68" type="line"/>
    </contour>
    <contour>
      <point x="391" y="27" type="line"/>
      <point x="245" y="243" type="line"/>
      <point x="390" y="459" type="line"/>
      <point x="452" y="418" type="line"/>
      <point x="335" y="243" type="line"/>
      <point x="453" y="68" type="line"/>
    </contour>
  </outline>
</glyph>
<glyph name="logicalnot" format="2">
  <advance width="666"/>
  <unicode hex="00AC"/>
  <outline>
    <contour>
      <point x="600" y="420" type="line"/>
      <point x="600" y="141" type="line"/>
      <point x="522" y="141" type="line"/>
      <point x="522" y="342" type="line"/>
      <point x="66" y="342" type="line"/>
      <point x="66" y="420" type="line"/>
    </contour>
  </outline>
</glyph>
<glyph name="uni00AD" format="2">
  <advance width="316"/>
  <unicode hex="00AD"/>
  <outline>
    <contour>
      <point x="281" y="284" type="line"/>
      <point x="281" y="200" type="line"/>
      <point x="35" y="200" type="line"/>
      <point x="35" y="284" type="line"/>
    </contour>
  </outline>
</glyph>
<glyph name="registered" format="2">
  <advance width="800"/>
  <unicode hex="00AE"/>
  <outline>
    <contour>
      <point x="257" y="144" type="line"/>
      <point x="257" y="569" type="line"/>
      <point x="421" y="569" type="line" smooth="yes"/>
      <point x="523" y="569"/>
      <point x="571" y="523"/>
      <point x="571" y="441" type="curve" smooth="yes"/>
      <point x="571" y="367"/>
      <point x="527" y="331"/>
      <point x="469" y="324" type="curve"/>
      <point x="580" y="144" type="line"/>
      <point x="498" y="144" type="line"/>
      <point x="392" y="318" type="line"/>
      <point x="335" y="318" type="line"/>
      <point x="335" y="144" type="line"/>
    </contour>
    <contour>
      <point x="335" y="503" type="line"/>
      <point x="335" y="384" type="line"/>
      <point x="392" y="384" type="line" smooth="yes"/>
      <point x="440" y="384"/>
      <point x="493" y="387"/>
      <point x="493" y="444" type="curve" smooth="yes"/>
      <point x="493" y="501"/>
      <point x="440" y="504"/>
      <point x="392" y="503" type="curve" smooth="yes"/>
    </contour>
    <contour>
      <point x="28" y="354" type="curve" smooth="yes"/>
      <point x="28" y="559"/>
      <point x="195" y="726"/>
      <point x="400" y="726" type="curve" smooth="yes"/>
      <point x="605" y="726"/>
      <point x="772" y="559"/>
      <point x="772" y="354" type="curve" smooth="yes"/>
      <point x="772" y="149"/>
      <point x="605" y="-18"/>
      <point x="400" y="-18" type="curve" smooth="yes"/>
      <point x="195" y="-18"/>
      <point x="28" y="149"/>
    </contour>
    <contour>
      <point x="94" y="354" type="curve" smooth="yes"/>
      <point x="94" y="185"/>
      <point x="231" y="48"/>
      <point x="400" y="48" type="curve" smooth="yes"/>
      <point x="569" y="48"/>
      <point x="706" y="185"/>
      <point x="706" y="354" type="curve" smooth="yes"/>
      <point x="706" y="523"/>
      <point x="569" y="660"/>
      <point x="400" y="660" type="curve" smooth="yes"/>
      <point x="231" y="660"/>
      <point x="94" y="523"/>
    </contour>
  </outline>
</glyph>
<glyph name="macron" format="2">
  <advance width="240"/>
  <unicode hex="00AF"/>
  <outline>
    <contour>
      <point x="264" y="666" type="line"/>
      <point x="264" y="600" type="line"/>
      <point x="-24" y="600" type="line"/>
      <point x="-24" y="666" type="line"/>
    </contour>
  </outline>
</glyph>
<glyph name="degree" format="2">
  <advance width="400"/>
  <unicode hex="00B0"/>
  <outline>
    <contour>
      <point x="51" y="571" type="curve" smooth="yes"/>
      <point x="51" y="653"/>
      <point x="118" y="720"/>
      <point x="200" y="720" type="curve" smooth="yes"/>
      <point x="282" y="720"/>
      <point x="349" y="653"/>
      <point x="349" y="571" type="curve" smooth="yes"/>
      <point x="349" y="489"/>
      <point x="282" y="422"/>
      <point x="200" y="422" type="curve" smooth="yes"/>
      <point x="118" y="422"/>
      <point x="51" y="489"/>
    </contour>
    <contour>
      <point x="117" y="571" type="curve" smooth="yes"/>
      <point x="117" y="525"/>
      <point x="154" y="488"/>
      <point x="200" y="488" type="curve" smooth="yes"/>
      <point x="246" y="488"/>
      <point x="283" y="525"/>
      <point x="283" y="571" type="curve" smooth="yes"/>
      <point x="283" y="617"/>
      <point x="246" y="654"/>
      <point x="200" y="654" type="curve" smooth="yes"/>
      <point x="154" y="654"/>
      <point x="117" y="617"/>
    </contour>
  </outline>
</glyph>
<glyph name="plusminus" format="2">
  <advance width="666"/>
  <unicode hex="00B1"/>
  <outline>
    <contour>
      <point x="66" y="315" type="line"/>
      <point x="66" y="393" type="line"/>
      <point x="294" y="393" type="line"/>
      <point x="294" y="556" type="line"/>
      <point x="372" y="556" type="line"/>
      <point x="372" y="393" type="line"/>
      <point x="600" y="393" type="line"/>
      <point x="600" y="315" type="line"/>
      <point x="372" y="315" type="line"/>
      <point x="372" y="165" type="line"/>
      <point x="294" y="165" type="line"/>
      <point x="294" y="315" type="line"/>
    </contour>
    <contour>
      <point x="66" y="51" type="line"/>
      <point x="66" y="129" type="line"/>
      <point x="600" y="129" type="line"/>
      <point x="600" y="51" type="line"/>
    </contour>
  </outline>
</glyph>
<glyph name="twosuperior" format="2">
  <advance width="361"/>
  <unicode hex="00B2"/>
  <outline>
    <contour>
      <point x="26" y="289" type="line"/>
      <point x="26" y="365" type="line"/>
      <point x="205" y="525" type="line" smooth="yes"/>
      <point x="225" y="543"/>
      <point x="250" y="567"/>
      <point x="250" y="598" type="curve" smooth="yes"/>
      <point x="250" y="633"/>
      <point x="221" y="654"/>
      <point x="185" y="654" type="curve" smooth="yes"/>
      <point x="147" y="654"/>
      <point x="120" y="631"/>
      <point x="117" y="595" type="curve"/>
      <point x="33" y="601" type="line"/>
      <point x="40" y="679"/>
      <point x="102" y="720"/>
      <point x="185" y="720" type="curve" smooth="yes"/>
      <point x="268" y="720"/>
      <point x="334" y="681"/>
      <point x="334" y="600" type="curve" smooth="yes"/>
      <point x="334" y="547"/>
      <point x="304" y="511"/>
      <point x="263" y="476" type="curve" smooth="yes"/>
      <point x="122" y="355" type="line"/>
      <point x="335" y="355" type="line"/>
      <point x="335" y="289" type="line"/>
    </contour>
  </outline>
</glyph>
<glyph name="threesuperior" format="2">
  <advance width="361"/>
  <unicode hex="00B3"/>
  <outline>
    <contour>
      <point x="140" y="477" type="line"/>
      <point x="140" y="543" type="line"/>
      <point x="158" y="543" type="line" smooth="yes"/>
      <point x="203" y="543"/>
      <point x="248" y="549"/>
      <point x="248" y="600" type="curve" smooth="yes"/>
      <point x="248" y="632"/>
      <point x="221" y="654"/>
      <point x="183" y="654" type="curve" smooth="yes"/>
      <point x="151" y="654"/>
      <point x="125" y="638"/>
      <point x="114" y="609" type="curve"/>
      <point x="31" y="629" type="line"/>
      <point x="51" y="692"/>
      <point x="111" y="720"/>
      <point x="179" y="720" type="curve" smooth="yes"/>
      <point x="258" y="720"/>
      <point x="326" y="682"/>
      <point x="326" y="608" type="curve" smooth="yes"/>
      <point x="326" y="562"/>
      <point x="296" y="523"/>
      <point x="248" y="512" type="curve"/>
      <point x="248" y="510" type="line"/>
      <point x="306" y="503"/>
      <point x="337" y="459"/>
      <point x="337" y="407" type="curve" smooth="yes"/>
      <point x="337" y="327"/>
      <point x="264" y="283"/>
      <point x="182" y="283" type="curve" smooth="yes"/>
      <point x="106" y="283"/>
      <point x="44" y="312"/>
      <point x="24" y="382" type="curve"/>
      <point x="107" y="402" type="line"/>
      <point x="117" y="369"/>
      <point x="140" y="349"/>
      <point x="182" y="349" type="curve" smooth="yes"/>
      <point x="223" y="349"/>
      <point x="259" y="375"/>
      <point x="259" y="413" type="curve" smooth="yes"/>
      <point x="259" y="468"/>
      <point x="205" y="478"/>
      <point x="157" y="477" type="curve" smooth="yes"/>
    </contour>
  </outline>
</glyph>
<glyph name="acute" format="2">
  <advance width="240"/>
  <unicode hex="00B4"/>
  <outline>
    <contour>
      <point x="54" y="564" type="line"/>
      <point x="158" y="708" type="line"/>
      <point x="286" y="708" type="line"/>
      <point x="137" y="564" type="line"/>
    </contour>
  </outline>
</glyph>
<glyph name="paragraph" format="2">
  <advance width="600"/>
  <unicode hex="00B6"/>
  <outline>
    <contour>
      <point x="260" y="-126" type="line"/>
      <point x="260" y="318" type="line"/>
      <point x="138" y="318"/>
      <point x="51" y="399"/>
      <point x="51" y="503" type="curve" smooth="yes"/>
      <point x="51" y="633"/>
      <point x="138" y="708"/>
      <point x="279" y="708" type="curve" smooth="yes"/>
      <point x="528" y="708" type="line"/>
      <point x="528" y="-126" type="line"/>
      <point x="450" y="-126" type="line"/>
      <point x="450" y="642" type="line"/>
      <point x="338" y="642" type="line"/>
      <point x="338" y="-126" type="line"/>
    </contour>
  </outline>
</glyph>
<glyph name="periodcentered" format="2">
  <advance width="278"/>
  <unicode hex="00B7"/>
  <outline>
    <contour>
      <point x="73" y="303" type="curve" smooth="yes"/>
      <point x="73" y="339"/>
      <point x="103" y="369"/>
      <point x="139" y="369" type="curve" smooth="yes"/>
      <point x="175" y="369"/>
      <point x="205" y="339"/>
      <point x="205" y="303" type="curve" smooth="yes"/>
      <point x="205" y="267"/>
      <point x="175" y="237"/>
      <point x="139" y="237" type="curve" smooth="yes"/>
      <point x="103" y="237"/>
      <point x="73" y="267"/>
    </contour>
  </outline>
</glyph>
<glyph name="cedilla" format="2">
  <advance width="240"/>
  <unicode hex="00B8"/>
  <outline>
    <contour>
      <point x="5" y="-205" type="curve"/>
      <point x="24" y="-165" type="line"/>
      <point x="49" y="-175"/>
      <point x="76" y="-180"/>
      <point x="102" y="-180" type="curve" smooth="yes"/>
      <point x="126" y="-180"/>
      <point x="163" y="-172"/>
      <point x="163" y="-138" type="curve" smooth="yes"/>
      <point x="163" y="-87"/>
      <point x="106" y="-94"/>
      <point x="69" y="-105" type="curve"/>
      <point x="48" y="-87" type="line"/>
      <point x="109" y="0" type="line"/>
      <point x="158" y="0" type="line"/>
      <point x="114" y="-61" type="line"/>
      <point x="143" y="-61" type="line" smooth="yes"/>
      <point x="188" y="-60"/>
      <point x="235" y="-83"/>
      <point x="235" y="-133" type="curve" smooth="yes"/>
      <point x="235" y="-204"/>
      <point x="167" y="-228"/>
      <point x="110" y="-228" type="curve" smooth="yes"/>
      <point x="74" y="-228"/>
      <point x="38" y="-221"/>
    </contour>
  </outline>
</glyph>
<glyph name="onesuperior" format="2">
  <advance width="361"/>
  <unicode hex="00B9"/>
  <outline>
    <contour>
      <point x="154" y="289" type="line"/>
      <point x="154" y="648" type="line"/>
      <point x="69" y="576" type="line"/>
      <point x="27" y="622" type="line"/>
      <point x="155" y="720" type="line"/>
      <point x="226" y="720" type="line"/>
      <point x="226" y="289" type="line"/>
    </contour>
  </outline>
</glyph>
<glyph name="ordmasculine" format="2">
  <advance width="386"/>
  <unicode hex="00BA"/>
  <outline>
    <contour>
      <point x="193" y="720" type="curve" smooth="yes"/>
      <point x="293" y="720"/>
      <point x="357" y="660"/>
      <point x="357" y="569" type="curve" smooth="yes"/>
      <point x="357" y="478"/>
      <point x="293" y="419"/>
      <point x="193" y="419" type="curve" smooth="yes"/>
      <point x="93" y="419"/>
      <point x="29" y="478"/>
      <point x="29" y="569" type="curve" smooth="yes"/>
      <point x="29" y="660"/>
      <point x="93" y="720"/>
    </contour>
    <contour>
      <point x="193" y="660" type="curve" smooth="yes"/>
      <point x="134" y="660"/>
      <point x="101" y="624"/>
      <point x="101" y="569" type="curve" smooth="yes"/>
      <point x="101" y="514"/>
      <point x="134" y="479"/>
      <point x="193" y="479" type="curve" smooth="yes"/>
      <point x="252" y="479"/>
      <point x="285" y="514"/>
      <point x="285" y="569" type="curve" smooth="yes"/>
      <point x="285" y="624"/>
      <point x="252" y="660"/>
    </contour>
  </outline>
</glyph>
<glyph name="guillemotright" format="2">
  <advance width="500"/>
  <unicode hex="00BB"/>
  <outline>
    <contour>
      <point x="307" y="459" type="line"/>
      <point x="453" y="243" type="line"/>
      <point x="308" y="27" type="line"/>
      <point x="246" y="68" type="line"/>
      <point x="363" y="243" type="line"/>
      <point x="245" y="418" type="line"/>
    </contour>
    <contour>
      <point x="109" y="459" type="line"/>
      <point x="255" y="243" type="line"/>
      <point x="110" y="27" type="line"/>
      <point x="48" y="68" type="line"/>
      <point x="165" y="243" type="line"/>
      <point x="47" y="418" type="line"/>
    </contour>
  </outline>
</glyph>
<glyph name="onequarter" format="2">
  <advance width="834"/>
  <unicode hex="00BC"/>
  <outline>
    <contour>
      <point x="673" y="0" type="line"/>
      <point x="673" y="94" type="line"/>
      <point x="477" y="94" type="line"/>
      <point x="477" y="152" type="line"/>
      <point x="660" y="431" type="line"/>
      <point x="739" y="431" type="line"/>
      <point x="739" y="160" type="line"/>
      <point x="801" y="160" type="line"/>
      <point x="801" y="94" type="line"/>
      <point x="739" y="94" type="line"/>
      <point x="739" y="0" type="line"/>
    </contour>
    <contour>
      <point x="667" y="160" type="line"/>
      <point x="667" y="347" type="line"/>
      <point x="665" y="347" type="line"/>
      <point x="549" y="160" type="line"/>
    </contour>
    <contour>
      <point x="152" y="0" type="line"/>
      <point x="591" y="740" type="line"/>
      <point x="651" y="708" type="line"/>
      <point x="212" y="-32" type="line"/>
    </contour>
    <contour>
      <point x="160" y="289" type="line"/>
      <point x="160" y="648" type="line"/>
      <point x="75" y="576" type="line"/>
      <point x="33" y="622" type="line"/>
      <point x="161" y="720" type="line"/>
      <point x="232" y="720" type="line"/>
      <point x="232" y="289" type="line"/>
    </contour>
  </outline>
</glyph>
<glyph name="onehalf" format="2">
  <advance width="834"/>
  <unicode hex="00BD"/>
  <outline>
    <contour>
      <point x="158" y="289" type="line"/>
      <point x="158" y="648" type="line"/>
      <point x="73" y="576" type="line"/>
      <point x="31" y="622" type="line"/>
      <point x="159" y="720" type="line"/>
      <point x="230" y="720" type="line"/>
      <point x="230" y="289" type="line"/>
    </contour>
    <contour>
      <point x="494" y="0" type="line"/>
      <point x="494" y="76" type="line"/>
      <point x="673" y="236" type="line" smooth="yes"/>
      <point x="693" y="254"/>
      <point x="718" y="278"/>
      <point x="718" y="309" type="curve" smooth="yes"/>
      <point x="718" y="344"/>
      <point x="689" y="365"/>
      <point x="653" y="365" type="curve" smooth="yes"/>
      <point x="615" y="365"/>
      <point x="588" y="342"/>
      <point x="585" y="306" type="curve"/>
      <point x="501" y="312" type="line"/>
      <point x="508" y="390"/>
      <point x="570" y="431"/>
      <point x="653" y="431" type="curve" smooth="yes"/>
      <point x="736" y="431"/>
      <point x="802" y="392"/>
      <point x="802" y="311" type="curve" smooth="yes"/>
      <point x="802" y="258"/>
      <point x="772" y="222"/>
      <point x="731" y="187" type="curve" smooth="yes"/>
      <point x="590" y="66" type="line"/>
      <point x="803" y="66" type="line"/>
      <point x="803" y="0" type="line"/>
    </contour>
    <contour>
      <point x="140" y="0" type="line"/>
      <point x="579" y="740" type="line"/>
      <point x="639" y="708" type="line"/>
      <point x="200" y="-32" type="line"/>
    </contour>
  </outline>
</glyph>
<glyph name="threequarters" format="2">
  <advance width="834"/>
  <unicode hex="00BE"/>
  <outline>
    <contour>
      <point x="693" y="0" type="line"/>
      <point x="693" y="94" type="line"/>
      <point x="497" y="94" type="line"/>
      <point x="497" y="152" type="line"/>
      <point x="680" y="431" type="line"/>
      <point x="759" y="431" type="line"/>
      <point x="759" y="160" type="line"/>
      <point x="821" y="160" type="line"/>
      <point x="821" y="94" type="line"/>
      <point x="759" y="94" type="line"/>
      <point x="759" y="0" type="line"/>
    </contour>
    <contour>
      <point x="693" y="160" type="line"/>
      <point x="693" y="347" type="line"/>
      <point x="691" y="347" type="line"/>
      <point x="575" y="160" type="line"/>
    </contour>
    <contour>
      <point x="192" y="0" type="line"/>
      <point x="631" y="740" type="line"/>
      <point x="691" y="708" type="line"/>
      <point x="252" y="-32" type="line"/>
    </contour>
    <contour>
      <point x="139" y="477" type="line"/>
      <point x="139" y="543" type="line"/>
      <point x="157" y="543" type="line" smooth="yes"/>
      <point x="202" y="543"/>
      <point x="247" y="549"/>
      <point x="247" y="600" type="curve" smooth="yes"/>
      <point x="247" y="632"/>
      <point x="220" y="654"/>
      <point x="182" y="654" type="curve" smooth="yes"/>
      <point x="150" y="654"/>
      <point x="124" y="638"/>
      <point x="113" y="609" type="curve"/>
      <point x="30" y="629" type="line"/>
      <point x="50" y="692"/>
      <point x="110" y="720"/>
      <point x="178" y="720" type="curve" smooth="yes"/>
      <point x="257" y="720"/>
      <point x="325" y="682"/>
      <point x="325" y="608" type="curve" smooth="yes"/>
      <point x="325" y="562"/>
      <point x="295" y="523"/>
      <point x="247" y="512" type="curve"/>
      <point x="247" y="510" type="line"/>
      <point x="305" y="503"/>
      <point x="336" y="459"/>
      <point x="336" y="407" type="curve" smooth="yes"/>
      <point x="336" y="327"/>
      <point x="263" y="283"/>
      <point x="181" y="283" type="curve" smooth="yes"/>
      <point x="105" y="283"/>
      <point x="43" y="312"/>
      <point x="23" y="382" type="curve"/>
      <point x="106" y="402" type="line"/>
      <point x="116" y="369"/>
      <point x="139" y="349"/>
      <point x="181" y="349" type="curve" smooth="yes"/>
      <point x="222" y="349"/>
      <point x="258" y="375"/>
      <point x="258" y="413" type="curve" smooth="yes"/>
      <point x="258" y="468"/>
      <point x="204" y="478"/>
      <point x="156" y="477" type="curve" smooth="yes"/>
    </contour>
  </outline>
</glyph>
<glyph name="questiondown" format="2">
  <advance width="500"/>
  <unicode hex="00BF"/>
  <outline>
    <contour>
      <point x="194" y="288" type="line"/>
      <point x="290" y="288" type="line"/>
      <point x="290" y="227" type="line" smooth="yes"/>
      <point x="290" y="154"/>
      <point x="271" y="139"/>
      <point x="219" y="89" type="curve" smooth="yes"/>
      <point x="177" y="48"/>
      <point x="128" y="10"/>
      <point x="128" y="-50" type="curve" smooth="yes"/>
      <point x="128" y="-111"/>
      <point x="175" y="-156"/>
      <point x="234" y="-156" type="curve" smooth="yes"/>
      <point x="299" y="-156"/>
      <point x="342" y="-110"/>
      <point x="350" y="-44" type="curve"/>
      <point x="452" y="-54" type="line"/>
      <point x="435" y="-170"/>
      <point x="349" y="-240"/>
      <point x="232" y="-240" type="curve" smooth="yes"/>
      <point x="120" y="-240"/>
      <point x="32" y="-173"/>
      <point x="32" y="-55" type="curve" smooth="yes"/>
      <point x="32" y="-4"/>
      <point x="48" y="39"/>
      <point x="74" y="65" type="curve" smooth="yes"/>
      <point x="144" y="136" type="line" smooth="yes"/>
      <point x="184" y="177"/>
      <point x="194" y="188"/>
      <point x="194" y="244" type="curve" smooth="yes"/>
    </contour>
    <contour>
      <point x="309" y="426" type="curve" smooth="yes"/>
      <point x="309" y="390"/>
      <point x="279" y="360"/>
      <point x="243" y="360" type="curve" smooth="yes"/>
      <point x="207" y="360"/>
      <point x="177" y="390"/>
      <point x="177" y="426" type="curve" smooth="yes"/>
      <point x="177" y="462"/>
      <point x="207" y="492"/>
      <point x="243" y="492" type="curve" smooth="yes"/>
      <point x="279" y="492"/>
      <point x="309" y="462"/>
    </contour>
  </outline>
</glyph>
<glyph name="Atilde" format="2">
  <advance width="704"/>
  <unicode hex="00C3"/>
  <outline>
    <contour>
      <point x="1" y="0" type="line"/>
      <point x="313" y="708" type="line"/>
      <point x="400" y="708" type="line"/>
      <point x="703" y="0" type="line"/>
      <point x="591" y="0" type="line"/>
      <point x="520" y="175" type="line"/>
      <point x="183" y="175" type="line"/>
      <point x="113" y="0" type="line"/>
    </contour>
    <contour>
      <point x="217" y="259" type="line"/>
      <point x="485" y="259" type="line"/>
      <point x="353" y="584" type="line"/>
      <point x="351" y="584" type="line"/>
    </contour>
    <contour>
      <point x="232" y="760" type="curve"/>
      <point x="184" y="760" type="line"/>
      <point x="193" y="812"/>
      <point x="226" y="864"/>
      <point x="285" y="864" type="curve" smooth="yes"/>
      <point x="315" y="864"/>
      <point x="342" y="852"/>
      <point x="369" y="841" type="curve" smooth="yes"/>
      <point x="389" y="833"/>
      <point x="402" y="824"/>
      <point x="423" y="824" type="curve" smooth="yes"/>
      <point x="450" y="824"/>
      <point x="465" y="844"/>
      <point x="472" y="868" type="curve"/>
      <point x="520" y="868" type="line"/>
      <point x="512" y="817"/>
      <point x="485" y="764"/>
      <point x="426" y="764" type="curve" smooth="yes"/>
      <point x="398" y="764"/>
      <point x="370" y="775"/>
      <point x="345" y="785" type="curve" smooth="yes"/>
      <point x="325" y="793"/>
      <point x="302" y="804"/>
      <point x="279" y="804" type="curve" smooth="yes"/>
      <point x="254" y="804"/>
      <point x="239" y="782"/>
    </contour>
  </outline>
</glyph>
<glyph name="Adieresis" format="2">
  <advance width="704"/>
  <unicode hex="00C4"/>
  <outline>
    <contour>
      <point x="1" y="0" type="line"/>
      <point x="313" y="708" type="line"/>
      <point x="400" y="708" type="line"/>
      <point x="703" y="0" type="line"/>
      <point x="591" y="0" type="line"/>
      <point x="520" y="175" type="line"/>
      <point x="183" y="175" type="line"/>
      <point x="113" y="0" type="line"/>
    </contour>
    <contour>
      <point x="217" y="259" type="line"/>
      <point x="485" y="259" type="line"/>
      <point x="353" y="584" type="line"/>
      <point x="351" y="584" type="line"/>
    </contour>
    <contour>
      <point x="250" y="898" type="curve" smooth="yes"/>
      <point x="281" y="898"/>
      <point x="312" y="874"/>
      <point x="312" y="841" type="curve" smooth="yes"/>
      <point x="312" y="805"/>
      <point x="286" y="778"/>
      <point x="250" y="778" type="curve" smooth="yes"/>
      <point x="214" y="778"/>
      <point x="188" y="805"/>
      <point x="188" y="841" type="curve" smooth="yes"/>
      <point x="188" y="874"/>
      <point x="219" y="898"/>
    </contour>
    <contour>
      <point x="454" y="898" type="curve" smooth="yes"/>
      <point x="485" y="898"/>
      <point x="516" y="874"/>
      <point x="516" y="841" type="curve" smooth="yes"/>
      <point x="516" y="805"/>
      <point x="490" y="778"/>
      <point x="454" y="778" type="curve" smooth="yes"/>
      <point x="418" y="778"/>
      <point x="392" y="805"/>
      <point x="392" y="841" type="curve" smooth="yes"/>
      <point x="392" y="874"/>
      <point x="423" y="898"/>
    </contour>
  </outline>
</glyph>
<glyph name="Aring" format="2">
  <advance width="704"/>
  <unicode hex="00C5"/>
  <outline>
    <contour>
      <point x="1" y="0" type="line"/>
      <point x="313" y="708" type="line"/>
      <point x="400" y="708" type="line"/>
      <point x="703" y="0" type="line"/>
      <point x="591" y="0" type="line"/>
      <point x="520" y="175" type="line"/>
      <point x="183" y="175" type="line"/>
      <point x="113" y="0" type="line"/>
    </contour>
    <contour>
      <point x="217" y="259" type="line"/>
      <point x="485" y="259" type="line"/>
      <point x="353" y="584" type="line"/>
      <point x="351" y="584" type="line"/>
    </contour>
    <contour>
      <point x="250" y="825" type="curve" smooth="yes"/>
      <point x="250" y="881"/>
      <point x="298" y="924"/>
      <point x="352" y="924" type="curve" smooth="yes"/>
      <point x="408" y="924"/>
      <point x="455" y="881"/>
      <point x="454" y="826" type="curve" smooth="yes"/>
      <point x="455" y="770"/>
      <point x="408" y="727"/>
      <point x="352" y="727" type="curve" smooth="yes"/>
      <point x="298" y="727"/>
      <point x="250" y="770"/>
    </contour>
    <contour>
      <point x="412" y="825" type="curve" smooth="yes"/>
      <point x="412" y="858"/>
      <point x="384" y="882"/>
      <point x="352" y="882" type="curve" smooth="yes"/>
      <point x="320" y="882"/>
      <point x="292" y="858"/>
      <point x="292" y="825" type="curve" smooth="yes"/>
      <point x="292" y="793"/>
      <point x="321" y="769"/>
      <point x="352" y="769" type="curve" smooth="yes"/>
      <point x="383" y="769"/>
      <point x="412" y="793"/>
    </contour>
  </outline>
</glyph>
<glyph name="AE" format="2">
  <advance width="963"/>
  <unicode hex="00C6"/>
  <outline>
    <contour>
      <point x="-8" y="0" type="line"/>
      <point x="450" y="708" type="line"/>
      <point x="906" y="708" type="line"/>
      <point x="906" y="618" type="line"/>
      <point x="611" y="618" type="line"/>
      <point x="611" y="407" type="line"/>
      <point x="888" y="407" type="line"/>
      <point x="888" y="317" type="line"/>
      <point x="611" y="317" type="line"/>
      <point x="611" y="90" type="line"/>
      <point x="918" y="90" type="line"/>
      <point x="918" y="0" type="line"/>
      <point x="515" y="0" type="line"/>
      <point x="515" y="172" type="line"/>
      <point x="211" y="172" type="line"/>
      <point x="110" y="0" type="line"/>
    </contour>
    <contour>
      <point x="263" y="262" type="line"/>
      <point x="515" y="262" type="line"/>
      <point x="515" y="618" type="line"/>
      <point x="496" y="618" type="line"/>
    </contour>
  </outline>
</glyph>
<glyph name="Ccedilla" format="2">
  <advance width="704"/>
  <unicode hex="00C7"/>
  <outline>
    <contour>
      <point x="664" y="616" type="curve"/>
      <point x="584" y="555" type="line"/>
      <point x="544" y="607"/>
      <point x="478" y="636"/>
      <point x="413" y="636" type="curve" smooth="yes"/>
      <point x="254" y="636"/>
      <point x="149" y="509"/>
      <point x="149" y="348" type="curve" smooth="yes"/>
      <point x="149" y="199"/>
      <point x="248" y="72"/>
      <point x="413" y="72" type="curve" smooth="yes"/>
      <point x="494" y="72"/>
      <point x="556" y="108"/>
      <point x="598" y="167" type="curve"/>
      <point x="679" y="106" type="line"/>
      <point x="658" y="77"/>
      <point x="573" y="-18"/>
      <point x="411" y="-18" type="curve" smooth="yes"/>
      <point x="407" y="-18"/>
      <point x="403" y="-18"/>
      <point x="398" y="-17" type="curve"/>
      <point x="366" y="-61" type="line"/>
      <point x="395" y="-61" type="line" smooth="yes"/>
      <point x="440" y="-60"/>
      <point x="487" y="-83"/>
      <point x="487" y="-133" type="curve" smooth="yes"/>
      <point x="487" y="-204"/>
      <point x="419" y="-228"/>
      <point x="362" y="-228" type="curve" smooth="yes"/>
      <point x="326" y="-228"/>
      <point x="290" y="-221"/>
      <point x="257" y="-205" type="curve"/>
      <point x="276" y="-165" type="line"/>
      <point x="301" y="-175"/>
      <point x="328" y="-180"/>
      <point x="354" y="-180" type="curve" smooth="yes"/>
      <point x="378" y="-180"/>
      <point x="415" y="-172"/>
      <point x="415" y="-138" type="curve" smooth="yes"/>
      <point x="415" y="-87"/>
      <point x="358" y="-94"/>
      <point x="321" y="-105" type="curve"/>
      <point x="300" y="-87" type="line"/>
      <point x="352" y="-13" type="line"/>
      <point x="162" y="16"/>
      <point x="47" y="186"/>
      <point x="47" y="348" type="curve" smooth="yes"/>
      <point x="47" y="568"/>
      <point x="198" y="726"/>
      <point x="416" y="726" type="curve" smooth="yes"/>
      <point x="509" y="726"/>
      <point x="607" y="691"/>
    </contour>
  </outline>
</glyph>
<glyph name="Ecircumflex" format="2">
  <advance width="611"/>
  <unicode hex="00CA"/>
  <outline>
    <contour>
      <point x="91" y="0" type="line"/>
      <point x="91" y="708" type="line"/>
      <point x="548" y="708" type="line"/>
      <point x="548" y="618" type="line"/>
      <point x="187" y="618" type="line"/>
      <point x="187" y="407" type="line"/>
      <point x="523" y="407" type="line"/>
      <point x="523" y="317" type="line"/>
      <point x="187" y="317" type="line"/>
      <point x="187" y="90" type="line"/>
      <point x="566" y="90" type="line"/>
      <point x="566" y="0" type="line"/>
    </contour>
    <contour>
      <point x="471" y="748" type="line"/>
      <point x="380" y="748" type="line"/>
      <point x="306" y="844" type="line"/>
      <point x="232" y="748" type="line"/>
      <point x="141" y="748" type="line"/>
      <point x="253" y="892" type="line"/>
      <point x="359" y="892" type="line"/>
    </contour>
  </outline>
</glyph>
<glyph name="Edieresis" format="2">
  <advance width="611"/>
  <unicode hex="00CB"/>
  <outline>
    <contour>
      <point x="91" y="0" type="line"/>
      <point x="91" y="708" type="line"/>
      <point x="548" y="708" type="line"/>
      <point x="548" y="618" type="line"/>
      <point x="187" y="618" type="line"/>
      <point x="187" y="407" type="line"/>
      <point x="523" y="407" type="line"/>
      <point x="523" y="317" type="line"/>
      <point x="187" y="317" type="line"/>
      <point x="187" y="90" type="line"/>
      <point x="566" y="90" type="line"/>
      <point x="566" y="0" type="line"/>
    </contour>
    <contour>
      <point x="204" y="898" type="curve" smooth="yes"/>
      <point x="235" y="898"/>
      <point x="266" y="874"/>
      <point x="266" y="841" type="curve" smooth="yes"/>
      <point x="266" y="805"/>
      <point x="240" y="778"/>
      <point x="204" y="778" type="curve" smooth="yes"/>
      <point x="168" y="778"/>
      <point x="142" y="805"/>
      <point x="142" y="841" type="curve" smooth="yes"/>
      <point x="142" y="874"/>
      <point x="173" y="898"/>
    </contour>
    <contour>
      <point x="408" y="898" type="curve" smooth="yes"/>
      <point x="439" y="898"/>
      <point x="470" y="874"/>
      <point x="470" y="841" type="curve" smooth="yes"/>
      <point x="470" y="805"/>
      <point x="444" y="778"/>
      <point x="408" y="778" type="curve" smooth="yes"/>
      <point x="372" y="778"/>
      <point x="346" y="805"/>
      <point x="346" y="841" type="curve" smooth="yes"/>
      <point x="346" y="874"/>
      <point x="377" y="898"/>
    </contour>
  </outline>
</glyph>
<glyph name="Igrave" format="2">
  <advance width="278"/>
  <unicode hex="00CC"/>
  <outline>
    <contour>
      <point x="91" y="0" type="line"/>
      <point x="91" y="708" type="line"/>
      <point x="187" y="708" type="line"/>
      <point x="187" y="0" type="line"/>
    </contour>
    <contour>
      <point x="101" y="892" type="line"/>
      <point x="205" y="748" type="line"/>
      <point x="122" y="748" type="line"/>
      <point x="-27" y="892" type="line"/>
    </contour>
  </outline>
</glyph>
<glyph name="Idieresis" format="2">
  <advance width="278"/>
  <unicode hex="00CF"/>
  <outline>
    <contour>
      <point x="91" y="0" type="line"/>
      <point x="91" y="708" type="line"/>
      <point x="187" y="708" type="line"/>
      <point x="187" y="0" type="line"/>
    </contour>
    <contour>
      <point x="37" y="898" type="curve" smooth="yes"/>
      <point x="68" y="898"/>
      <point x="99" y="874"/>
      <point x="99" y="841" type="curve" smooth="yes"/>
      <point x="99" y="805"/>
      <point x="73" y="778"/>
      <point x="37" y="778" type="curve" smooth="yes"/>
      <point x="1" y="778"/>
      <point x="-25" y="805"/>
      <point x="-25" y="841" type="curve" smooth="yes"/>
      <point x="-25" y="874"/>
      <point x="6" y="898"/>
    </contour>
    <contour>
      <point x="241" y="898" type="curve" smooth="yes"/>
      <point x="272" y="898"/>
      <point x="303" y="874"/>
      <point x="303" y="841" type="curve" smooth="yes"/>
      <point x="303" y="805"/>
      <point x="277" y="778"/>
      <point x="241" y="778" type="curve" smooth="yes"/>
      <point x="205" y="778"/>
      <point x="179" y="805"/>
      <point x="179" y="841" type="curve" smooth="yes"/>
      <point x="179" y="874"/>
      <point x="210" y="898"/>
    </contour>
  </outline>
</glyph>
<glyph name="Ntilde" format="2">
  <advance width="796"/>
  <unicode hex="00D1"/>
  <outline>
    <contour>
      <point x="91" y="0" type="line"/>
      <point x="91" y="708" type="line"/>
      <point x="217" y="708" type="line"/>
      <point x="607" y="126" type="line"/>
      <point x="609" y="126" type="line"/>
      <point x="609" y="708" type="line"/>
      <point x="705" y="708" type="line"/>
      <point x="705" y="0" type="line"/>
      <point x="583" y="0" type="line"/>
      <point x="189" y="582" type="line"/>
      <point x="187" y="582" type="line"/>
      <point x="187" y="0" type="line"/>
    </contour>
    <contour>
      <point x="278" y="760" type="curve"/>
      <point x="230" y="760" type="line"/>
      <point x="239" y="812"/>
      <point x="272" y="864"/>
      <point x="331" y="864" type="curve" smooth="yes"/>
      <point x="361" y="864"/>
      <point x="388" y="852"/>
      <point x="415" y="841" type="curve" smooth="yes"/>
      <point x="435" y="833"/>
      <point x="448" y="824"/>
      <point x="469" y="824" type="curve" smooth="yes"/>
      <point x="496" y="824"/>
      <point x="511" y="844"/>
      <point x="518" y="868" type="curve"/>
      <point x="566" y="868" type="line"/>
      <point x="558" y="817"/>
      <point x="531" y="764"/>
      <point x="472" y="764" type="curve" smooth="yes"/>
      <point x="444" y="764"/>
      <point x="416" y="775"/>
      <point x="391" y="785" type="curve" smooth="yes"/>
      <point x="371" y="793"/>
      <point x="348" y="804"/>
      <point x="325" y="804" type="curve" smooth="yes"/>
      <point x="300" y="804"/>
      <point x="285" y="782"/>
    </contour>
  </outline>
</glyph>
<glyph name="Ocircumflex" format="2">
  <advance width="832"/>
  <unicode hex="00D4"/>
  <outline>
    <contour>
      <point x="416" y="-18" type="curve" smooth="yes"/>
      <point x="200" y="-18"/>
      <point x="47" y="144"/>
      <point x="47" y="354" type="curve" smooth="yes"/>
      <point x="47" y="564"/>
      <point x="200" y="726"/>
      <point x="416" y="726" type="curve" smooth="yes"/>
      <point x="632" y="726"/>
      <point x="785" y="564"/>
      <point x="785" y="354" type="curve" smooth="yes"/>
      <point x="785" y="144"/>
      <point x="632" y="-18"/>
    </contour>
    <contour>
      <point x="416" y="72" type="curve" smooth="yes"/>
      <point x="578" y="72"/>
      <point x="683" y="199"/>
      <point x="683" y="354" type="curve" smooth="yes"/>
      <point x="683" y="509"/>
      <point x="578" y="636"/>
      <point x="416" y="636" type="curve" smooth="yes"/>
      <point x="254" y="636"/>
      <point x="149" y="509"/>
      <point x="149" y="354" type="curve" smooth="yes"/>
      <point x="149" y="199"/>
      <point x="254" y="72"/>
    </contour>
    <contour>
      <point x="581" y="748" type="line"/>
      <point x="490" y="748" type="line"/>
      <point x="416" y="844" type="line"/>
      <point x="342" y="748" type="line"/>
      <point x="251" y="748" type="line"/>
      <point x="363" y="892" type="line"/>
      <point x="469" y="892" type="line"/>
    </contour>
  </outline>
</glyph>
<glyph name="Otilde" format="2">
  <advance width="832"/>
  <unicode hex="00D5"/>
  <outline>
    <contour>
      <point x="416" y="-18" type="curve" smooth="yes"/>
      <point x="200" y="-18"/>
      <point x="47" y="144"/>
      <point x="47" y="354" type="curve" smooth="yes"/>
      <point x="47" y="564"/>
      <point x="200" y="726"/>
      <point x="416" y="726" type="curve" smooth="yes"/>
      <point x="632" y="726"/>
      <point x="785" y="564"/>
      <point x="785" y="354" type="curve" smooth="yes"/>
      <point x="785" y="144"/>
      <point x="632" y="-18"/>
    </contour>
    <contour>
      <point x="416" y="72" type="curve" smooth="yes"/>
      <point x="578" y="72"/>
      <point x="683" y="199"/>
      <point x="683" y="354" type="curve" smooth="yes"/>
      <point x="683" y="509"/>
      <point x="578" y="636"/>
      <point x="416" y="636" type="curve" smooth="yes"/>
      <point x="254" y="636"/>
      <point x="149" y="509"/>
      <point x="149" y="354" type="curve" smooth="yes"/>
      <point x="149" y="199"/>
      <point x="254" y="72"/>
    </contour>
    <contour>
      <point x="296" y="760" type="curve"/>
      <point x="248" y="760" type="line"/>
      <point x="257" y="812"/>
      <point x="290" y="864"/>
      <point x="349" y="864" type="curve" smooth="yes"/>
      <point x="379" y="864"/>
      <point x="406" y="852"/>
      <point x="433" y="841" type="curve" smooth="yes"/>
      <point x="453" y="833"/>
      <point x="466" y="824"/>
      <point x="487" y="824" type="curve" smooth="yes"/>
      <point x="514" y="824"/>
      <point x="529" y="844"/>
      <point x="536" y="868" type="curve"/>
      <point x="584" y="868" type="line"/>
      <point x="576" y="817"/>
      <point x="549" y="764"/>
      <point x="490" y="764" type="curve" smooth="yes"/>
      <point x="462" y="764"/>
      <point x="434" y="775"/>
      <point x="409" y="785" type="curve" smooth="yes"/>
      <point x="389" y="793"/>
      <point x="366" y="804"/>
      <point x="343" y="804" type="curve" smooth="yes"/>
      <point x="318" y="804"/>
      <point x="303" y="782"/>
    </contour>
  </outline>
</glyph>
<glyph name="Odieresis" format="2">
  <advance width="832"/>
  <unicode hex="00D6"/>
  <outline>
    <contour>
      <point x="416" y="-18" type="curve" smooth="yes"/>
      <point x="200" y="-18"/>
      <point x="47" y="144"/>
      <point x="47" y="354" type="curve" smooth="yes"/>
      <point x="47" y="564"/>
      <point x="200" y="726"/>
      <point x="416" y="726" type="curve" smooth="yes"/>
      <point x="632" y="726"/>
      <point x="785" y="564"/>
      <point x="785" y="354" type="curve" smooth="yes"/>
      <point x="785" y="144"/>
      <point x="632" y="-18"/>
    </contour>
    <contour>
      <point x="416" y="72" type="curve" smooth="yes"/>
      <point x="578" y="72"/>
      <point x="683" y="199"/>
      <point x="683" y="354" type="curve" smooth="yes"/>
      <point x="683" y="509"/>
      <point x="578" y="636"/>
      <point x="416" y="636" type="curve" smooth="yes"/>
      <point x="254" y="636"/>
      <point x="149" y="509"/>
      <point x="149" y="354" type="curve" smooth="yes"/>
      <point x="149" y="199"/>
      <point x="254" y="72"/>
    </contour>
    <contour>
      <point x="314" y="898" type="curve" smooth="yes"/>
      <point x="345" y="898"/>
      <point x="376" y="874"/>
      <point x="376" y="841" type="curve" smooth="yes"/>
      <point x="376" y="805"/>
      <point x="350" y="778"/>
      <point x="314" y="778" type="curve" smooth="yes"/>
      <point x="278" y="778"/>
      <point x="252" y="805"/>
      <point x="252" y="841" type="curve" smooth="yes"/>
      <point x="252" y="874"/>
      <point x="283" y="898"/>
    </contour>
    <contour>
      <point x="518" y="898" type="curve" smooth="yes"/>
      <point x="549" y="898"/>
      <point x="580" y="874"/>
      <point x="580" y="841" type="curve" smooth="yes"/>
      <point x="580" y="805"/>
      <point x="554" y="778"/>
      <point x="518" y="778" type="curve" smooth="yes"/>
      <point x="482" y="778"/>
      <point x="456" y="805"/>
      <point x="456" y="841" type="curve" smooth="yes"/>
      <point x="456" y="874"/>
      <point x="487" y="898"/>
    </contour>
  </outline>
</glyph>
<glyph name="multiply" format="2">
  <advance width="666"/>
  <unicode hex="00D7"/>
  <outline>
    <contour>
      <point x="68" y="92" type="line"/>
      <point x="278" y="303" type="line"/>
      <point x="66" y="515" type="line"/>
      <point x="121" y="570" type="line"/>
      <point x="333" y="358" type="line"/>
      <point x="546" y="570" type="line"/>
      <point x="600" y="515" type="line"/>
      <point x="388" y="303" type="line"/>
      <point x="600" y="91" type="line"/>
      <point x="544" y="36" type="line"/>
      <point x="333" y="248" type="line"/>
      <point x="122" y="36" type="line"/>
    </contour>
  </outline>
</glyph>
<glyph name="Oslash" format="2">
  <advance width="832"/>
  <unicode hex="00D8"/>
  <outline>
    <contour>
      <point x="621" y="540" type="curve"/>
      <point x="246" y="131" type="line"/>
      <point x="291" y="94"/>
      <point x="349" y="72"/>
      <point x="416" y="72" type="curve" smooth="yes"/>
      <point x="578" y="72"/>
      <point x="683" y="199"/>
      <point x="683" y="354" type="curve" smooth="yes"/>
      <point x="683" y="425"/>
      <point x="661" y="490"/>
    </contour>
    <contour>
      <point x="207" y="173" type="curve"/>
      <point x="581" y="580" type="line"/>
      <point x="537" y="615"/>
      <point x="481" y="636"/>
      <point x="416" y="636" type="curve" smooth="yes"/>
      <point x="254" y="636"/>
      <point x="149" y="509"/>
      <point x="149" y="354" type="curve" smooth="yes"/>
      <point x="149" y="285"/>
      <point x="170" y="222"/>
    </contour>
    <contour>
      <point x="98" y="-30" type="line"/>
      <point x="55" y="8" type="line"/>
      <point x="140" y="101" type="line"/>
      <point x="81" y="167"/>
      <point x="47" y="255"/>
      <point x="47" y="354" type="curve" smooth="yes"/>
      <point x="47" y="564"/>
      <point x="200" y="726"/>
      <point x="416" y="726" type="curve" smooth="yes"/>
      <point x="505" y="726"/>
      <point x="584" y="698"/>
      <point x="646" y="650" type="curve"/>
      <point x="729" y="740" type="line"/>
      <point x="771" y="702" type="line"/>
      <point x="688" y="612" type="line"/>
      <point x="749" y="547"/>
      <point x="785" y="456"/>
      <point x="785" y="354" type="curve" smooth="yes"/>
      <point x="785" y="144"/>
      <point x="632" y="-18"/>
      <point x="416" y="-18" type="curve" smooth="yes"/>
      <point x="324" y="-18"/>
      <point x="244" y="11"/>
      <point x="182" y="61" type="curve"/>
    </contour>
  </outline>
</glyph>
<glyph name="Ucircumflex" format="2">
  <advance width="704"/>
  <unicode hex="00DB"/>
  <outline>
    <contour>
      <point x="78" y="708" type="line"/>
      <point x="174" y="708" type="line"/>
      <point x="174" y="274" type="line" smooth="yes"/>
      <point x="174" y="186"/>
      <point x="218" y="72"/>
      <point x="352" y="72" type="curve" smooth="yes"/>
      <point x="486" y="72"/>
      <point x="530" y="186"/>
      <point x="530" y="274" type="curve" smooth="yes"/>
      <point x="530" y="708" type="line"/>
      <point x="626" y="708" type="line"/>
      <point x="626" y="259" type="line" smooth="yes"/>
      <point x="626" y="95"/>
      <point x="507" y="-18"/>
      <point x="352" y="-18" type="curve" smooth="yes"/>
      <point x="197" y="-18"/>
      <point x="78" y="95"/>
      <point x="78" y="259" type="curve" smooth="yes"/>
    </contour>
    <contour>
      <point x="517" y="748" type="line"/>
      <point x="426" y="748" type="line"/>
      <point x="352" y="844" type="line"/>
      <point x="278" y="748" type="line"/>
      <point x="187" y="748" type="line"/>
      <point x="299" y="892" type="line"/>
      <point x="405" y="892" type="line"/>
    </contour>
  </outline>
</glyph>
<glyph name="Udieresis" format="2">
  <advance width="704"/>
  <unicode hex="00DC"/>
  <outline>
    <contour>
      <point x="78" y="708" type="line"/>
      <point x="174" y="708" type="line"/>
      <point x="174" y="274" type="line" smooth="yes"/>
      <point x="174" y="186"/>
      <point x="218" y="72"/>
      <point x="352" y="72" type="curve" smooth="yes"/>
      <point x="486" y="72"/>
      <point x="530" y="186"/>
      <point x="530" y="274" type="curve" smooth="yes"/>
      <point x="530" y="708" type="line"/>
      <point x="626" y="708" type="line"/>
      <point x="626" y="259" type="line" smooth="yes"/>
      <point x="626" y="95"/>
      <point x="507" y="-18"/>
      <point x="352" y="-18" type="curve" smooth="yes"/>
      <point x="197" y="-18"/>
      <point x="78" y="95"/>
      <point x="78" y="259" type="curve" smooth="yes"/>
    </contour>
    <contour>
      <point x="250" y="898" type="curve" smooth="yes"/>
      <point x="281" y="898"/>
      <point x="312" y="874"/>
      <point x="312" y="841" type="curve" smooth="yes"/>
      <point x="312" y="805"/>
      <point x="286" y="778"/>
      <point x="250" y="778" type="curve" smooth="yes"/>
      <point x="214" y="778"/>
      <point x="188" y="805"/>
      <point x="188" y="841" type="curve" smooth="yes"/>
      <point x="188" y="874"/>
      <point x="219" y="898"/>
    </contour>
    <contour>
      <point x="454" y="898" type="curve" smooth="yes"/>
      <point x="485" y="898"/>
      <point x="516" y="874"/>
      <point x="516" y="841" type="curve" smooth="yes"/>
      <point x="516" y="805"/>
      <point x="490" y="778"/>
      <point x="454" y="778" type="curve" smooth="yes"/>
      <point x="418" y="778"/>
      <point x="392" y="805"/>
      <point x="392" y="841" type="curve" smooth="yes"/>
      <point x="392" y="874"/>
      <point x="423" y="898"/>
    </contour>
  </outline>
</glyph>
<glyph name="Yacute" format="2">
  <advance width="612"/>
  <unicode hex="00DD"/>
  <outline>
    <contour>
      <point x="258" y="0" type="line"/>
      <point x="258" y="302" type="line"/>
      <point x="-10" y="708" type="line"/>
      <point x="113" y="708" type="line"/>
      <point x="306" y="397" type="line"/>
      <point x="505" y="708" type="line"/>
      <point x="622" y="708" type="line"/>
      <point x="354" y="302" type="line"/>
      <point x="354" y="0" type="line"/>
    </contour>
    <contour>
      <point x="240" y="748" type="line"/>
      <point x="344" y="892" type="line"/>
      <point x="472" y="892" type="line"/>
      <point x="323" y="748" type="line"/>
    </contour>
  </outline>
</glyph>
<glyph name="Thorn" format="2">
  <advance width="593"/>
  <unicode hex="00DE"/>
  <outline>
    <contour>
      <point x="91" y="0" type="line"/>
      <point x="91" y="708" type="line"/>
      <point x="187" y="708" type="line"/>
      <point x="187" y="563" type="line"/>
      <point x="340" y="563" type="line" smooth="yes"/>
      <point x="521" y="563"/>
      <point x="567" y="454"/>
      <point x="567" y="365" type="curve" smooth="yes"/>
      <point x="567" y="276"/>
      <point x="521" y="167"/>
      <point x="340" y="167" type="curve" smooth="yes"/>
      <point x="187" y="167" type="line"/>
      <point x="187" y="0" type="line"/>
    </contour>
    <contour>
      <point x="187" y="479" type="line"/>
      <point x="187" y="251" type="line"/>
      <point x="313" y="251" type="line" smooth="yes"/>
      <point x="389" y="251"/>
      <point x="465" y="269"/>
      <point x="465" y="365" type="curve" smooth="yes"/>
      <point x="465" y="461"/>
      <point x="389" y="479"/>
      <point x="313" y="479" type="curve" smooth="yes"/>
    </contour>
  </outline>
</glyph>
<glyph name="germandbls" format="2">
  <advance width="611"/>
  <unicode hex="00DF"/>
  <outline>
    <contour>
      <point x="68" y="0" type="line"/>
      <point x="68" y="509" type="line" smooth="yes"/>
      <point x="68" y="650"/>
      <point x="106" y="768"/>
      <point x="293" y="768" type="curve" smooth="yes"/>
      <point x="404" y="768"/>
      <point x="496" y="705"/>
      <point x="496" y="587" type="curve" smooth="yes"/>
      <point x="496" y="505"/>
      <point x="453" y="452"/>
      <point x="385" y="432" type="curve"/>
      <point x="385" y="430" type="line"/>
      <point x="464" y="418"/>
      <point x="555" y="355"/>
      <point x="555" y="220" type="curve" smooth="yes"/>
      <point x="555" y="77"/>
      <point x="453" y="-12"/>
      <point x="313" y="-12" type="curve" smooth="yes"/>
      <point x="289" y="-12"/>
      <point x="265" y="-9"/>
      <point x="242" y="-3" type="curve"/>
      <point x="242" y="78" type="line"/>
      <point x="259" y="74"/>
      <point x="277" y="72"/>
      <point x="295" y="72" type="curve" smooth="yes"/>
      <point x="393" y="72"/>
      <point x="459" y="129"/>
      <point x="459" y="228" type="curve" smooth="yes"/>
      <point x="459" y="334"/>
      <point x="383" y="383"/>
      <point x="285" y="383" type="curve" smooth="yes"/>
      <point x="271" y="383" type="line"/>
      <point x="271" y="467" type="line"/>
      <point x="287" y="467" type="line" smooth="yes"/>
      <point x="355" y="467"/>
      <point x="400" y="509"/>
      <point x="400" y="576" type="curve" smooth="yes"/>
      <point x="400" y="657"/>
      <point x="341" y="684"/>
      <point x="288" y="684" type="curve" smooth="yes"/>
      <point x="188" y="684"/>
      <point x="158" y="614"/>
      <point x="158" y="520" type="curve" smooth="yes"/>
      <point x="158" y="0" type="line"/>
    </contour>
  </outline>
</glyph>
<glyph name="atilde" format="2">
  <advance width="519"/>
  <unicode hex="00E3"/>
  <outline>
    <contour>
      <point x="124" y="360" type="curve"/>
      <point x="70" y="416" type="line"/>
      <point x="120" y="463"/>
      <point x="192" y="486"/>
      <point x="258" y="486" type="curve" smooth="yes"/>
      <point x="398" y="486"/>
      <point x="456" y="410"/>
      <point x="456" y="328" type="curve" smooth="yes"/>
      <point x="456" y="86" type="line" smooth="yes"/>
      <point x="456" y="53"/>
      <point x="457" y="25"/>
      <point x="460" y="0" type="curve"/>
      <point x="380" y="0" type="line"/>
      <point x="378" y="24"/>
      <point x="377" y="48"/>
      <point x="377" y="72" type="curve"/>
      <point x="375" y="72" type="line"/>
      <point x="335" y="11"/>
      <point x="281" y="-12"/>
      <point x="209" y="-12" type="curve" smooth="yes"/>
      <point x="121" y="-12"/>
      <point x="45" y="38"/>
      <point x="45" y="130" type="curve" smooth="yes"/>
      <point x="45" y="252"/>
      <point x="162" y="294"/>
      <point x="306" y="294" type="curve" smooth="yes"/>
      <point x="372" y="294" type="line"/>
      <point x="372" y="314" type="line" smooth="yes"/>
      <point x="372" y="363"/>
      <point x="336" y="414"/>
      <point x="259" y="414" type="curve" smooth="yes"/>
      <point x="190" y="414"/>
      <point x="157" y="385"/>
    </contour>
    <contour>
      <point x="372" y="228" type="line"/>
      <point x="324" y="228" type="line" smooth="yes"/>
      <point x="239" y="228"/>
      <point x="135" y="213"/>
      <point x="135" y="137" type="curve" smooth="yes"/>
      <point x="135" y="83"/>
      <point x="175" y="60"/>
      <point x="237" y="60" type="curve" smooth="yes"/>
      <point x="337" y="60"/>
      <point x="372" y="134"/>
      <point x="372" y="198" type="curve" smooth="yes"/>
    </contour>
    <contour>
      <point x="140" y="576" type="curve"/>
      <point x="92" y="576" type="line"/>
      <point x="101" y="628"/>
      <point x="134" y="680"/>
      <point x="193" y="680" type="curve" smooth="yes"/>
      <point x="223" y="680"/>
      <point x="250" y="668"/>
      <point x="277" y="657" type="curve" smooth="yes"/>
      <point x="297" y="649"/>
      <point x="310" y="640"/>
      <point x="331" y="640" type="curve" smooth="yes"/>
      <point x="358" y="640"/>
      <point x="373" y="660"/>
      <point x="380" y="684" type="curve"/>
      <point x="428" y="684" type="line"/>
      <point x="420" y="633"/>
      <point x="393" y="580"/>
      <point x="334" y="580" type="curve" smooth="yes"/>
      <point x="306" y="580"/>
      <point x="278" y="591"/>
      <point x="253" y="601" type="curve" smooth="yes"/>
      <point x="233" y="609"/>
      <point x="210" y="620"/>
      <point x="187" y="620" type="curve" smooth="yes"/>
      <point x="162" y="620"/>
      <point x="147" y="598"/>
    </contour>
  </outline>
</glyph>
<glyph name="aring" format="2">
  <advance width="519"/>
  <unicode hex="00E5"/>
  <outline>
    <contour>
      <point x="124" y="360" type="curve"/>
      <point x="70" y="416" type="line"/>
      <point x="120" y="463"/>
      <point x="192" y="486"/>
      <point x="258" y="486" type="curve" smooth="yes"/>
      <point x="398" y="486"/>
      <point x="456" y="410"/>
      <point x="456" y="328" type="curve" smooth="yes"/>
      <point x="456" y="86" type="line" smooth="yes"/>
      <point x="456" y="53"/>
      <point x="457" y="25"/>
      <point x="460" y="0" type="curve"/>
      <point x="380" y="0" type="line"/>
      <point x="378" y="24"/>
      <point x="377" y="48"/>
      <point x="377" y="72" type="curve"/>
      <point x="375" y="72" type="line"/>
      <point x="335" y="11"/>
      <point x="281" y="-12"/>
      <point x="209" y="-12" type="curve" smooth="yes"/>
      <point x="121" y="-12"/>
      <point x="45" y="38"/>
      <point x="45" y="130" type="curve" smooth="yes"/>
      <point x="45" y="252"/>
      <point x="162" y="294"/>
      <point x="306" y="294" type="curve" smooth="yes"/>
      <point x="372" y="294" type="line"/>
      <point x="372" y="314" type="line" smooth="yes"/>
      <point x="372" y="363"/>
      <point x="336" y="414"/>
      <point x="259" y="414" type="curve" smooth="yes"/>
      <point x="190" y="414"/>
      <point x="157" y="385"/>
    </contour>
    <contour>
      <point x="372" y="228" type="line"/>
      <point x="324" y="228" type="line" smooth="yes"/>
      <point x="239" y="228"/>
      <point x="135" y="213"/>
      <point x="135" y="137" type="curve" smooth="yes"/>
      <point x="135" y="83"/>
      <point x="175" y="60"/>
      <point x="237" y="60" type="curve" smooth="yes"/>
      <point x="337" y="60"/>
      <point x="372" y="134"/>
      <point x="372" y="198" type="curve" smooth="yes"/>
    </contour>
    <contour>
      <point x="158" y="651" type="curve" smooth="yes"/>
      <point x="158" y="707"/>
      <point x="206" y="750"/>
      <point x="260" y="750" type="curve" smooth="yes"/>
      <point x="316" y="750"/>
      <point x="363" y="707"/>
      <point x="362" y="652" type="curve" smooth="yes"/>
      <point x="363" y="596"/>
      <point x="316" y="553"/>
      <point x="260" y="553" type="curve" smooth="yes"/>
      <point x="206" y="553"/>
      <point x="158" y="596"/>
    </contour>
    <contour>
      <point x="320" y="651" type="curve" smooth="yes"/>
      <point x="320" y="684"/>
      <point x="292" y="708"/>
      <point x="260" y="708" type="curve" smooth="yes"/>
      <point x="228" y="708"/>
      <point x="200" y="684"/>
      <point x="200" y="651" type="curve" smooth="yes"/>
      <point x="200" y="619"/>
      <point x="229" y="595"/>
      <point x="260" y="595" type="curve" smooth="yes"/>
      <point x="291" y="595"/>
      <point x="320" y="619"/>
    </contour>
  </outline>
</glyph>
<glyph name="ae" format="2">
  <advance width="852"/>
  <unicode hex="00E6"/>
  <outline>
    <contour>
      <point x="813" y="246" type="curve" smooth="yes"/>
      <point x="813" y="204" type="line"/>
      <point x="460" y="204" type="line"/>
      <point x="460" y="128"/>
      <point x="512" y="60"/>
      <point x="603" y="60" type="curve" smooth="yes"/>
      <point x="660" y="60"/>
      <point x="702" y="92"/>
      <point x="726" y="135" type="curve"/>
      <point x="799" y="80" type="line"/>
      <point x="744" y="16"/>
      <point x="687" y="-18"/>
      <point x="601" y="-18" type="curve" smooth="yes"/>
      <point x="525" y="-18"/>
      <point x="458" y="8"/>
      <point x="416" y="79" type="curve"/>
      <point x="372" y="19"/>
      <point x="310" y="-18"/>
      <point x="222" y="-18" type="curve" smooth="yes"/>
      <point x="94" y="-18"/>
      <point x="39" y="60"/>
      <point x="39" y="135" type="curve" smooth="yes"/>
      <point x="39" y="247"/>
      <point x="142" y="276"/>
      <point x="236" y="276" type="curve" smooth="yes"/>
      <point x="376" y="276" type="line"/>
      <point x="376" y="291" type="line" smooth="yes"/>
      <point x="376" y="359"/>
      <point x="335" y="414"/>
      <point x="257" y="414" type="curve" smooth="yes"/>
      <point x="202" y="414"/>
      <point x="165" y="394"/>
      <point x="123" y="360" type="curve"/>
      <point x="67" y="417" type="line"/>
      <point x="117" y="462"/>
      <point x="189" y="486"/>
      <point x="256" y="486" type="curve" smooth="yes"/>
      <point x="321" y="486"/>
      <point x="389" y="466"/>
      <point x="426" y="410" type="curve"/>
      <point x="457" y="445"/>
      <point x="505" y="486"/>
      <point x="592" y="486" type="curve" smooth="yes"/>
      <point x="773" y="486"/>
      <point x="813" y="327"/>
    </contour>
    <contour>
      <point x="376" y="204" type="line"/>
      <point x="234" y="204" type="line" smooth="yes"/>
      <point x="165" y="204"/>
      <point x="135" y="182"/>
      <point x="135" y="135" type="curve" smooth="yes"/>
      <point x="135" y="89"/>
      <point x="180" y="54"/>
      <point x="234" y="54" type="curve" smooth="yes"/>
      <point x="308" y="54"/>
      <point x="376" y="105"/>
      <point x="376" y="190" type="curve" smooth="yes"/>
    </contour>
    <contour>
      <point x="460" y="276" type="curve"/>
      <point x="717" y="276" type="line"/>
      <point x="715" y="349"/>
      <point x="682" y="408"/>
      <point x="591" y="408" type="curve" smooth="yes"/>
      <point x="507" y="408"/>
      <point x="460" y="349"/>
    </contour>
  </outline>
</glyph>
<glyph name="ccedilla" format="2">
  <advance width="482"/>
  <unicode hex="00E7"/>
  <outline>
    <contour>
      <point x="475" y="410" type="curve"/>
      <point x="407" y="348" type="line"/>
      <point x="374" y="383"/>
      <point x="339" y="401"/>
      <point x="289" y="401" type="curve" smooth="yes"/>
      <point x="191" y="401"/>
      <point x="141" y="322"/>
      <point x="141" y="233" type="curve" smooth="yes"/>
      <point x="141" y="144"/>
      <point x="201" y="72"/>
      <point x="294" y="72" type="curve" smooth="yes"/>
      <point x="344" y="72"/>
      <point x="379" y="90"/>
      <point x="409" y="125" type="curve"/>
      <point x="473" y="61" type="line"/>
      <point x="428" y="11"/>
      <point x="367" y="-10"/>
      <point x="301" y="-11" type="curve"/>
      <point x="265" y="-61" type="line"/>
      <point x="294" y="-61" type="line" smooth="yes"/>
      <point x="339" y="-60"/>
      <point x="386" y="-83"/>
      <point x="386" y="-133" type="curve" smooth="yes"/>
      <point x="386" y="-204"/>
      <point x="318" y="-228"/>
      <point x="261" y="-228" type="curve" smooth="yes"/>
      <point x="225" y="-228"/>
      <point x="189" y="-221"/>
      <point x="156" y="-205" type="curve"/>
      <point x="175" y="-165" type="line"/>
      <point x="200" y="-175"/>
      <point x="227" y="-180"/>
      <point x="253" y="-180" type="curve" smooth="yes"/>
      <point x="277" y="-180"/>
      <point x="314" y="-172"/>
      <point x="314" y="-138" type="curve" smooth="yes"/>
      <point x="314" y="-87"/>
      <point x="257" y="-94"/>
      <point x="220" y="-105" type="curve"/>
      <point x="199" y="-87" type="line"/>
      <point x="254" y="-8" type="line"/>
      <point x="129" y="7"/>
      <point x="45" y="102"/>
      <point x="45" y="235" type="curve" smooth="yes"/>
      <point x="45" y="381"/>
      <point x="145" y="485"/>
      <point x="293" y="485" type="curve" smooth="yes"/>
      <point x="362" y="485"/>
      <point x="428" y="461"/>
    </contour>
  </outline>
</glyph>
<glyph name="eacute" format="2">
  <advance width="556"/>
  <unicode hex="00E9"/>
  <outline>
    <contour>
      <point x="516" y="204" type="line"/>
      <point x="136" y="204" type="line"/>
      <point x="136" y="121"/>
      <point x="213" y="66"/>
      <point x="296" y="66" type="curve" smooth="yes"/>
      <point x="351" y="66"/>
      <point x="391" y="94"/>
      <point x="426" y="137" type="curve"/>
      <point x="494" y="85" type="line"/>
      <point x="444" y="20"/>
      <point x="375" y="-12"/>
      <point x="284" y="-12" type="curve" smooth="yes"/>
      <point x="134" y="-12"/>
      <point x="40" y="96"/>
      <point x="40" y="237" type="curve" smooth="yes"/>
      <point x="40" y="379"/>
      <point x="143" y="486"/>
      <point x="285" y="486" type="curve" smooth="yes"/>
      <point x="452" y="486"/>
      <point x="516" y="358"/>
      <point x="516" y="236" type="curve" smooth="yes"/>
    </contour>
    <contour>
      <point x="136" y="276" type="curve"/>
      <point x="420" y="276" type="line"/>
      <point x="418" y="355"/>
      <point x="374" y="414"/>
      <point x="283" y="414" type="curve" smooth="yes"/>
      <point x="194" y="414"/>
      <point x="136" y="339"/>
    </contour>
    <contour>
      <point x="212" y="564" type="line"/>
      <point x="316" y="708" type="line"/>
      <point x="444" y="708" type="line"/>
      <point x="295" y="564" type="line"/>
    </contour>
  </outline>
</glyph>
<glyph name="igrave" format="2">
  <advance width="240"/>
  <unicode hex="00EC"/>
  <outline>
    <contour>
      <point x="75" y="0" type="line"/>
      <point x="75" y="474" type="line"/>
      <point x="165" y="474" type="line"/>
      <point x="165" y="0" type="line"/>
    </contour>
    <contour>
      <point x="82" y="708" type="line"/>
      <point x="186" y="564" type="line"/>
      <point x="103" y="564" type="line"/>
      <point x="-46" y="708" type="line"/>
    </contour>
  </outline>
</glyph>
<glyph name="icircumflex" format="2">
  <advance width="240"/>
  <unicode hex="00EE"/>
  <outline>
    <contour>
      <point x="75" y="0" type="line"/>
      <point x="75" y="474" type="line"/>
      <point x="165" y="474" type="line"/>
      <point x="165" y="0" type="line"/>
    </contour>
    <contour>
      <point x="285" y="564" type="line"/>
      <point x="194" y="564" type="line"/>
      <point x="120" y="660" type="line"/>
      <point x="46" y="564" type="line"/>
      <point x="-45" y="564" type="line"/>
      <point x="67" y="708" type="line"/>
      <point x="173" y="708" type="line"/>
    </contour>
  </outline>
</glyph>
<glyph name="idieresis" format="2">
  <advance width="240"/>
  <unicode hex="00EF"/>
  <outline>
    <contour>
      <point x="75" y="0" type="line"/>
      <point x="75" y="474" type="line"/>
      <point x="165" y="474" type="line"/>
      <point x="165" y="0" type="line"/>
    </contour>
    <contour>
      <point x="18" y="714" type="curve" smooth="yes"/>
      <point x="49" y="714"/>
      <point x="80" y="690"/>
      <point x="80" y="657" type="curve" smooth="yes"/>
      <point x="80" y="621"/>
      <point x="54" y="594"/>
      <point x="18" y="594" type="curve" smooth="yes"/>
      <point x="-18" y="594"/>
      <point x="-44" y="621"/>
      <point x="-44" y="657" type="curve" smooth="yes"/>
      <point x="-44" y="690"/>
      <point x="-13" y="714"/>
    </contour>
    <contour>
      <point x="222" y="714" type="curve" smooth="yes"/>
      <point x="253" y="714"/>
      <point x="284" y="690"/>
      <point x="284" y="657" type="curve" smooth="yes"/>
      <point x="284" y="621"/>
      <point x="258" y="594"/>
      <point x="222" y="594" type="curve" smooth="yes"/>
      <point x="186" y="594"/>
      <point x="160" y="621"/>
      <point x="160" y="657" type="curve" smooth="yes"/>
      <point x="160" y="690"/>
      <point x="191" y="714"/>
    </contour>
  </outline>
</glyph>
<glyph name="eth" format="2">
  <advance width="594"/>
  <unicode hex="00F0"/>
  <outline>
    <contour>
      <point x="423" y="756" type="line"/>
      <point x="475" y="712" type="line"/>
      <point x="363" y="657" type="line"/>
      <point x="466" y="547"/>
      <point x="549" y="425"/>
      <point x="549" y="269" type="curve" smooth="yes"/>
      <point x="549" y="100"/>
      <point x="456" y="-12"/>
      <point x="297" y="-12" type="curve" smooth="yes"/>
      <point x="156" y="-12"/>
      <point x="45" y="99"/>
      <point x="45" y="237" type="curve" smooth="yes"/>
      <point x="45" y="375"/>
      <point x="156" y="486"/>
      <point x="297" y="486" type="curve" smooth="yes"/>
      <point x="341" y="486"/>
      <point x="390" y="473"/>
      <point x="422" y="436" type="curve"/>
      <point x="424" y="438" type="line"/>
      <point x="387" y="504"/>
      <point x="335" y="564"/>
      <point x="280" y="618" type="curve"/>
      <point x="173" y="566" type="line"/>
      <point x="126" y="612" type="line"/>
      <point x="232" y="665" type="line"/>
      <point x="147" y="736" type="line"/>
      <point x="226" y="782" type="line"/>
      <point x="315" y="704" type="line"/>
    </contour>
    <contour>
      <point x="141" y="237" type="curve" smooth="yes"/>
      <point x="141" y="141"/>
      <point x="201" y="72"/>
      <point x="297" y="72" type="curve" smooth="yes"/>
      <point x="393" y="72"/>
      <point x="453" y="141"/>
      <point x="453" y="237" type="curve" smooth="yes"/>
      <point x="453" y="333"/>
      <point x="393" y="402"/>
      <point x="297" y="402" type="curve" smooth="yes"/>
      <point x="201" y="402"/>
      <point x="141" y="333"/>
    </contour>
  </outline>
</glyph>
<glyph name="ntilde" format="2">
  <advance width="556"/>
  <unicode hex="00F1"/>
  <outline>
    <contour>
      <point x="68" y="0" type="line"/>
      <point x="68" y="474" type="line"/>
      <point x="158" y="474" type="line"/>
      <point x="158" y="401" type="line"/>
      <point x="160" y="401" type="line"/>
      <point x="183" y="451"/>
      <point x="243" y="486"/>
      <point x="316" y="486" type="curve" smooth="yes"/>
      <point x="408" y="486"/>
      <point x="488" y="431"/>
      <point x="488" y="305" type="curve" smooth="yes"/>
      <point x="488" y="0" type="line"/>
      <point x="398" y="0" type="line"/>
      <point x="398" y="280" type="line" smooth="yes"/>
      <point x="398" y="369"/>
      <point x="347" y="402"/>
      <point x="290" y="402" type="curve" smooth="yes"/>
      <point x="215" y="402"/>
      <point x="158" y="354"/>
      <point x="158" y="244" type="curve" smooth="yes"/>
      <point x="158" y="0" type="line"/>
    </contour>
    <contour>
      <point x="158" y="576" type="curve"/>
      <point x="110" y="576" type="line"/>
      <point x="119" y="628"/>
      <point x="152" y="680"/>
      <point x="211" y="680" type="curve" smooth="yes"/>
      <point x="241" y="680"/>
      <point x="268" y="668"/>
      <point x="295" y="657" type="curve" smooth="yes"/>
      <point x="315" y="649"/>
      <point x="328" y="640"/>
      <point x="349" y="640" type="curve" smooth="yes"/>
      <point x="376" y="640"/>
      <point x="391" y="660"/>
      <point x="398" y="684" type="curve"/>
      <point x="446" y="684" type="line"/>
      <point x="438" y="633"/>
      <point x="411" y="580"/>
      <point x="352" y="580" type="curve" smooth="yes"/>
      <point x="324" y="580"/>
      <point x="296" y="591"/>
      <point x="271" y="601" type="curve" smooth="yes"/>
      <point x="251" y="609"/>
      <point x="228" y="620"/>
      <point x="205" y="620" type="curve" smooth="yes"/>
      <point x="180" y="620"/>
      <point x="165" y="598"/>
    </contour>
  </outline>
</glyph>
<glyph name="oacute" format="2">
  <advance width="594"/>
  <unicode hex="00F3"/>
  <outline>
    <contour>
      <point x="141" y="237" type="curve" smooth="yes"/>
      <point x="141" y="141"/>
      <point x="201" y="72"/>
      <point x="297" y="72" type="curve" smooth="yes"/>
      <point x="393" y="72"/>
      <point x="453" y="141"/>
      <point x="453" y="237" type="curve" smooth="yes"/>
      <point x="453" y="333"/>
      <point x="393" y="402"/>
      <point x="297" y="402" type="curve" smooth="yes"/>
      <point x="201" y="402"/>
      <point x="141" y="333"/>
    </contour>
    <contour>
      <point x="45" y="237" type="curve" smooth="yes"/>
      <point x="45" y="375"/>
      <point x="156" y="486"/>
      <point x="297" y="486" type="curve" smooth="yes"/>
      <point x="438" y="486"/>
      <point x="549" y="375"/>
      <point x="549" y="237" type="curve" smooth="yes"/>
      <point x="549" y="99"/>
      <point x="438" y="-12"/>
      <point x="297" y="-12" type="curve" smooth="yes"/>
      <point x="156" y="-12"/>
      <point x="45" y="99"/>
    </contour>
    <contour>
      <point x="231" y="564" type="line"/>
      <point x="335" y="708" type="line"/>
      <point x="463" y="708" type="line"/>
      <point x="314" y="564" type="line"/>
    </contour>
  </outline>
</glyph>
<glyph name="otilde" format="2">
  <advance width="594"/>
  <unicode hex="00F5"/>
  <outline>
    <contour>
      <point x="141" y="237" type="curve" smooth="yes"/>
      <point x="141" y="141"/>
      <point x="201" y="72"/>
      <point x="297" y="72" type="curve" smooth="yes"/>
      <point x="393" y="72"/>
      <point x="453" y="141"/>
      <point x="453" y="237" type="curve" smooth="yes"/>
      <point x="453" y="333"/>
      <point x="393" y="402"/>
      <point x="297" y="402" type="curve" smooth="yes"/>
      <point x="201" y="402"/>
      <point x="141" y="333"/>
    </contour>
    <contour>
      <point x="45" y="237" type="curve" smooth="yes"/>
      <point x="45" y="375"/>
      <point x="156" y="486"/>
      <point x="297" y="486" type="curve" smooth="yes"/>
      <point x="438" y="486"/>
      <point x="549" y="375"/>
      <point x="549" y="237" type="curve" smooth="yes"/>
      <point x="549" y="99"/>
      <point x="438" y="-12"/>
      <point x="297" y="-12" type="curve" smooth="yes"/>
      <point x="156" y="-12"/>
      <point x="45" y="99"/>
    </contour>
    <contour>
      <point x="177" y="576" type="curve"/>
      <point x="129" y="576" type="line"/>
      <point x="138" y="628"/>
      <point x="171" y="680"/>
      <point x="230" y="680" type="curve" smooth="yes"/>
      <point x="260" y="680"/>
      <point x="287" y="668"/>
      <point x="314" y="657" type="curve" smooth="yes"/>
      <point x="334" y="649"/>
      <point x="347" y="640"/>
      <point x="368" y="640" type="curve" smooth="yes"/>
      <point x="395" y="640"/>
      <point x="410" y="660"/>
      <point x="417" y="684" type="curve"/>
      <point x="465" y="684" type="line"/>
      <point x="457" y="633"/>
      <point x="430" y="580"/>
      <point x="371" y="580" type="curve" smooth="yes"/>
      <point x="343" y="580"/>
      <point x="315" y="591"/>
      <point x="290" y="601" type="curve" smooth="yes"/>
      <point x="270" y="609"/>
      <point x="247" y="620"/>
      <point x="224" y="620" type="curve" smooth="yes"/>
      <point x="199" y="620"/>
      <point x="184" y="598"/>
    </contour>
  </outline>
</glyph>
<glyph name="odieresis" format="2">
  <advance width="594"/>
  <unicode hex="00F6"/>
  <outline>
    <contour>
      <point x="141" y="237" type="curve" smooth="yes"/>
      <point x="141" y="141"/>
      <point x="201" y="72"/>
      <point x="297" y="72" type="curve" smooth="yes"/>
      <point x="393" y="72"/>
      <point x="453" y="141"/>
      <point x="453" y="237" type="curve" smooth="yes"/>
      <point x="453" y="333"/>
      <point x="393" y="402"/>
      <point x="297" y="402" type="curve" smooth="yes"/>
      <point x="201" y="402"/>
      <point x="141" y="333"/>
    </contour>
    <contour>
      <point x="45" y="237" type="curve" smooth="yes"/>
      <point x="45" y="375"/>
      <point x="156" y="486"/>
      <point x="297" y="486" type="curve" smooth="yes"/>
      <point x="438" y="486"/>
      <point x="549" y="375"/>
      <point x="549" y="237" type="curve" smooth="yes"/>
      <point x="549" y="99"/>
      <point x="438" y="-12"/>
      <point x="297" y="-12" type="curve" smooth="yes"/>
      <point x="156" y="-12"/>
      <point x="45" y="99"/>
    </contour>
    <contour>
      <point x="195" y="714" type="curve" smooth="yes"/>
      <point x="226" y="714"/>
      <point x="257" y="690"/>
      <point x="257" y="657" type="curve" smooth="yes"/>
      <point x="257" y="621"/>
      <point x="231" y="594"/>
      <point x="195" y="594" type="curve" smooth="yes"/>
      <point x="159" y="594"/>
      <point x="133" y="621"/>
      <point x="133" y="657" type="curve" smooth="yes"/>
      <point x="133" y="690"/>
      <point x="164" y="714"/>
    </contour>
    <contour>
      <point x="399" y="714" type="curve" smooth="yes"/>
      <point x="430" y="714"/>
      <point x="461" y="690"/>
      <point x="461" y="657" type="curve" smooth="yes"/>
      <point x="461" y="621"/>
      <point x="435" y="594"/>
      <point x="399" y="594" type="curve" smooth="yes"/>
      <point x="363" y="594"/>
      <point x="337" y="621"/>
      <point x="337" y="657" type="curve" smooth="yes"/>
      <point x="337" y="690"/>
      <point x="368" y="714"/>
    </contour>
  </outline>
</glyph>
<glyph name="divide" format="2">
  <advance width="666"/>
  <unicode hex="00F7"/>
  <outline>
    <contour>
      <point x="66" y="341" type="line"/>
      <point x="600" y="341" type="line"/>
      <point x="600" y="263" type="line"/>
      <point x="66" y="263" type="line"/>
    </contour>
    <contour>
      <point x="267" y="470" type="curve" smooth="yes"/>
      <point x="267" y="506"/>
      <point x="297" y="536"/>
      <point x="333" y="536" type="curve" smooth="yes"/>
      <point x="369" y="536"/>
      <point x="399" y="506"/>
      <point x="399" y="470" type="curve" smooth="yes"/>
      <point x="399" y="434"/>
      <point x="369" y="404"/>
      <point x="333" y="404" type="curve" smooth="yes"/>
      <point x="297" y="404"/>
      <point x="267" y="434"/>
    </contour>
    <contour>
      <point x="267" y="134" type="curve" smooth="yes"/>
      <point x="267" y="170"/>
      <point x="297" y="200"/>
      <point x="333" y="200" type="curve" smooth="yes"/>
      <point x="369" y="200"/>
      <point x="399" y="170"/>
      <point x="399" y="134" type="curve" smooth="yes"/>
      <point x="399" y="98"/>
      <point x="369" y="68"/>
      <point x="333" y="68" type="curve" smooth="yes"/>
      <point x="297" y="68"/>
      <point x="267" y="98"/>
    </contour>
  </outline>
</glyph>
<glyph name="oslash" format="2">
  <advance width="594"/>
  <unicode hex="00F8"/>
  <outline>
    <contour>
      <point x="171" y="135" type="curve"/>
      <point x="399" y="367" type="line"/>
      <point x="373" y="389"/>
      <point x="339" y="402"/>
      <point x="297" y="402" type="curve" smooth="yes"/>
      <point x="201" y="402"/>
      <point x="141" y="333"/>
      <point x="141" y="237" type="curve" smooth="yes"/>
      <point x="141" y="197"/>
      <point x="151" y="162"/>
    </contour>
    <contour>
      <point x="78" y="-32" type="line"/>
      <point x="41" y="4" type="line"/>
      <point x="108" y="72" type="line"/>
      <point x="69" y="114"/>
      <point x="45" y="173"/>
      <point x="45" y="237" type="curve" smooth="yes"/>
      <point x="45" y="375"/>
      <point x="156" y="486"/>
      <point x="297" y="486" type="curve" smooth="yes"/>
      <point x="360" y="486"/>
      <point x="417" y="464"/>
      <point x="459" y="428" type="curve"/>
      <point x="534" y="503" type="line"/>
      <point x="570" y="467" type="line"/>
      <point x="495" y="391" type="line"/>
      <point x="529" y="349"/>
      <point x="549" y="295"/>
      <point x="549" y="237" type="curve" smooth="yes"/>
      <point x="549" y="99"/>
      <point x="438" y="-12"/>
      <point x="297" y="-12" type="curve" smooth="yes"/>
      <point x="241" y="-12"/>
      <point x="189" y="6"/>
      <point x="147" y="37" type="curve"/>
    </contour>
    <contour>
      <point x="431" y="326" type="curve"/>
      <point x="208" y="99" type="line"/>
      <point x="232" y="81"/>
      <point x="262" y="72"/>
      <point x="297" y="72" type="curve" smooth="yes"/>
      <point x="393" y="72"/>
      <point x="453" y="141"/>
      <point x="453" y="237" type="curve" smooth="yes"/>
      <point x="453" y="270"/>
      <point x="446" y="301"/>
    </contour>
  </outline>
</glyph>
<glyph name="ugrave" format="2">
  <advance width="556"/>
  <unicode hex="00F9"/>
  <outline>
    <contour>
      <point x="488" y="474" type="line"/>
      <point x="488" y="0" type="line"/>
      <point x="398" y="0" type="line"/>
      <point x="398" y="73" type="line"/>
      <point x="396" y="73" type="line"/>
      <point x="373" y="23"/>
      <point x="313" y="-12"/>
      <point x="240" y="-12" type="curve" smooth="yes"/>
      <point x="148" y="-12"/>
      <point x="68" y="43"/>
      <point x="68" y="169" type="curve" smooth="yes"/>
      <point x="68" y="474" type="line"/>
      <point x="158" y="474" type="line"/>
      <point x="158" y="194" type="line" smooth="yes"/>
      <point x="158" y="105"/>
      <point x="209" y="72"/>
      <point x="266" y="72" type="curve" smooth="yes"/>
      <point x="341" y="72"/>
      <point x="398" y="120"/>
      <point x="398" y="230" type="curve" smooth="yes"/>
      <point x="398" y="474" type="line"/>
    </contour>
    <contour>
      <point x="240" y="708" type="line"/>
      <point x="344" y="564" type="line"/>
      <point x="261" y="564" type="line"/>
      <point x="112" y="708" type="line"/>
    </contour>
  </outline>
</glyph>
<glyph name="yacute" format="2">
  <advance width="500"/>
  <unicode hex="00FD"/>
  <outline>
    <contour>
      <point x="208" y="-3" type="line"/>
      <point x="11" y="474" type="line"/>
      <point x="115" y="474" type="line"/>
      <point x="256" y="104" type="line"/>
      <point x="258" y="104" type="line"/>
      <point x="392" y="474" type="line"/>
      <point x="489" y="474" type="line"/>
      <point x="264" y="-102" type="line" smooth="yes"/>
      <point x="232" y="-184"/>
      <point x="201" y="-240"/>
      <point x="102" y="-240" type="curve" smooth="yes"/>
      <point x="75" y="-240"/>
      <point x="47" y="-237"/>
      <point x="22" y="-227" type="curve"/>
      <point x="33" y="-145" type="line"/>
      <point x="50" y="-152"/>
      <point x="69" y="-156"/>
      <point x="87" y="-156" type="curve" smooth="yes"/>
      <point x="144" y="-156"/>
      <point x="161" y="-125"/>
      <point x="179" y="-78" type="curve" smooth="yes"/>
    </contour>
    <contour>
      <point x="184" y="564" type="line"/>
      <point x="288" y="708" type="line"/>
      <point x="416" y="708" type="line"/>
      <point x="267" y="564" type="line"/>
    </contour>
  </outline>
</glyph>
<glyph name="thorn" format="2">
  <advance width="611"/>
  <unicode hex="00FE"/>
  <outline>
    <contour>
      <point x="68" y="-228" type="line"/>
      <point x="68" y="756" type="line"/>
      <point x="158" y="756" type="line"/>
      <point x="158" y="406" type="line"/>
      <point x="160" y="406" type="line"/>
      <point x="192" y="455"/>
      <point x="257" y="486"/>
      <point x="325" y="486" type="curve" smooth="yes"/>
      <point x="471" y="486"/>
      <point x="566" y="379"/>
      <point x="566" y="237" type="curve" smooth="yes"/>
      <point x="566" y="97"/>
      <point x="472" y="-12"/>
      <point x="325" y="-12" type="curve" smooth="yes"/>
      <point x="261" y="-12"/>
      <point x="195" y="17"/>
      <point x="160" y="68" type="curve"/>
      <point x="158" y="68" type="line"/>
      <point x="158" y="-228" type="line"/>
    </contour>
    <contour>
      <point x="314" y="72" type="curve" smooth="yes"/>
      <point x="410" y="72"/>
      <point x="470" y="141"/>
      <point x="470" y="237" type="curve" smooth="yes"/>
      <point x="470" y="333"/>
      <point x="410" y="402"/>
      <point x="314" y="402" type="curve" smooth="yes"/>
      <point x="218" y="402"/>
      <point x="158" y="333"/>
      <point x="158" y="237" type="curve" smooth="yes"/>
      <point x="158" y="141"/>
      <point x="218" y="72"/>
    </contour>
  </outline>
</glyph>
<glyph name="ydieresis" format="2">
  <advance width="500"/>
  <unicode hex="00FF"/>
  <outline>
    <contour>
      <point x="208" y="-3" type="line"/>
      <point x="11" y="474" type="line"/>
      <point x="115" y="474" type="line"/>
      <point x="256" y="104" type="line"/>
      <point x="258" y="104" type="line"/>
      <point x="392" y="474" type="line"/>
      <point x="489" y="474" type="line"/>
      <point x="264" y="-102" type="line" smooth="yes"/>
      <point x="232" y="-184"/>
      <point x="201" y="-240"/>
      <point x="102" y="-240" type="curve" smooth="yes"/>
      <point x="75" y="-240"/>
      <point x="47" y="-237"/>
      <point x="22" y="-227" type="curve"/>
      <point x="33" y="-145" type="line"/>
      <point x="50" y="-152"/>
      <point x="69" y="-156"/>
      <point x="87" y="-156" type="curve" smooth="yes"/>
      <point x="144" y="-156"/>
      <point x="161" y="-125"/>
      <point x="179" y="-78" type="curve" smooth="yes"/>
    </contour>
    <contour>
      <point x="148" y="714" type="curve" smooth="yes"/>
      <point x="179" y="714"/>
      <point x="210" y="690"/>
      <point x="210" y="657" type="curve" smooth="yes"/>
      <point x="210" y="621"/>
      <point x="184" y="594"/>
      <point x="148" y="594" type="curve" smooth="yes"/>
      <point x="112" y="594"/>
      <point x="86" y="621"/>
      <point x="86" y="657" type="curve" smooth="yes"/>
      <point x="86" y="690"/>
      <point x="117" y="714"/>
    </contour>
    <contour>
      <point x="352" y="714" type="curve" smooth="yes"/>
      <point x="383" y="714"/>
      <point x="414" y="690"/>
      <point x="414" y="657" type="curve" smooth="yes"/>
      <point x="414" y="621"/>
      <point x="388" y="594"/>
      <point x="352" y="594" type="curve" smooth="yes"/>
      <point x="316" y="594"/>
      <point x="290" y="621"/>
      <point x="290" y="657" type="curve" smooth="yes"/>
      <point x="290" y="690"/>
      <point x="321" y="714"/>
    </contour>
  </outline>
</glyph>
<glyph name="Lslash" format="2">
  <advance width="519"/>
  <unicode hex="0141"/>
  <outline>
    <contour>
      <point x="91" y="0" type="line"/>
      <point x="91" y="209" type="line"/>
      <point x="19" y="146" type="line"/>
      <point x="19" y="235" type="line"/>
      <point x="91" y="297" type="line"/>
      <point x="91" y="708" type="line"/>
      <point x="187" y="708" type="line"/>
      <point x="187" y="380" type="line"/>
      <point x="403" y="568" type="line"/>
      <point x="403" y="479" type="line"/>
      <point x="187" y="292" type="line"/>
      <point x="187" y="90" type="line"/>
      <point x="512" y="90" type="line"/>
      <point x="512" y="0" type="line"/>
    </contour>
  </outline>
</glyph>
<glyph name="lslash" format="2">
  <advance width="240"/>
  <unicode hex="0142"/>
  <outline>
    <contour>
      <point x="75" y="0" type="line"/>
      <point x="75" y="298" type="line"/>
      <point x="-3" y="220" type="line"/>
      <point x="-3" y="310" type="line"/>
      <point x="75" y="388" type="line"/>
      <point x="75" y="756" type="line"/>
      <point x="165" y="756" type="line"/>
      <point x="165" y="478" type="line"/>
      <point x="243" y="555" type="line"/>
      <point x="243" y="465" type="line"/>
      <point x="165" y="388" type="line"/>
      <point x="165" y="0" type="line"/>
    </contour>
  </outline>
</glyph>
<glyph name="OE" format="2">
  <advance width="981"/>
  <unicode hex="0152"/>
  <outline>
    <contour>
      <point x="923" y="90" type="line"/>
      <point x="923" y="0" type="line"/>
      <point x="467" y="0" type="line" smooth="yes"/>
      <point x="206" y="0"/>
      <point x="58" y="148"/>
      <point x="58" y="354" type="curve" smooth="yes"/>
      <point x="58" y="568"/>
      <point x="212" y="708"/>
      <point x="467" y="708" type="curve" smooth="yes"/>
      <point x="911" y="708" type="line"/>
      <point x="911" y="618" type="line"/>
      <point x="617" y="618" type="line"/>
      <point x="617" y="407" type="line"/>
      <point x="893" y="407" type="line"/>
      <point x="893" y="317" type="line"/>
      <point x="617" y="317" type="line"/>
      <point x="617" y="90" type="line"/>
    </contour>
    <contour>
      <point x="521" y="90" type="line"/>
      <point x="521" y="618" type="line"/>
      <point x="460" y="618" type="line" smooth="yes"/>
      <point x="264" y="618"/>
      <point x="160" y="496"/>
      <point x="160" y="354" type="curve" smooth="yes"/>
      <point x="160" y="204"/>
      <point x="264" y="90"/>
      <point x="460" y="90" type="curve" smooth="yes"/>
    </contour>
  </outline>
</glyph>
<glyph name="oe" format="2">
  <advance width="926"/>
  <unicode hex="0153"/>
  <outline>
    <contour>
      <point x="794" y="135" type="curve"/>
      <point x="868" y="86" type="line"/>
      <point x="822" y="20"/>
      <point x="755" y="-12"/>
      <point x="669" y="-12" type="curve" smooth="yes"/>
      <point x="592" y="-12"/>
      <point x="515" y="15"/>
      <point x="475" y="80" type="curve"/>
      <point x="450" y="46"/>
      <point x="403" y="-12"/>
      <point x="280" y="-12" type="curve" smooth="yes"/>
      <point x="127" y="-12"/>
      <point x="39" y="96"/>
      <point x="39" y="237" type="curve" smooth="yes"/>
      <point x="39" y="380"/>
      <point x="139" y="486"/>
      <point x="285" y="486" type="curve" smooth="yes"/>
      <point x="367" y="486"/>
      <point x="429" y="457"/>
      <point x="477" y="395" type="curve"/>
      <point x="509" y="437"/>
      <point x="565" y="486"/>
      <point x="664" y="486" type="curve" smooth="yes"/>
      <point x="799" y="486"/>
      <point x="887" y="389"/>
      <point x="887" y="248" type="curve" smooth="yes"/>
      <point x="887" y="204" type="line"/>
      <point x="528" y="204" type="line"/>
      <point x="528" y="134"/>
      <point x="570" y="66"/>
      <point x="671" y="66" type="curve" smooth="yes"/>
      <point x="728" y="66"/>
      <point x="768" y="93"/>
    </contour>
    <contour>
      <point x="528" y="276" type="curve"/>
      <point x="791" y="276" type="line"/>
      <point x="789" y="343"/>
      <point x="747" y="414"/>
      <point x="662" y="414" type="curve" smooth="yes"/>
      <point x="577" y="414"/>
      <point x="528" y="335"/>
    </contour>
    <contour>
      <point x="438" y="237" type="curve" smooth="yes"/>
      <point x="438" y="323"/>
      <point x="394" y="408"/>
      <point x="288" y="408" type="curve" smooth="yes"/>
      <point x="186" y="408"/>
      <point x="135" y="332"/>
      <point x="135" y="237" type="curve" smooth="yes"/>
      <point x="135" y="144"/>
      <point x="186" y="66"/>
      <point x="280" y="66" type="curve" smooth="yes"/>
      <point x="402" y="66"/>
      <point x="438" y="151"/>
    </contour>
  </outline>
</glyph>
<glyph name="Scaron" format="2">
  <advance width="556"/>
  <unicode hex="0160"/>
  <outline>
    <contour>
      <point x="33" y="80" type="curve"/>
      <point x="112" y="148" type="line"/>
      <point x="146" y="96"/>
      <point x="205" y="72"/>
      <point x="262" y="72" type="curve" smooth="yes"/>
      <point x="325" y="72"/>
      <point x="403" y="112"/>
      <point x="403" y="190" type="curve" smooth="yes"/>
      <point x="403" y="353"/>
      <point x="54" y="252"/>
      <point x="54" y="528" type="curve" smooth="yes"/>
      <point x="54" y="611"/>
      <point x="124" y="726"/>
      <point x="294" y="726" type="curve" smooth="yes"/>
      <point x="371" y="726"/>
      <point x="445" y="710"/>
      <point x="498" y="645" type="curve"/>
      <point x="420" y="574" type="line"/>
      <point x="396" y="611"/>
      <point x="349" y="636"/>
      <point x="294" y="636" type="curve" smooth="yes"/>
      <point x="188" y="636"/>
      <point x="156" y="572"/>
      <point x="156" y="528" type="curve" smooth="yes"/>
      <point x="156" y="349"/>
      <point x="505" y="456"/>
      <point x="505" y="201" type="curve" smooth="yes"/>
      <point x="505" y="64"/>
      <point x="395" y="-18"/>
      <point x="259" y="-18" type="curve" smooth="yes"/>
      <point x="168" y="-18"/>
      <point x="81" y="13"/>
    </contour>
    <contour>
      <point x="225" y="748" type="line"/>
      <point x="113" y="892" type="line"/>
      <point x="200" y="892" type="line"/>
      <point x="278" y="796" type="line"/>
      <point x="352" y="892" type="line"/>
      <point x="443" y="892" type="line"/>
      <point x="331" y="748" type="line"/>
    </contour>
  </outline>
</glyph>
<glyph name="scaron" format="2">
  <advance width="444"/>
  <unicode hex="0161"/>
  <outline>
    <contour>
      <point x="390" y="408" type="curve"/>
      <point x="320" y="355" type="line"/>
      <point x="299" y="381"/>
      <point x="268" y="402"/>
      <point x="223" y="402" type="curve" smooth="yes"/>
      <point x="181" y="402"/>
      <point x="144" y="383"/>
      <point x="144" y="349" type="curve" smooth="yes"/>
      <point x="144" y="292"/>
      <point x="225" y="284"/>
      <point x="265" y="275" type="curve" smooth="yes"/>
      <point x="343" y="256"/>
      <point x="403" y="226"/>
      <point x="403" y="137" type="curve" smooth="yes"/>
      <point x="403" y="30"/>
      <point x="305" y="-12"/>
      <point x="211" y="-12" type="curve" smooth="yes"/>
      <point x="133" y="-12"/>
      <point x="75" y="8"/>
      <point x="28" y="72" type="curve"/>
      <point x="96" y="128" type="line"/>
      <point x="125" y="99"/>
      <point x="159" y="72"/>
      <point x="211" y="72" type="curve" smooth="yes"/>
      <point x="257" y="72"/>
      <point x="307" y="91"/>
      <point x="307" y="132" type="curve" smooth="yes"/>
      <point x="307" y="186"/>
      <point x="232" y="196"/>
      <point x="193" y="205" type="curve" smooth="yes"/>
      <point x="116" y="224"/>
      <point x="48" y="249"/>
      <point x="48" y="340" type="curve" smooth="yes"/>
      <point x="48" y="439"/>
      <point x="139" y="486"/>
      <point x="228" y="486" type="curve" smooth="yes"/>
      <point x="291" y="486"/>
      <point x="356" y="464"/>
    </contour>
    <contour>
      <point x="169" y="564" type="line"/>
      <point x="57" y="708" type="line"/>
      <point x="144" y="708" type="line"/>
      <point x="222" y="612" type="line"/>
      <point x="296" y="708" type="line"/>
      <point x="387" y="708" type="line"/>
      <point x="275" y="564" type="line"/>
    </contour>
  </outline>
</glyph>
<glyph name="Ydieresis" format="2">
  <advance width="612"/>
  <unicode hex="0178"/>
  <outline>
    <contour>
      <point x="258" y="0" type="line"/>
      <point x="258" y="302" type="line"/>
      <point x="-10" y="708" type="line"/>
      <point x="113" y="708" type="line"/>
      <point x="306" y="397" type="line"/>
      <point x="505" y="708" type="line"/>
      <point x="622" y="708" type="line"/>
      <point x="354" y="302" type="line"/>
      <point x="354" y="0" type="line"/>
    </contour>
    <contour>
      <point x="204" y="898" type="curve" smooth="yes"/>
      <point x="235" y="898"/>
      <point x="266" y="874"/>
      <point x="266" y="841" type="curve" smooth="yes"/>
      <point x="266" y="805"/>
      <point x="240" y="778"/>
      <point x="204" y="778" type="curve" smooth="yes"/>
      <point x="168" y="778"/>
      <point x="142" y="805"/>
      <point x="142" y="841" type="curve" smooth="yes"/>
      <point x="142" y="874"/>
      <point x="173" y="898"/>
    </contour>
    <contour>
      <point x="408" y="898" type="curve" smooth="yes"/>
      <point x="439" y="898"/>
      <point x="470" y="874"/>
      <point x="470" y="841" type="curve" smooth="yes"/>
      <point x="470" y="805"/>
      <point x="444" y="778"/>
      <point x="408" y="778" type="curve" smooth="yes"/>
      <point x="372" y="778"/>
      <point x="346" y="805"/>
      <point x="346" y="841" type="curve" smooth="yes"/>
      <point x="346" y="874"/>
      <point x="377" y="898"/>
    </contour>
  </outline>
</glyph>
<glyph name="Zcaron" format="2">
  <advance width="593"/>
  <unicode hex="017D"/>
  <outline>
    <contour>
      <point x="32" y="0" type="line"/>
      <point x="32" y="90" type="line"/>
      <point x="435" y="618" type="line"/>
      <point x="44" y="618" type="line"/>
      <point x="44" y="708" type="line"/>
      <point x="555" y="708" type="line"/>
      <point x="555" y="618" type="line"/>
      <point x="154" y="90" type="line"/>
      <point x="561" y="90" type="line"/>
      <point x="561" y="0" type="line"/>
    </contour>
    <contour>
      <point x="244" y="748" type="line"/>
      <point x="132" y="892" type="line"/>
      <point x="219" y="892" type="line"/>
      <point x="297" y="796" type="line"/>
      <point x="371" y="892" type="line"/>
      <point x="462" y="892" type="line"/>
      <point x="350" y="748" type="line"/>
    </contour>
  </outline>
</glyph>
<glyph name="zcaron" format="2">
  <advance width="463"/>
  <unicode hex="017E"/>
  <outline>
    <contour>
      <point x="35" y="0" type="line"/>
      <point x="35" y="81" type="line"/>
      <point x="304" y="396" type="line"/>
      <point x="44" y="396" type="line"/>
      <point x="44" y="474" type="line"/>
      <point x="414" y="474" type="line"/>
      <point x="414" y="394" type="line"/>
      <point x="143" y="78" type="line"/>
      <point x="428" y="78" type="line"/>
      <point x="428" y="0" type="line"/>
    </contour>
    <contour>
      <point x="179" y="564" type="line"/>
      <point x="67" y="708" type="line"/>
      <point x="154" y="708" type="line"/>
      <point x="232" y="612" type="line"/>
      <point x="306" y="708" type="line"/>
      <point x="397" y="708" type="line"/>
      <point x="285" y="564" type="line"/>
    </contour>
  </outline>
</glyph>
<glyph name="florin" format="2">
  <advance width="556"/>
  <unicode hex="0192"/>
  <outline>
    <contour>
      <point x="449" y="425" type="line"/>
      <point x="449" y="353" type="line"/>
      <point x="315" y="353" type="line"/>
      <point x="242" y="-15" type="line" smooth="yes"/>
      <point x="227" y="-93"/>
      <point x="166" y="-144"/>
      <point x="85" y="-144" type="curve" smooth="yes"/>
      <point x="47" y="-144"/>
      <point x="16" y="-133"/>
      <point x="-12" y="-119" type="curve"/>
      <point x="26" y="-48" type="line"/>
      <point x="47" y="-56"/>
      <point x="65" y="-60"/>
      <point x="80" y="-60" type="curve" smooth="yes"/>
      <point x="138" y="-60"/>
      <point x="150" y="-9"/>
      <point x="157" y="29" type="curve" smooth="yes"/>
      <point x="220" y="353" type="line"/>
      <point x="112" y="353" type="line"/>
      <point x="112" y="425" type="line"/>
      <point x="234" y="425" type="line"/>
      <point x="261" y="566" type="line" smooth="yes"/>
      <point x="279" y="658"/>
      <point x="339" y="720"/>
      <point x="414" y="720" type="curve" smooth="yes"/>
      <point x="457" y="720"/>
      <point x="500" y="713"/>
      <point x="531" y="696" type="curve"/>
      <point x="491" y="621" type="line"/>
      <point x="476" y="631"/>
      <point x="462" y="636"/>
      <point x="433" y="636" type="curve" smooth="yes"/>
      <point x="399" y="636"/>
      <point x="361" y="611"/>
      <point x="348" y="536" type="curve" smooth="yes"/>
      <point x="329" y="425" type="line"/>
    </contour>
  </outline>
</glyph>
<glyph name="circumflex" format="2">
  <advance width="240"/>
  <unicode hex="02C6"/>
  <outline>
    <contour>
      <point x="285" y="564" type="line"/>
      <point x="194" y="564" type="line"/>
      <point x="120" y="660" type="line"/>
      <point x="46" y="564" type="line"/>
      <point x="-45" y="564" type="line"/>
      <point x="67" y="708" type="line"/>
      <point x="173" y="708" type="line"/>
    </contour>
  </outline>
</glyph>
<glyph name="caron" format="2">
  <advance width="240"/>
  <unicode hex="02C7"/>
  <outline>
    <contour>
      <point x="67" y="564" type="line"/>
      <point x="-45" y="708" type="line"/>
      <point x="42" y="708" type="line"/>
      <point x="120" y="612" type="line"/>
      <point x="194" y="708" type="line"/>
      <point x="285" y="708" type="line"/>
      <point x="173" y="564" type="line"/>
    </contour>
  </outline>
</glyph>
<glyph name="uni02C9" format="2">
  <advance width="240"/>
  <unicode hex="02C9"/>
  <outline>
    <contour>
      <point x="264" y="666" type="line"/>
      <point x="264" y="600" type="line"/>
      <point x="-24" y="600" type="line"/>
      <point x="-24" y="666" type="line"/>
    </contour>
  </outline>
</glyph>
<glyph name="breve" format="2">
  <advance width="240"/>
  <unicode hex="02D8"/>
  <outline>
    <contour>
      <point x="-37" y="702" type="curve"/>
      <point x="18" y="702" type="line"/>
      <point x="27" y="651"/>
      <point x="72" y="630"/>
      <point x="121" y="630" type="curve" smooth="yes"/>
      <point x="170" y="630"/>
      <point x="215" y="651"/>
      <point x="224" y="702" type="curve"/>
      <point x="277" y="702" type="line"/>
      <point x="271" y="611"/>
      <point x="208" y="564"/>
      <point x="120" y="564" type="curve" smooth="yes"/>
      <point x="32" y="564"/>
      <point x="-31" y="611"/>
    </contour>
  </outline>
</glyph>
<glyph name="dotaccent" format="2">
  <advance width="240"/>
  <unicode hex="02D9"/>
  <outline>
    <contour>
      <point x="120" y="594" type="curve" smooth="yes"/>
      <point x="84" y="594"/>
      <point x="58" y="621"/>
      <point x="58" y="657" type="curve" smooth="yes"/>
      <point x="58" y="690"/>
      <point x="89" y="714"/>
      <point x="120" y="714" type="curve" smooth="yes"/>
      <point x="151" y="714"/>
      <point x="182" y="690"/>
      <point x="182" y="657" type="curve" smooth="yes"/>
      <point x="182" y="621"/>
      <point x="156" y="594"/>
    </contour>
  </outline>
</glyph>
<glyph name="ring" format="2">
  <advance width="240"/>
  <unicode hex="02DA"/>
  <outline>
    <contour>
      <point x="18" y="651" type="curve" smooth="yes"/>
      <point x="18" y="707"/>
      <point x="66" y="750"/>
      <point x="120" y="750" type="curve" smooth="yes"/>
      <point x="176" y="750"/>
      <point x="223" y="707"/>
      <point x="222" y="652" type="curve" smooth="yes"/>
      <point x="223" y="596"/>
      <point x="176" y="553"/>
      <point x="120" y="553" type="curve" smooth="yes"/>
      <point x="66" y="553"/>
      <point x="18" y="596"/>
    </contour>
    <contour>
      <point x="180" y="651" type="curve" smooth="yes"/>
      <point x="180" y="684"/>
      <point x="152" y="708"/>
      <point x="120" y="708" type="curve" smooth="yes"/>
      <point x="88" y="708"/>
      <point x="60" y="684"/>
      <point x="60" y="651" type="curve" smooth="yes"/>
      <point x="60" y="619"/>
      <point x="89" y="595"/>
      <point x="120" y="595" type="curve" smooth="yes"/>
      <point x="151" y="595"/>
      <point x="180" y="619"/>
    </contour>
  </outline>
</glyph>
<glyph name="ogonek" format="2">
  <advance width="240"/>
  <unicode hex="02DB"/>
  <outline>
    <contour>
      <point x="193" y="-142" type="curve"/>
      <point x="215" y="-186" type="line"/>
      <point x="188" y="-210"/>
      <point x="155" y="-221"/>
      <point x="124" y="-221" type="curve" smooth="yes"/>
      <point x="72" y="-221"/>
      <point x="27" y="-191"/>
      <point x="25" y="-136" type="curve" smooth="yes"/>
      <point x="25" y="-80"/>
      <point x="76" y="-26"/>
      <point x="118" y="7" type="curve"/>
      <point x="172" y="7" type="line"/>
      <point x="143" y="-21"/>
      <point x="97" y="-75"/>
      <point x="97" y="-118" type="curve" smooth="yes"/>
      <point x="100" y="-150"/>
      <point x="122" y="-161"/>
      <point x="146" y="-161" type="curve" smooth="yes"/>
      <point x="163" y="-161"/>
      <point x="180" y="-153"/>
    </contour>
  </outline>
</glyph>
<glyph name="tilde" format="2">
  <advance width="240"/>
  <unicode hex="02DC"/>
  <outline>
    <contour>
      <point x="0" y="576" type="curve"/>
      <point x="-48" y="576" type="line"/>
      <point x="-39" y="628"/>
      <point x="-6" y="680"/>
      <point x="53" y="680" type="curve" smooth="yes"/>
      <point x="83" y="680"/>
      <point x="110" y="668"/>
      <point x="137" y="657" type="curve" smooth="yes"/>
      <point x="157" y="649"/>
      <point x="170" y="640"/>
      <point x="191" y="640" type="curve" smooth="yes"/>
      <point x="218" y="640"/>
      <point x="233" y="660"/>
      <point x="240" y="684" type="curve"/>
      <point x="288" y="684" type="line"/>
      <point x="280" y="633"/>
      <point x="253" y="580"/>
      <point x="194" y="580" type="curve" smooth="yes"/>
      <point x="166" y="580"/>
      <point x="138" y="591"/>
      <point x="113" y="601" type="curve" smooth="yes"/>
      <point x="93" y="609"/>
      <point x="70" y="620"/>
      <point x="47" y="620" type="curve" smooth="yes"/>
      <point x="22" y="620"/>
      <point x="7" y="598"/>
    </contour>
  </outline>
</glyph>
<glyph name="hungarumlaut" format="2">
  <advance width="240"/>
  <unicode hex="02DD"/>
  <outline>
    <contour>
      <point x="-50" y="564" type="line"/>
      <point x="54" y="708" type="line"/>
      <point x="181" y="708" type="line"/>
      <point x="32" y="564" type="line"/>
    </contour>
    <contour>
      <point x="119" y="564" type="line"/>
      <point x="223" y="708" type="line"/>
      <point x="350" y="708" type="line"/>
      <point x="201" y="564" type="line"/>
    </contour>
  </outline>
</glyph>
<glyph name="uni03BC" format="2">
  <advance width="556"/>
  <unicode hex="03BC"/>
  <outline>
    <contour>
      <point x="68" y="-228" type="line"/>
      <point x="68" y="474" type="line"/>
      <point x="158" y="474" type="line"/>
      <point x="158" y="194" type="line" smooth="yes"/>
      <point x="158" y="105"/>
      <point x="209" y="72"/>
      <point x="266" y="72" type="curve" smooth="yes"/>
      <point x="341" y="72"/>
      <point x="398" y="120"/>
      <point x="398" y="230" type="curve" smooth="yes"/>
      <point x="398" y="474" type="line"/>
      <point x="488" y="474" type="line"/>
      <point x="488" y="0" type="line"/>
      <point x="398" y="0" type="line"/>
      <point x="398" y="73" type="line"/>
      <point x="396" y="73" type="line"/>
      <point x="373" y="23"/>
      <point x="313" y="-12"/>
      <point x="240" y="-12" type="curve" smooth="yes"/>
      <point x="210" y="-12"/>
      <point x="182" y="-6"/>
      <point x="158" y="6" type="curve"/>
      <point x="158" y="-228" type="line"/>
    </contour>
  </outline>
</glyph>
<glyph name="pi" format="2">
  <advance width="577"/>
  <unicode hex="03C0"/>
  <outline>
    <contour>
      <point x="551" y="451" type="line"/>
      <point x="473" y="451" type="line"/>
      <point x="473" y="149" type="line" smooth="yes"/>
      <point x="473" y="67"/>
      <point x="480" y="28"/>
      <point x="487" y="0" type="curve"/>
      <point x="403" y="0" type="line"/>
      <point x="393" y="18"/>
      <point x="386" y="62"/>
      <point x="386" y="142" type="curve" smooth="yes"/>
      <point x="386" y="451" type="line"/>
      <point x="215" y="451" type="line"/>
      <point x="209" y="326"/>
      <point x="180" y="98"/>
      <point x="143" y="0" type="curve"/>
      <point x="59" y="0" type="line"/>
      <point x="96" y="111"/>
      <point x="125" y="321"/>
      <point x="129" y="451" type="curve"/>
      <point x="70" y="451"/>
      <point x="42" y="447"/>
      <point x="21" y="439" type="curve"/>
      <point x="8" y="497" type="line"/>
      <point x="33" y="514"/>
      <point x="78" y="526"/>
      <point x="156" y="526" type="curve" smooth="yes"/>
      <point x="559" y="526" type="line"/>
    </contour>
  </outline>
</glyph>
<glyph name="endash" format="2">
  <advance width="500"/>
  <unicode hex="2013"/>
  <outline>
    <contour>
      <point x="500" y="282" type="line"/>
      <point x="500" y="204" type="line"/>
      <point x="0" y="204" type="line"/>
      <point x="0" y="282" type="line"/>
    </contour>
  </outline>
</glyph>
<glyph name="emdash" format="2">
  <advance width="1000"/>
  <unicode hex="2014"/>
  <outline>
    <contour>
      <point x="1000" y="282" type="line"/>
      <point x="1000" y="204" type="line"/>
      <point x="0" y="204" type="line"/>
      <point x="0" y="282" type="line"/>
    </contour>
  </outline>
</glyph>
<glyph name="quoteright" format="2">
  <advance width="278"/>
  <unicode hex="2019"/>
  <outline>
    <contour>
      <point x="222" y="708" type="line"/>
      <point x="138" y="462" type="line"/>
      <point x="56" y="462" type="line"/>
      <point x="125" y="708" type="line"/>
    </contour>
  </outline>
</glyph>
<glyph name="quotedblleft" format="2">
  <advance width="519"/>
  <unicode hex="201C"/>
  <outline>
    <contour>
      <point x="254" y="708" type="line"/>
      <point x="185" y="462" type="line"/>
      <point x="88" y="462" type="line"/>
      <point x="172" y="708" type="line"/>
    </contour>
    <contour>
      <point x="431" y="708" type="line"/>
      <point x="362" y="462" type="line"/>
      <point x="265" y="462" type="line"/>
      <point x="349" y="708" type="line"/>
    </contour>
  </outline>
</glyph>
<glyph name="quotedblright" format="2">
  <advance width="519"/>
  <unicode hex="201D"/>
  <outline>
    <contour>
      <point x="254" y="708" type="line"/>
      <point x="170" y="462" type="line"/>
      <point x="88" y="462" type="line"/>
      <point x="157" y="708" type="line"/>
    </contour>
    <contour>
      <point x="431" y="708" type="line"/>
      <point x="347" y="462" type="line"/>
      <point x="265" y="462" type="line"/>
      <point x="334" y="708" type="line"/>
    </contour>
  </outline>
</glyph>
<glyph name="quotedblbase" format="2">
  <advance width="519"/>
  <unicode hex="201E"/>
  <outline>
    <contour>
      <point x="254" y="114" type="line"/>
      <point x="170" y="-132" type="line"/>
      <point x="88" y="-132" type="line"/>
      <point x="157" y="114" type="line"/>
    </contour>
    <contour>
      <point x="431" y="114" type="line"/>
      <point x="347" y="-132" type="line"/>
      <point x="265" y="-132" type="line"/>
      <point x="334" y="114" type="line"/>
    </contour>
  </outline>
</glyph>
<glyph name="dagger" format="2">
  <advance width="556"/>
  <unicode hex="2020"/>
  <outline>
    <contour>
      <point x="233" y="-126" type="line"/>
      <point x="233" y="427" type="line"/>
      <point x="35" y="427" type="line"/>
      <point x="35" y="505" type="line"/>
      <point x="233" y="505" type="line"/>
      <point x="233" y="708" type="line"/>
      <point x="323" y="708" type="line"/>
      <point x="323" y="505" type="line"/>
      <point x="521" y="505" type="line"/>
      <point x="521" y="427" type="line"/>
      <point x="323" y="427" type="line"/>
      <point x="323" y="-126" type="line"/>
    </contour>
  </outline>
</glyph>
<glyph name="daggerdbl" format="2">
  <advance width="556"/>
  <unicode hex="2021"/>
  <outline>
    <contour>
      <point x="233" y="-126" type="line"/>
      <point x="233" y="66" type="line"/>
      <point x="41" y="66" type="line"/>
      <point x="41" y="144" type="line"/>
      <point x="233" y="144" type="line"/>
      <point x="233" y="450" type="line"/>
      <point x="41" y="450" type="line"/>
      <point x="41" y="528" type="line"/>
      <point x="233" y="528" type="line"/>
      <point x="233" y="708" type="line"/>
      <point x="323" y="708" type="line"/>
      <point x="323" y="528" type="line"/>
      <point x="515" y="528" type="line"/>
      <point x="515" y="450" type="line"/>
      <point x="323" y="450" type="line"/>
      <point x="323" y="144" type="line"/>
      <point x="515" y="144" type="line"/>
      <point x="515" y="66" type="line"/>
      <point x="323" y="66" type="line"/>
      <point x="323" y="-126" type="line"/>
    </contour>
  </outline>
</glyph>
<glyph name="bullet" format="2">
  <advance width="500"/>
  <unicode hex="2022"/>
  <outline>
    <contour>
      <point x="73" y="354" type="curve" smooth="yes"/>
      <point x="73" y="452"/>
      <point x="152" y="531"/>
      <point x="250" y="531" type="curve" smooth="yes"/>
      <point x="348" y="531"/>
      <point x="427" y="452"/>
      <point x="427" y="354" type="curve" smooth="yes"/>
      <point x="427" y="256"/>
      <point x="348" y="177"/>
      <point x="250" y="177" type="curve" smooth="yes"/>
      <point x="152" y="177"/>
      <point x="73" y="256"/>
    </contour>
  </outline>
</glyph>
<glyph name="ellipsis" format="2">
  <advance width="1000"/>
  <unicode hex="2026"/>
  <outline>
    <contour>
      <point x="167" y="-6" type="curve" smooth="yes"/>
      <point x="131" y="-6"/>
      <point x="101" y="24"/>
      <point x="101" y="60" type="curve" smooth="yes"/>
      <point x="101" y="96"/>
      <point x="131" y="126"/>
      <point x="167" y="126" type="curve" smooth="yes"/>
      <point x="203" y="126"/>
      <point x="233" y="96"/>
      <point x="233" y="60" type="curve" smooth="yes"/>
      <point x="233" y="24"/>
      <point x="203" y="-6"/>
    </contour>
    <contour>
      <point x="500" y="-6" type="curve" smooth="yes"/>
      <point x="464" y="-6"/>
      <point x="434" y="24"/>
      <point x="434" y="60" type="curve" smooth="yes"/>
      <point x="434" y="96"/>
      <point x="464" y="126"/>
      <point x="500" y="126" type="curve" smooth="yes"/>
      <point x="536" y="126"/>
      <point x="566" y="96"/>
      <point x="566" y="60" type="curve" smooth="yes"/>
      <point x="566" y="24"/>
      <point x="536" y="-6"/>
    </contour>
    <contour>
      <point x="833" y="-6" type="curve" smooth="yes"/>
      <point x="797" y="-6"/>
      <point x="767" y="24"/>
      <point x="767" y="60" type="curve" smooth="yes"/>
      <point x="767" y="96"/>
      <point x="797" y="126"/>
      <point x="833" y="126" type="curve" smooth="yes"/>
      <point x="869" y="126"/>
      <point x="899" y="96"/>
      <point x="899" y="60" type="curve" smooth="yes"/>
      <point x="899" y="24"/>
      <point x="869" y="-6"/>
    </contour>
  </outline>
</glyph>
